<?xml version="1.0" encoding="UTF-8"?>
<svg xmlns="http://www.w3.org/2000/svg" width="147" height="40" viewBox="0 0 147 40" fill="none">
  <path d="M50.9482 19.7161C51.7654 20.1339 52.6355 20.4384 53.5348 20.6214C54.6627 20.881 55.8165 21.0115 56.9739 21.0104C58.0461 21.0127 59.1131 20.8604 60.1419 20.5582C61.0426 20.3038 61.886 19.8783 62.6259 19.3052C63.2995 18.7768 63.8519 18.11 64.2459 17.35C64.6454 16.5415 64.847 15.6497 64.834 14.7481C64.8474 13.6172 64.4811 12.5146 63.7937 11.6165C62.8817 10.5685 61.6753 9.81941 60.3316 9.4668L57.1616 8.44847C56.2691 8.22056 55.4339 7.80915 54.7092 7.24047C54.4925 7.03739 54.3209 6.79108 54.2054 6.51748C54.0898 6.24388 54.0331 5.94908 54.0387 5.65215C54.0041 5.24726 54.0852 4.84088 54.2726 4.48031C54.46 4.11975 54.746 3.81983 55.0972 3.6155C56.015 3.14951 57.039 2.93249 58.0669 2.98611C59.5464 2.96353 61.0136 3.25749 62.3701 3.84829C62.6373 3.99446 62.9299 4.08812 63.2323 4.12418C63.5676 4.12418 63.7391 3.88469 63.7391 3.41337V2.3845C63.7528 2.12324 63.686 1.86406 63.5475 1.64207C63.3664 1.41665 63.1416 1.23024 62.8865 1.09411C62.5863 0.937146 62.2727 0.806995 61.9496 0.705178C61.5559 0.574893 61.1277 0.457063 60.6774 0.352644C60.2 0.240559 59.7168 0.154851 59.2299 0.095907C58.7287 0.0306003 58.2237 -0.00140234 57.7182 0.000109677C56.7654 -0.0043398 55.8168 0.126615 54.9008 0.389047C54.0617 0.626783 53.2734 1.01642 52.5749 1.53861C51.9199 2.03746 51.3746 2.66585 50.9731 3.38463C50.5534 4.14873 50.3442 5.01058 50.3667 5.88206C50.3669 7.05844 50.7585 8.20131 51.4799 9.13055C52.4068 10.2411 53.659 11.0326 55.0599 11.3933L58.3045 12.4116C59.1371 12.6301 59.9102 13.032 60.5672 13.588C60.7669 13.7956 60.923 14.041 61.0263 14.3098C61.1296 14.5787 61.1781 14.8655 61.1688 15.1533C61.1836 15.5754 61.0846 15.9936 60.8824 16.3644C60.6802 16.7351 60.3821 17.0447 60.0193 17.2609C59.0242 17.813 57.8925 18.0705 56.7564 18.0033C55.8624 18.005 54.9705 17.9141 54.0952 17.7322C53.2471 17.5623 52.4202 17.2998 51.6294 16.9495C51.3937 16.8451 51.204 16.7685 51.0641 16.7139C50.932 16.6656 50.7928 16.6397 50.6522 16.6372C50.3131 16.6372 50.1455 16.8729 50.1455 17.3432V18.4746C50.1353 18.7426 50.2087 19.0071 50.3554 19.2316C50.5022 19.456 50.715 19.6294 50.9645 19.7276" fill="#ADADAD"></path>
  <path d="M13.1393 8.86029C12.3558 8.74565 11.565 8.68675 10.7731 8.68402C8.79676 8.58013 6.8502 9.19958 5.29736 10.4266C4.63158 10.9886 4.10227 11.6945 3.74944 12.4911C3.39661 13.2878 3.22948 14.1542 3.26071 15.0248C3.22205 15.8162 3.34849 16.607 3.632 17.3468C3.9155 18.0867 4.34987 18.7594 4.90746 19.3223C5.50608 19.8722 6.20816 20.2974 6.97278 20.5733C7.7374 20.8491 8.54927 20.97 9.36108 20.9288C10.6199 20.9485 11.8665 20.6798 13.0054 20.1433C14.1444 19.6068 15.1454 18.8167 15.9318 17.8336C16.1347 18.2844 16.3644 18.7227 16.6196 19.146C16.8407 19.5247 17.1099 19.8731 17.4205 20.1826C17.5043 20.2774 17.6064 20.3543 17.7206 20.4088C17.8349 20.4633 17.9589 20.4942 18.0853 20.4997C18.2936 20.4899 18.4952 20.4236 18.6687 20.3081L20.0808 19.3664C20.2004 19.298 20.3019 19.2019 20.3767 19.0863C20.4515 18.9706 20.4976 18.8387 20.5109 18.7015C20.4983 18.5213 20.4406 18.347 20.3433 18.1948C20.055 17.681 19.8111 17.1435 19.6143 16.5883C19.4251 15.9423 19.3394 15.2704 19.3604 14.5976V7.317C19.3693 4.85565 18.754 3.02145 17.5144 1.8144C16.2748 0.607355 14.3275 0.00255459 11.6727 0C10.4968 0.00183603 9.32593 0.153785 8.18852 0.452163C7.21949 0.684462 6.2777 1.01841 5.37879 1.44845C5.13423 1.54371 4.91772 1.69925 4.7494 1.90062C4.61846 2.15083 4.56352 2.43386 4.59133 2.7149V3.79166C4.59133 4.24382 4.7494 4.49768 5.0435 4.49768C5.16899 4.49331 5.29348 4.47369 5.41423 4.43925C5.68327 4.36162 5.9459 4.26329 6.19977 4.14515C6.97541 3.83354 7.77222 3.57744 8.58416 3.37877C9.37313 3.19201 10.1808 3.0956 10.9915 3.09138C12.2867 2.95768 13.5836 3.32898 14.6117 4.1279C15.3724 4.82052 15.7019 6.01032 15.7019 7.69348V9.33545C14.8212 9.12725 13.9673 8.96439 13.1403 8.84688M15.7019 12.7746C15.7167 13.4279 15.6462 14.0803 15.4921 14.7154C15.351 15.2425 15.0908 15.7302 14.7315 16.1409C14.1638 16.7959 13.4331 17.2893 12.6134 17.5711C11.8716 17.8329 11.0922 17.972 10.3056 17.9831C9.8823 18.0127 9.45728 17.9583 9.055 17.8232C8.65271 17.6881 8.28109 17.4748 7.96148 17.1956C7.66988 16.8774 7.44639 16.5029 7.30472 16.0952C7.16305 15.6875 7.10619 15.2551 7.13762 14.8246C7.10863 14.339 7.19288 13.8532 7.38373 13.4057C7.57458 12.9581 7.86682 12.561 8.23738 12.2458C9.20726 11.5707 10.3804 11.2509 11.5587 11.3405C12.2592 11.342 12.9589 11.3875 13.6538 11.4765C14.3432 11.5638 15.0275 11.6875 15.7038 11.8472L15.7019 12.7746Z" fill="#ADADAD"></path>
  <path d="M26.9347 19.3225C26.998 19.6537 27.1549 19.9599 27.3868 20.2048C27.6435 20.3674 27.9462 20.4421 28.249 20.4174H30.165C30.4842 20.4458 30.8036 20.3644 31.0703 20.1866C31.3077 19.9365 31.4651 19.6213 31.5224 19.2813L34.9558 4.88774L38.4533 19.287C38.5106 19.6271 38.6681 19.9423 38.9055 20.1923C39.1719 20.3708 39.4915 20.4523 39.8108 20.4232H41.7267C42.0095 20.4334 42.2888 20.3576 42.5276 20.2057C42.7595 19.9609 42.9165 19.6547 42.9798 19.3234L48.4086 2.03681C48.4733 1.85783 48.5261 1.67478 48.5667 1.48885C48.5925 1.37307 48.6063 1.25493 48.6079 1.13632C48.6186 1.06186 48.6119 0.985921 48.5881 0.914534C48.5644 0.843147 48.5243 0.778278 48.4711 0.725083C48.4179 0.671888 48.3531 0.631832 48.2817 0.608097C48.2103 0.584362 48.1344 0.577603 48.0599 0.588356H45.983C45.6744 0.560967 45.3656 0.63751 45.1055 0.805816C44.8774 1.05145 44.721 1.35497 44.6533 1.68332L40.7841 16.666L37.2588 1.68332C37.2082 1.34678 37.0475 1.03649 36.8018 0.801026C36.5313 0.633044 36.2138 0.556783 35.8965 0.583566H34.0907C33.7735 0.557739 33.4563 0.633929 33.1855 0.801026C32.9537 1.04124 32.8032 1.34819 32.7553 1.67853L29.322 16.4677L25.5657 1.67949C25.4966 1.35159 25.3408 1.04823 25.1145 0.801026C24.8545 0.63272 24.5456 0.556178 24.237 0.583566H22.049C21.9746 0.572813 21.8986 0.579572 21.8272 0.603307C21.7559 0.627042 21.691 0.667098 21.6378 0.720293C21.5846 0.773489 21.5445 0.838357 21.5208 0.909744C21.4971 0.981131 21.4903 1.05707 21.5011 1.13153C21.5284 1.43987 21.5928 1.74381 21.6927 2.03681L26.9347 19.3225Z" fill="#ADADAD"></path>
  <path d="M60.134 29.9723C52.1 33.359 43.4759 35.1245 34.7573 35.1674C23.0884 35.1753 11.6202 32.1317 1.49077 26.3387C0.658292 25.8597 0.0471056 26.7095 0.73493 27.3293C9.85018 35.5463 21.7046 40.0646 33.9766 39.9994C43.1626 39.9994 53.8373 37.1121 61.1955 31.6823C62.413 30.777 61.3717 29.4196 60.1273 29.958" fill="#ADADAD"></path>
  <path d="M55.4856 26.9133C54.839 27.3654 54.9473 27.9948 55.6715 27.9086C58.0377 27.6212 63.3238 27.0033 64.2693 28.196C65.2148 29.3887 63.2155 34.373 62.3323 36.5898C62.065 37.2603 62.6398 37.5353 63.2376 37.0419C67.1882 33.7388 68.219 26.8194 67.4009 25.8193C66.5828 24.8191 59.7084 23.9733 55.4818 26.9324" fill="#ADADAD"></path>
  <path d="M85.094 15.7886C85.0576 15.7939 85.0206 15.7906 84.9857 15.7791C84.9509 15.7675 84.9192 15.748 84.8932 15.722C84.8673 15.6961 84.8477 15.6644 84.8362 15.6295C84.8246 15.5947 84.8214 15.5576 84.8267 15.5213V3.44796C84.8214 3.41163 84.8246 3.37456 84.8362 3.33971C84.8477 3.30486 84.8673 3.27319 84.8932 3.24723C84.9192 3.22127 84.9509 3.20173 84.9857 3.19018C85.0206 3.17863 85.0576 3.17538 85.094 3.18069H85.4331C85.471 3.17561 85.5097 3.17874 85.5463 3.18988C85.5829 3.20102 85.6167 3.2199 85.6454 3.24524C85.6741 3.27059 85.6971 3.3018 85.7127 3.33678C85.7283 3.37175 85.7361 3.40967 85.7358 3.44796L85.8086 4.17698C86.2876 3.78064 86.8229 3.45778 87.3969 3.21901C87.9047 3.02042 88.4449 2.91778 88.99 2.91629C89.5076 2.89632 90.0226 2.99768 90.494 3.21225C90.9654 3.42682 91.3801 3.74867 91.7049 4.15207C92.4119 5.13583 92.7614 6.33171 92.6955 7.54138C92.761 8.79008 92.3883 10.0224 91.6417 11.0255C91.306 11.4486 90.8754 11.7866 90.3848 12.0123C89.8942 12.238 89.3573 12.345 88.8176 12.3245C87.7063 12.3159 86.6399 11.8843 85.8354 11.1175V15.5242C85.8401 15.5607 85.8362 15.5978 85.8242 15.6326C85.8121 15.6674 85.7922 15.699 85.766 15.7249C85.7398 15.7507 85.7079 15.7702 85.673 15.7817C85.638 15.7933 85.6008 15.7966 85.5643 15.7914L85.094 15.7886ZM88.7142 11.3991C89.13 11.4269 89.5463 11.3544 89.9283 11.1876C90.3102 11.0209 90.6465 10.7649 90.9089 10.4412C91.4591 9.60173 91.7182 8.60477 91.6465 7.60365C91.6465 5.09376 90.6933 3.83881 88.7869 3.83881C87.7071 3.87777 86.6715 4.27783 85.846 4.97497V10.1835C86.2705 10.5537 86.7476 10.8588 87.2619 11.0888C87.7247 11.2833 88.2217 11.3833 88.7237 11.3829" fill="#ADADAD"></path>
  <path d="M97.1091 12.3225C96.7546 12.3402 96.4 12.2873 96.066 12.167C95.732 12.0466 95.4253 11.8611 95.1635 11.6213C94.9207 11.3748 94.7315 11.0807 94.6077 10.7576C94.4839 10.4345 94.4282 10.0893 94.4441 9.74367C94.4291 9.35631 94.5029 8.97066 94.6598 8.61618C94.8167 8.2617 95.0526 7.94778 95.3493 7.6984C96.0414 7.16877 96.9 6.90408 97.7701 6.95214C98.6333 6.96297 99.4902 7.10014 100.314 7.35927V5.88304C100.341 5.60125 100.309 5.3169 100.22 5.04808C100.131 4.77925 99.9877 4.53183 99.7982 4.32154C99.3027 3.96971 98.6967 3.80909 98.092 3.86938C97.208 3.88314 96.3316 4.03572 95.4949 4.32154C95.4093 4.3537 95.3191 4.37213 95.2277 4.37615C95.1102 4.37615 95.0514 4.29919 95.0514 4.14528V3.82435C95.0467 3.74676 95.0658 3.66958 95.106 3.60306C95.1474 3.53841 95.2091 3.48924 95.2813 3.4632C96.2277 3.09429 97.2352 2.90709 98.251 2.91141C99.0778 2.84592 99.9005 3.08059 100.568 3.57241C100.834 3.82658 101.041 4.13667 101.172 4.48027C101.304 4.82388 101.357 5.19241 101.329 5.55924V11.8541C101.334 11.8906 101.331 11.9277 101.319 11.9627C101.308 11.9977 101.288 12.0295 101.262 12.0557C101.237 12.082 101.205 12.1019 101.17 12.1139C101.135 12.126 101.098 12.1298 101.062 12.1252H100.686C100.649 12.1296 100.611 12.1257 100.575 12.1139C100.539 12.1021 100.507 12.0826 100.479 12.0567C100.452 12.0309 100.43 11.9993 100.417 11.9643C100.403 11.9293 100.397 11.8917 100.399 11.8541L100.331 11.0877C99.4402 11.8607 98.3064 12.2964 97.1273 12.3187M97.272 11.4134C97.7701 11.4035 98.2629 11.3086 98.7291 11.1327C99.2833 10.9358 99.8143 10.6788 100.313 10.3664V8.14577C99.5589 7.93943 98.7814 7.83282 98.0001 7.82868C96.3437 7.82868 95.5093 8.46669 95.5093 9.74463C95.4957 9.97208 95.5288 10.1999 95.6066 10.4141C95.6844 10.6283 95.8051 10.8242 95.9615 10.99C96.3293 11.2964 96.8012 11.4488 97.2787 11.4153" fill="#ADADAD"></path>
  <path d="M104.313 12.1235C104.276 12.1295 104.239 12.1267 104.203 12.1155C104.168 12.1042 104.136 12.0848 104.109 12.0587C104.083 12.0327 104.063 12.0008 104.051 11.9656C104.039 11.9304 104.036 11.8929 104.042 11.8562V3.44905C104.037 3.41251 104.041 3.37539 104.053 3.34058C104.065 3.30578 104.085 3.27422 104.111 3.24836C104.137 3.2225 104.169 3.20304 104.204 3.19149C104.239 3.17994 104.276 3.17662 104.313 3.18177H104.652C104.69 3.17558 104.729 3.17795 104.766 3.18872C104.802 3.19949 104.836 3.21838 104.865 3.24401C104.894 3.26963 104.916 3.30135 104.931 3.33683C104.946 3.37231 104.953 3.41065 104.951 3.44905L105.041 4.48078C105.411 4.04926 105.86 3.69144 106.363 3.42606C106.823 3.212 107.326 3.10521 107.833 3.11376H108.285C108.323 3.11212 108.36 3.11859 108.394 3.13274C108.429 3.14689 108.46 3.16838 108.485 3.19571C108.511 3.22304 108.53 3.25557 108.542 3.29104C108.553 3.32651 108.557 3.36408 108.553 3.40115V3.85331C108.552 3.90395 108.533 3.95258 108.498 3.98934C108.481 4.00924 108.459 4.02517 108.435 4.03607C108.411 4.04697 108.385 4.0526 108.358 4.05257H107.715C107.216 4.04217 106.721 4.14569 106.267 4.35529C105.798 4.59066 105.384 4.92155 105.05 5.32667V11.8562C105.056 11.8925 105.052 11.9296 105.041 11.9645C105.029 11.9993 105.01 12.031 104.984 12.0569C104.958 12.0829 104.926 12.1024 104.891 12.114C104.856 12.1256 104.819 12.1288 104.783 12.1235H104.313Z" fill="#ADADAD"></path>
  <path d="M113.274 12.2181C112.983 12.2374 112.691 12.1976 112.416 12.1011C112.141 12.0046 111.888 11.8535 111.673 11.6568C111.478 11.4354 111.329 11.1774 111.234 10.8977C111.14 10.6181 111.103 10.3225 111.125 10.0282V4.0725H109.722C109.686 4.07765 109.649 4.07433 109.614 4.06278C109.579 4.05123 109.547 4.03177 109.521 4.00591C109.494 3.98005 109.474 3.94849 109.462 3.91369C109.45 3.87888 109.446 3.84176 109.451 3.80523V3.62034C109.445 3.54533 109.464 3.47042 109.506 3.40767C109.534 3.37807 109.568 3.35436 109.605 3.33791C109.642 3.32147 109.682 3.31261 109.723 3.31187L111.16 3.18925L111.31 0.854669C111.316 0.779822 111.343 0.708096 111.386 0.646789C111.44 0.60321 111.509 0.582259 111.578 0.588353H111.899C111.935 0.582816 111.972 0.585952 112.007 0.597505C112.041 0.609057 112.073 0.628694 112.098 0.654797C112.124 0.6809 112.143 0.712721 112.154 0.747638C112.165 0.782556 112.167 0.819569 112.161 0.855627V3.16722H114.74C114.776 3.1619 114.813 3.16515 114.848 3.17671C114.883 3.18826 114.915 3.2078 114.941 3.23376C114.967 3.25972 114.986 3.29139 114.998 3.32624C115.009 3.36109 115.013 3.39816 115.007 3.43449V3.79181C115.013 3.82814 115.009 3.86521 114.998 3.90006C114.986 3.93491 114.967 3.96658 114.941 3.99254C114.915 4.01851 114.883 4.03804 114.848 4.0496C114.813 4.06115 114.776 4.0644 114.74 4.05909H112.161V9.99852C112.125 10.3687 112.237 10.7381 112.474 11.0255C112.769 11.2554 113.142 11.3625 113.514 11.3244C113.818 11.3285 114.121 11.2996 114.419 11.2381L114.727 11.1797C114.781 11.1621 114.837 11.1514 114.894 11.1481C115.026 11.1481 115.094 11.2209 115.094 11.3655V11.628C115.094 11.8321 115.026 11.9585 114.894 12.0036C114.378 12.1661 113.839 12.2441 113.297 12.2344" fill="#ADADAD"></path>
  <path d="M117.219 12.1225C117.183 12.1278 117.146 12.1246 117.111 12.113C117.076 12.1015 117.044 12.082 117.018 12.056C116.992 12.03 116.973 11.9984 116.961 11.9635C116.95 11.9287 116.946 11.8916 116.952 11.8553V3.44809C116.946 3.41176 116.95 3.3747 116.961 3.33984C116.973 3.30499 116.992 3.27333 117.018 3.24736C117.044 3.2214 117.076 3.20186 117.111 3.19031C117.146 3.17876 117.183 3.17551 117.219 3.18082H117.576C117.614 3.17574 117.653 3.17887 117.689 3.19001C117.726 3.20115 117.76 3.22003 117.789 3.24537C117.817 3.27072 117.84 3.30193 117.856 3.33691C117.871 3.37188 117.879 3.4098 117.879 3.44809L117.947 4.21447C118.511 3.81175 119.127 3.48934 119.78 3.2565C120.377 3.03825 121.008 2.92356 121.644 2.91738C122.005 2.89467 122.367 2.94554 122.707 3.06691C123.048 3.18828 123.361 3.3776 123.626 3.6234C123.871 3.896 124.058 4.21537 124.176 4.56227C124.294 4.90916 124.341 5.2764 124.314 5.64185V11.8591C124.319 11.8954 124.316 11.9325 124.304 11.9673C124.293 12.0022 124.273 12.0339 124.247 12.0598C124.221 12.0858 124.19 12.1053 124.155 12.1169C124.12 12.1284 124.083 12.1317 124.046 12.1264H123.567C123.531 12.1317 123.494 12.1284 123.459 12.1169C123.424 12.1053 123.393 12.0858 123.367 12.0598C123.341 12.0339 123.321 12.0022 123.31 11.9673C123.298 11.9325 123.295 11.8954 123.3 11.8591V6.04324C123.349 5.44677 123.189 4.85193 122.848 4.36008C122.662 4.17536 122.439 4.03318 122.192 3.94337C121.946 3.85355 121.684 3.81825 121.423 3.8399C120.182 3.86142 118.977 4.25746 117.965 4.97606V11.8543C117.971 11.8906 117.967 11.9277 117.956 11.9626C117.944 11.9974 117.925 12.0291 117.899 12.055C117.873 12.081 117.841 12.1005 117.806 12.1121C117.771 12.1236 117.734 12.1269 117.698 12.1216L117.219 12.1225Z" fill="#ADADAD"></path>
  <path d="M130.838 12.3897C130.254 12.4357 129.667 12.352 129.119 12.1446C128.572 11.9373 128.077 11.6114 127.67 11.1903C126.896 10.1693 126.516 8.9031 126.602 7.6247C126.524 6.3743 126.905 5.13846 127.674 4.14917C128.053 3.7322 128.52 3.40493 129.041 3.19116C129.562 2.97739 130.125 2.8825 130.687 2.91339C131.142 2.88225 131.598 2.94672 132.025 3.10265C132.453 3.25859 132.844 3.50251 133.171 3.81867C133.786 4.56035 134.095 5.50886 134.034 6.47034C134.031 6.83484 133.996 7.19841 133.929 7.55668C133.924 7.63209 133.889 7.70242 133.833 7.75245C133.776 7.80247 133.702 7.82816 133.626 7.82395H127.622C127.54 8.81206 127.83 9.79511 128.436 10.58C128.763 10.8954 129.152 11.1389 129.578 11.2948C130.004 11.4507 130.459 11.5156 130.912 11.4853C131.743 11.4882 132.567 11.3348 133.342 11.0332C133.444 10.9881 133.552 10.9578 133.663 10.9431C133.687 10.9438 133.711 10.9498 133.733 10.9607C133.755 10.9717 133.774 10.9872 133.789 11.0063C133.826 11.0475 133.845 11.1009 133.844 11.1558V11.4231C133.853 11.4985 133.839 11.575 133.803 11.6422C133.768 11.7094 133.712 11.764 133.645 11.7986C132.766 12.2064 131.807 12.412 130.839 12.4002M133.025 7.00585V6.41765C133.076 5.71541 132.852 5.02088 132.4 4.48063C132.158 4.24905 131.869 4.07098 131.554 3.95794C131.238 3.8449 130.902 3.79941 130.568 3.82442C128.7 3.82442 127.712 4.88042 127.604 6.99243L133.025 7.00585Z" fill="#ADADAD"></path>
  <path d="M136.528 12.1232C136.491 12.1285 136.454 12.1253 136.419 12.1137C136.384 12.1022 136.353 12.0827 136.327 12.0567C136.301 12.0307 136.281 11.9991 136.27 11.9642C136.258 11.9294 136.255 11.8923 136.26 11.856V3.44879C136.255 3.41246 136.258 3.3754 136.27 3.34054C136.281 3.30569 136.301 3.27402 136.327 3.24806C136.353 3.2221 136.384 3.20256 136.419 3.19101C136.454 3.17946 136.491 3.17621 136.528 3.18152H136.867C136.905 3.17532 136.943 3.1777 136.98 3.18847C137.017 3.19924 137.051 3.21813 137.08 3.24375C137.109 3.26938 137.131 3.3011 137.146 3.33657C137.161 3.37205 137.168 3.4104 137.166 3.44879L137.256 4.48053C137.625 4.04668 138.076 3.68852 138.581 3.4258C139.04 3.21185 139.541 3.10505 140.047 3.1135H140.499C140.537 3.11186 140.574 3.11834 140.608 3.13249C140.643 3.14664 140.674 3.16812 140.699 3.19545C140.725 3.22279 140.744 3.25531 140.756 3.29078C140.767 3.32625 140.771 3.36382 140.767 3.40089V3.85306C140.766 3.90369 140.747 3.95233 140.712 3.98909C140.695 4.00898 140.673 4.02491 140.649 4.03582C140.625 4.04672 140.599 4.05235 140.572 4.05232H139.929C139.43 4.04191 138.934 4.14544 138.481 4.35503C138.011 4.59197 137.596 4.92486 137.263 5.33217V11.856C137.269 11.8923 137.265 11.9294 137.254 11.9642C137.242 11.9991 137.223 12.0307 137.197 12.0567C137.171 12.0827 137.139 12.1022 137.104 12.1137C137.069 12.1253 137.032 12.1285 136.996 12.1232H136.528Z" fill="#ADADAD"></path>
  <path d="M85.094 31.7405C85.0576 31.7458 85.0206 31.7426 84.9857 31.731C84.9509 31.7195 84.9192 31.6999 84.8932 31.674C84.8673 31.648 84.8477 31.6163 84.8362 31.5815C84.8246 31.5466 84.8214 31.5096 84.8267 31.4732V23.0661C84.8214 23.0297 84.8246 22.9927 84.8362 22.9578C84.8477 22.923 84.8673 22.8913 84.8932 22.8653C84.9192 22.8394 84.9509 22.8198 84.9857 22.8083C85.0206 22.7967 85.0576 22.7935 85.094 22.7988H85.4513C85.4892 22.7937 85.5279 22.7968 85.5645 22.808C85.6011 22.8191 85.6349 22.838 85.6636 22.8633C85.6923 22.8887 85.7153 22.9199 85.7309 22.9549C85.7465 22.9899 85.7544 23.0278 85.754 23.0661L85.8268 23.8324C86.3818 23.4279 86.991 23.1034 87.6364 22.8687C88.2362 22.6522 88.8679 22.5376 89.5054 22.5296C89.8651 22.5052 90.2259 22.5535 90.5665 22.6717C90.907 22.7899 91.2203 22.9755 91.4875 23.2174C91.7305 23.4911 91.9161 23.8108 92.0334 24.1575C92.1507 24.5042 92.1974 24.8709 92.1705 25.2359V31.4761C92.1758 31.5124 92.1726 31.5495 92.161 31.5844C92.1495 31.6192 92.1299 31.6509 92.104 31.6768C92.078 31.7028 92.0463 31.7223 92.0115 31.7339C91.9766 31.7454 91.9396 31.7487 91.9032 31.7434H91.4511C91.4145 31.7494 91.3769 31.7466 91.3416 31.7354C91.3062 31.7241 91.274 31.7047 91.2476 31.6786C91.2212 31.6526 91.2013 31.6207 91.1895 31.5855C91.1778 31.5503 91.1745 31.5128 91.18 31.4761V25.6612C91.2303 25.0646 91.0703 24.4692 90.7278 23.9781C90.5446 23.7912 90.322 23.6475 90.0762 23.5575C89.8305 23.4675 89.5677 23.4335 89.3071 23.4579C88.0618 23.4758 86.8513 23.8721 85.8364 24.594V31.4723C85.8426 31.5083 85.8401 31.5453 85.8292 31.5803C85.8183 31.6152 85.7992 31.647 85.7736 31.6731C85.7479 31.6992 85.7165 31.7188 85.6817 31.7304C85.647 31.7419 85.6101 31.7451 85.5739 31.7395L85.094 31.7405Z" fill="#ADADAD"></path>
  <path d="M98.7122 31.9935C98.1285 32.0384 97.5421 31.9542 96.9945 31.7469C96.447 31.5396 95.9519 31.2144 95.5442 30.7942C94.7721 29.7722 94.393 28.5067 94.4761 27.2286C94.3977 25.978 94.7793 24.7418 95.549 23.7531C95.9285 23.3354 96.3964 23.0078 96.9186 22.794C97.4408 22.5802 98.0042 22.4857 98.5676 22.5173C99.0214 22.4853 99.4769 22.5494 99.9042 22.7054C100.332 22.8614 100.721 23.1058 101.048 23.4226C101.669 24.1746 101.974 25.1382 101.898 26.1106C101.907 26.4683 101.882 26.826 101.822 27.1788C101.818 27.2542 101.784 27.3249 101.728 27.3756C101.672 27.4263 101.598 27.453 101.523 27.4499H95.4954C95.4194 28.4359 95.7093 29.4153 96.3096 30.2012C96.6333 30.5207 97.0218 30.7668 97.4489 30.923C97.876 31.0792 98.3317 31.1418 98.785 31.1065C99.6174 31.107 100.443 30.9537 101.219 30.6543C101.32 30.6065 101.429 30.5761 101.54 30.5643C101.564 30.564 101.587 30.5691 101.608 30.5792C101.63 30.5894 101.648 30.6042 101.663 30.6227C101.699 30.6659 101.718 30.7206 101.717 30.7769V31.0442C101.726 31.1187 101.712 31.1939 101.678 31.2607C101.644 31.3274 101.591 31.3827 101.526 31.4197C100.643 31.8156 99.6835 32.0119 98.7161 31.9945M100.902 26.6184C100.902 26.4555 100.925 26.261 100.925 26.035C100.974 25.3318 100.75 24.6369 100.301 24.0941C100.06 23.8669 99.775 23.6913 99.4637 23.5783C99.1525 23.4653 98.8215 23.4172 98.4909 23.4369C96.6178 23.4369 95.6279 24.4929 95.5212 26.605L100.902 26.6184Z" fill="#ADADAD"></path>
  <path d="M106.889 31.8574C106.599 31.8771 106.308 31.8374 106.033 31.7409C105.758 31.6444 105.506 31.493 105.292 31.296C105.096 31.0754 104.946 30.8176 104.851 30.5378C104.756 30.258 104.719 29.9621 104.74 29.6675V23.6897H103.332C103.296 23.6953 103.259 23.6921 103.224 23.6806C103.19 23.669 103.158 23.6494 103.133 23.6233C103.107 23.5972 103.088 23.5654 103.077 23.5304C103.066 23.4955 103.064 23.4585 103.07 23.4225V23.2462C103.063 23.1718 103.08 23.0971 103.12 23.0335C103.176 22.9766 103.252 22.9442 103.332 22.9435L104.776 22.8209L104.902 20.4719C104.905 20.3973 104.932 20.3256 104.979 20.2679C105.004 20.2455 105.034 20.2284 105.066 20.2175C105.097 20.2067 105.131 20.2023 105.165 20.2046H105.486C105.522 20.1993 105.559 20.2026 105.594 20.2141C105.629 20.2257 105.661 20.2452 105.686 20.2712C105.712 20.2971 105.732 20.3288 105.744 20.3637C105.755 20.3985 105.758 20.4356 105.753 20.4719V22.8026H108.328C108.364 22.7975 108.4 22.8007 108.435 22.812C108.469 22.8233 108.501 22.8424 108.527 22.8678C108.552 22.8932 108.572 22.9242 108.584 22.9584C108.596 22.9927 108.6 23.0292 108.595 23.0651V23.4272C108.601 23.4636 108.597 23.5006 108.586 23.5355C108.574 23.5703 108.555 23.602 108.529 23.628C108.503 23.6539 108.471 23.6735 108.436 23.685C108.401 23.6966 108.364 23.6998 108.328 23.6945H105.756V29.6177C105.719 29.9871 105.829 30.3563 106.063 30.6446C106.36 30.8758 106.734 30.9842 107.109 30.9473C107.413 30.9527 107.717 30.9225 108.014 30.8573L108.321 30.7988C108.378 30.7844 108.436 30.7754 108.494 30.772C108.625 30.772 108.685 30.8448 108.685 30.9847V31.252C108.685 31.456 108.622 31.5777 108.494 31.6227C107.976 31.7889 107.435 31.8686 106.892 31.8584" fill="#ADADAD"></path>
  <path d="M112.685 31.7407C112.609 31.7434 112.534 31.7203 112.472 31.6751C112.411 31.6299 112.366 31.5653 112.346 31.4916L109.522 23.2243C109.484 23.1395 109.46 23.0494 109.449 22.9571C109.449 22.8526 109.522 22.799 109.662 22.799H110.237C110.306 22.7953 110.375 22.8165 110.43 22.8588C110.486 22.9011 110.524 22.9617 110.539 23.0299L112.974 30.5691L115.127 23.0442C115.147 22.9713 115.191 22.9074 115.252 22.8629C115.313 22.8185 115.387 22.7963 115.462 22.7999H116.119C116.194 22.7963 116.269 22.8184 116.331 22.8628C116.393 22.9072 116.437 22.9711 116.458 23.0442L118.589 30.6371L121.08 23.0481C121.093 22.98 121.131 22.9191 121.186 22.8766C121.241 22.8342 121.31 22.8131 121.379 22.8172H121.912C122.057 22.8172 122.125 22.8718 122.125 22.9753C122.115 23.067 122.092 23.157 122.057 23.2425L119.156 31.5098C119.137 31.5838 119.092 31.6489 119.031 31.6942C118.969 31.7395 118.894 31.7623 118.817 31.7589H118.234C118.157 31.7623 118.082 31.7395 118.02 31.6942C117.959 31.6489 117.914 31.5838 117.895 31.5098L115.745 23.9533L113.609 31.5098C113.59 31.5836 113.547 31.6487 113.485 31.694C113.424 31.7394 113.349 31.7623 113.273 31.7589L112.685 31.7407Z" fill="#ADADAD"></path>
  <path d="M127.441 31.9936C126.873 32.0253 126.305 31.9293 125.778 31.7124C125.252 31.4956 124.781 31.1634 124.4 30.7405C123.626 29.7476 123.242 28.5062 123.319 27.2497C123.24 25.9949 123.625 24.7549 124.4 23.7655C125.212 22.9684 126.304 22.5217 127.441 22.5217C128.579 22.5217 129.671 22.9684 130.483 23.7655C131.258 24.755 131.642 25.9951 131.563 27.2497C131.641 28.5072 131.256 29.7497 130.482 30.7434C130.101 31.1663 129.63 31.4984 129.104 31.7153C128.577 31.9321 128.009 32.0282 127.441 31.9964M127.441 31.0911C129.489 31.0911 130.515 29.8167 130.518 27.2679C130.521 24.719 129.495 23.4504 127.441 23.4619C125.39 23.4619 124.364 24.7305 124.364 27.2679C124.364 29.8052 125.39 31.0796 127.441 31.0911Z" fill="#ADADAD"></path>
  <path d="M134.145 31.7407C134.108 31.746 134.071 31.7428 134.036 31.7312C134.002 31.7197 133.97 31.7002 133.944 31.6742C133.918 31.6482 133.899 31.6166 133.887 31.5817C133.875 31.5469 133.872 31.5098 133.877 31.4735V23.0663C133.872 23.03 133.875 22.9929 133.887 22.958C133.899 22.9232 133.918 22.8915 133.944 22.8656C133.97 22.8396 134.002 22.8201 134.036 22.8085C134.071 22.797 134.108 22.7937 134.145 22.799H134.484C134.522 22.7939 134.56 22.7971 134.597 22.8082C134.634 22.8193 134.668 22.8382 134.696 22.8636C134.725 22.8889 134.748 22.9201 134.763 22.9551C134.779 22.9901 134.787 23.028 134.787 23.0663L134.873 24.098C135.24 23.663 135.689 23.3034 136.194 23.0395C136.653 22.8261 137.154 22.7194 137.66 22.7272C137.81 22.7192 137.961 22.7192 138.112 22.7272C138.149 22.7247 138.187 22.7306 138.222 22.7444C138.257 22.7583 138.288 22.7798 138.314 22.8073C138.339 22.8348 138.358 22.8677 138.37 22.9036C138.381 22.9394 138.384 22.9773 138.379 23.0146V23.4667C138.379 23.4912 138.374 23.5154 138.365 23.5379C138.356 23.5605 138.342 23.5809 138.324 23.598C138.309 23.6201 138.288 23.6379 138.263 23.6497C138.239 23.6616 138.212 23.6672 138.185 23.666H137.547C137.046 23.6572 136.55 23.7606 136.094 23.9687C135.627 24.2099 135.213 24.5421 134.877 24.9458V31.4754C134.882 31.5117 134.879 31.5488 134.867 31.5836C134.856 31.6185 134.836 31.6501 134.81 31.6761C134.784 31.7021 134.752 31.7216 134.718 31.7332C134.683 31.7447 134.646 31.748 134.609 31.7427L134.145 31.7407Z" fill="#ADADAD"></path>
  <path d="M140.266 31.7484C140.229 31.7544 140.192 31.7517 140.156 31.7404C140.121 31.7291 140.089 31.7097 140.062 31.6837C140.036 31.6576 140.016 31.6257 140.004 31.5905C139.993 31.5553 139.989 31.5178 139.995 31.4811V18.879C139.989 18.8422 139.993 18.8046 140.005 18.7693C140.016 18.734 140.036 18.7019 140.062 18.6756C140.089 18.6493 140.121 18.6295 140.156 18.6177C140.191 18.606 140.229 18.6026 140.266 18.6079H140.745C140.781 18.6033 140.818 18.6071 140.853 18.6192C140.888 18.6312 140.92 18.6511 140.946 18.6774C140.971 18.7036 140.991 18.7354 141.002 18.7704C141.014 18.8054 141.017 18.8425 141.012 18.879V26.789L145.279 22.983C145.338 22.9238 145.409 22.8776 145.486 22.8472C145.564 22.8169 145.648 22.8031 145.731 22.8067H146.369C146.509 22.8067 146.587 22.8613 146.587 22.9648C146.587 23.0682 146.519 23.1142 146.387 23.232L142.076 27.0237L146.733 31.3269C146.838 31.4227 146.891 31.4993 146.891 31.5578C146.884 31.6084 146.858 31.6545 146.819 31.6871C146.78 31.7197 146.73 31.7365 146.679 31.734H145.912C145.766 31.7317 145.626 31.6754 145.518 31.576L140.993 27.3609V31.4649C140.998 31.5012 140.995 31.5382 140.983 31.5731C140.972 31.608 140.952 31.6396 140.926 31.6656C140.9 31.6915 140.869 31.7111 140.834 31.7226C140.799 31.7342 140.762 31.7374 140.726 31.7321L140.266 31.7484Z" fill="#ADADAD"></path>
</svg>
