<?xml version="1.0" encoding="UTF-8"?>
<svg xmlns="http://www.w3.org/2000/svg" width="132" height="40" viewBox="0 0 132 40" fill="none">
  <path d="M131.422 28.6396H57.0586V29.8832H131.422V28.6396Z" fill="#ADADAD"></path>
  <path d="M36.7916 14.159C37.5914 14.1304 38.386 14.2979 39.1062 14.6468C39.8264 14.9956 40.4504 15.5153 40.9238 16.1606V0.368494C40.9228 0.299976 40.9029 0.233066 40.8664 0.175058C40.8299 0.117049 40.7782 0.0701667 40.7169 0.0395207C40.6557 0.00887479 40.5871 -0.00435909 40.5188 0.00126143C40.4505 0.00688196 40.3851 0.0311412 40.3296 0.0713953L20.7271 14.3279H21.2364C23.2736 14.3279 24.3084 15.6266 24.3084 17.0315C24.3318 17.5019 24.2153 17.9688 23.9735 18.3731C23.7318 18.7774 23.3757 19.101 22.9502 19.303C22.9105 19.3181 22.8784 19.3482 22.8609 19.3869C22.8434 19.4255 22.842 19.4696 22.8568 19.5093C22.8749 19.551 22.9083 19.5841 22.9502 19.6018C23.4233 19.8143 23.823 20.1617 24.0992 20.6006C24.3754 21.0395 24.5158 21.5502 24.5028 22.0686C24.5172 22.4697 24.4452 22.8693 24.2918 23.2402C24.1383 23.6112 23.9069 23.9448 23.6132 24.2185C23.3196 24.4922 22.9705 24.6995 22.5897 24.8266C22.2089 24.9536 21.8053 24.9973 21.4061 24.9547H15.83C15.8018 24.9552 15.7738 24.9502 15.7476 24.9399C15.7213 24.9295 15.6974 24.9141 15.6772 24.8944C15.657 24.8747 15.6409 24.8513 15.6298 24.8253C15.6188 24.7994 15.6129 24.7715 15.6127 24.7433V18.0289L1.00819 28.6599C0.951877 28.7002 0.909759 28.7573 0.887883 28.8229C0.866007 28.8886 0.865496 28.9595 0.886424 29.0255C0.907352 29.0915 0.948644 29.1492 1.00437 29.1903C1.06011 29.2313 1.12741 29.2537 1.19664 29.2541H40.5733C40.6147 29.2557 40.656 29.2491 40.6949 29.2347C40.7338 29.2203 40.7694 29.1983 40.7998 29.1701C40.8301 29.1418 40.8546 29.1079 40.8718 29.0702C40.889 29.0324 40.8986 28.9917 40.9001 28.9502V23.5413C39.7794 24.5842 38.3011 25.157 36.7704 25.1414C36.0311 25.1689 35.2938 25.0467 34.6028 24.7823C33.9119 24.518 33.2814 24.1168 32.7492 23.6029C32.217 23.0889 31.7941 22.4729 31.5057 21.7915C31.2174 21.1102 31.0696 20.3777 31.0712 19.6378C31.0728 18.898 31.2238 18.1661 31.515 17.4861C31.8063 16.806 32.2319 16.1917 32.7663 15.6801C33.3008 15.1685 33.933 14.7701 34.6251 14.5087C35.3172 14.2473 36.055 14.1283 36.7942 14.159H36.7916ZM28.9881 24.7594C28.9895 24.8084 28.9714 24.8559 28.9378 24.8915C28.9043 24.9272 28.8579 24.948 28.809 24.9496H26.9237C26.8748 24.951 26.8274 24.933 26.7916 24.8997C26.7559 24.8663 26.7347 24.8202 26.7327 24.7713V14.5138C26.7313 14.4648 26.7494 14.4174 26.783 14.3817C26.8165 14.3461 26.8629 14.3252 26.9118 14.3236H28.798C28.8468 14.3223 28.8943 14.3402 28.93 14.3736C28.9658 14.4069 28.987 14.453 28.989 14.5019L28.9881 24.7594Z" fill="#ADADAD"></path>
  <path d="M18.1107 18.5492H20.7506C20.9077 18.5671 21.0667 18.5516 21.2174 18.5037C21.3681 18.4558 21.5069 18.3767 21.6249 18.2714C21.7428 18.1661 21.8372 18.0371 21.9018 17.8929C21.9664 17.7486 21.9998 17.5923 21.9998 17.4342C21.9998 17.2761 21.9664 17.1198 21.9018 16.9755C21.8372 16.8312 21.7428 16.7022 21.6249 16.597C21.5069 16.4917 21.3681 16.4125 21.2174 16.3647C21.0667 16.3168 20.9077 16.3013 20.7506 16.3192H18.0062C17.9781 16.3207 17.9515 16.3325 17.9316 16.3524C17.9117 16.3723 17.8999 16.3989 17.8984 16.427V18.3582C17.9036 18.4112 17.9285 18.4604 17.9684 18.4958C18.0082 18.5312 18.0599 18.5503 18.1132 18.5492H18.1107Z" fill="#ADADAD"></path>
  <path d="M18.1118 22.9844H20.8596C21.0319 23.0079 21.2073 22.9936 21.3735 22.9424C21.5397 22.8913 21.6928 22.8045 21.8221 22.6881C21.9514 22.5718 22.0537 22.4287 22.1221 22.2687C22.1904 22.1088 22.223 21.9359 22.2177 21.762C22.2187 21.5895 22.1831 21.4186 22.1133 21.2608C22.0435 21.103 21.9411 20.9617 21.8128 20.8462C21.6846 20.7308 21.5333 20.6438 21.369 20.591C21.2047 20.5381 21.0311 20.5207 20.8596 20.5397H18.1118C18.0836 20.5392 18.0556 20.5444 18.0293 20.5548C18.0031 20.5653 17.9792 20.5808 17.959 20.6005C17.9388 20.6203 17.9227 20.6438 17.9116 20.6698C17.9006 20.6958 17.8948 20.7237 17.8945 20.7519V22.7722C17.898 22.8287 17.9219 22.882 17.962 22.922C18.002 22.9621 18.0553 22.9861 18.1118 22.9895V22.9844Z" fill="#ADADAD"></path>
  <path d="M39.2169 17.3574C38.934 16.9817 38.5686 16.6761 38.1488 16.4641C37.7291 16.2522 37.2662 16.1396 36.796 16.135C35.8884 16.1696 35.0296 16.5544 34.3997 17.2088C33.7698 17.8631 33.418 18.736 33.418 19.6442C33.418 20.5524 33.7698 21.4253 34.3997 22.0796C35.0296 22.7339 35.8884 23.1188 36.796 23.1533C37.5934 23.146 38.3665 22.8776 38.997 22.3894C39.029 22.352 39.0468 22.3045 39.0471 22.2552V21.2222C39.0435 21.1804 39.0252 21.1413 38.9956 21.1116C38.9659 21.0819 38.9268 21.0637 38.885 21.0601H36.4641C36.4358 21.0605 36.4078 21.0554 36.3816 21.0449C36.3553 21.0345 36.3314 21.0189 36.3112 20.9992C36.291 20.9795 36.2749 20.956 36.2638 20.93C36.2528 20.904 36.247 20.8761 36.2468 20.8478V19.3199C36.2463 19.2917 36.2515 19.2636 36.2619 19.2374C36.2723 19.2112 36.2879 19.1873 36.3076 19.1671C36.3273 19.1469 36.3509 19.1308 36.3768 19.1197C36.4028 19.1086 36.4307 19.1028 36.459 19.1026H40.952V16.6817L39.5089 17.4694C39.454 17.4811 39.3969 17.4771 39.3442 17.4581C39.2914 17.439 39.2449 17.4056 39.2101 17.3616L39.2169 17.3574Z" fill="#ADADAD"></path>
  <path d="M42.6106 19.5968C42.5786 18.8727 42.6959 18.1498 42.9551 17.4729C43.2144 16.7961 43.61 16.1797 44.1175 15.6623C44.6251 15.1448 45.2336 14.7373 45.9053 14.4649C46.577 14.1926 47.2975 14.0613 48.0221 14.0793C48.8307 14.0586 49.6302 14.2544 50.3378 14.6465C51.0453 15.0386 51.6352 15.6126 52.0465 16.3092C52.0707 16.3438 52.0802 16.3866 52.0731 16.4282C52.0659 16.4699 52.0426 16.507 52.0083 16.5316C51.9951 16.541 51.9805 16.5482 51.965 16.5528L50.7426 17.2073C50.7133 17.2303 50.6759 17.2408 50.6388 17.2363C50.6017 17.2319 50.5679 17.2129 50.5449 17.1835C50.5369 17.174 50.5304 17.1634 50.5253 17.1521C50.2575 16.7283 49.8889 16.3773 49.4524 16.1307C49.0158 15.8841 48.525 15.7494 48.0238 15.7388C47.0532 15.8163 46.1475 16.2566 45.487 16.972C44.8266 17.6874 44.4598 18.6253 44.4598 19.5989C44.4598 20.5726 44.8266 21.5105 45.487 22.2258C46.1475 22.9412 47.0532 23.3815 48.0238 23.4591C48.525 23.4482 49.0157 23.3134 49.4522 23.0668C49.8887 22.8202 50.2573 22.4694 50.5253 22.0457C50.5425 22.0109 50.5728 21.9843 50.6095 21.9717C50.6463 21.9592 50.6865 21.9617 50.7214 21.9787L50.7426 21.9906L51.965 22.6162C52.0102 22.6368 52.0455 22.6743 52.0633 22.7206C52.081 22.767 52.0799 22.8185 52.0601 22.864C52.0561 22.8725 52.0513 22.8804 52.0456 22.8878C51.6315 23.5837 51.0417 24.1584 50.3353 24.5544C49.629 24.9505 48.8309 25.1538 48.0212 25.1441C47.296 25.1545 46.5763 25.0171 45.906 24.7403C45.2357 24.4634 44.6288 24.0528 44.1224 23.5337C43.6161 23.0145 43.2208 22.3976 42.9607 21.7206C42.7006 21.0435 42.5812 20.3206 42.6098 19.596L42.6106 19.5968Z" fill="#ADADAD"></path>
  <path d="M53.1064 19.6009C53.0415 18.412 53.3833 17.2364 54.0754 16.2676C54.7674 15.2987 55.7687 14.5943 56.9143 14.2701C60.8029 13.2362 64.3647 16.882 63.5218 20.9327C63.3096 22.1334 62.6748 23.2185 61.732 23.9916C60.7893 24.7648 59.601 25.1751 58.382 25.1482C57.6645 25.1535 56.9534 25.0116 56.2929 24.7312C55.6324 24.4508 55.0365 24.0378 54.542 23.5178C54.0475 22.9979 53.665 22.382 53.418 21.7082C53.1711 21.0345 53.065 20.3173 53.1064 19.6009ZM61.7791 19.6009C61.7791 17.3998 60.4209 15.7412 58.3531 15.7412C56.2853 15.7412 54.9272 17.4007 54.9272 19.6009C54.9272 21.8011 56.259 23.4606 58.3531 23.4606C60.4473 23.4606 61.7834 21.7757 61.7834 19.6009H61.7791Z" fill="#ADADAD"></path>
  <path d="M74.7252 24.7892V16.6589L71.4902 24.8495C71.4902 24.8758 71.435 24.9047 71.4053 24.9047H70.7262C70.6999 24.9047 70.6413 24.8784 70.6413 24.8495L67.3817 16.6631V24.7935C67.383 24.8103 67.3809 24.8272 67.3755 24.8432C67.3702 24.8592 67.3617 24.8739 67.3505 24.8866C67.3394 24.8992 67.3258 24.9095 67.3106 24.9169C67.2954 24.9242 67.2789 24.9284 67.2621 24.9293H65.6127C65.5959 24.9306 65.579 24.9284 65.563 24.9231C65.547 24.9177 65.5323 24.9092 65.5196 24.8981C65.507 24.8869 65.4967 24.8733 65.4893 24.8581C65.482 24.8429 65.4778 24.8264 65.4769 24.8096V14.3483C65.4757 14.3315 65.4777 14.3146 65.4831 14.2986C65.4885 14.2826 65.497 14.2679 65.5081 14.2552C65.5193 14.2425 65.5329 14.2323 65.5481 14.2249C65.5632 14.2176 65.5798 14.2134 65.5966 14.2125H67.953C68.005 14.2127 68.0559 14.2282 68.0992 14.257C68.1425 14.2858 68.1764 14.3267 68.1966 14.3746L71.0513 21.7172L73.8806 14.3746C73.8969 14.3241 73.9298 14.2805 73.9741 14.2511C74.0183 14.2216 74.0712 14.208 74.1242 14.2125H76.4645C76.4813 14.2112 76.4982 14.2134 76.5142 14.2187C76.5302 14.2241 76.545 14.2326 76.5576 14.2437C76.5703 14.2549 76.5806 14.2685 76.5879 14.2837C76.5952 14.2988 76.5994 14.3154 76.6003 14.3322V24.7901C76.6016 24.8069 76.5994 24.8238 76.5941 24.8398C76.5887 24.8558 76.5802 24.8705 76.5691 24.8832C76.5579 24.8959 76.5443 24.9061 76.5291 24.9135C76.5139 24.9208 76.4974 24.925 76.4806 24.9259H74.8347C74.8044 24.9178 74.7774 24.9003 74.7577 24.8759C74.738 24.8515 74.7266 24.8206 74.7252 24.7892Z" fill="#ADADAD"></path>
  <path d="M93.2149 24.7382V14.4289C93.2135 14.3798 93.2316 14.3323 93.2651 14.2965C93.2987 14.2607 93.345 14.2396 93.394 14.2379H100.338C100.388 14.2365 100.435 14.2545 100.471 14.2881C100.507 14.3216 100.528 14.368 100.529 14.417V15.6801C100.531 15.7291 100.513 15.7767 100.479 15.8124C100.446 15.8482 100.399 15.8693 100.35 15.8711H95.2827C95.2337 15.8697 95.1861 15.8877 95.1503 15.9213C95.1146 15.9548 95.0935 16.0012 95.0917 16.0502V18.427C95.0904 18.476 95.1084 18.5236 95.142 18.5593C95.1755 18.5951 95.2218 18.6162 95.2708 18.6179H100.232C100.281 18.6166 100.328 18.6346 100.364 18.6682C100.4 18.7017 100.421 18.748 100.423 18.7971V20.0602C100.424 20.1092 100.406 20.1568 100.372 20.1925C100.339 20.2283 100.292 20.2494 100.243 20.2511H95.2827C95.2337 20.2498 95.1861 20.2678 95.1503 20.3014C95.1146 20.3349 95.0935 20.3812 95.0917 20.4303V23.0226C95.0904 23.0717 95.1084 23.1193 95.142 23.155C95.1755 23.1908 95.2218 23.2119 95.2708 23.2136H100.338C100.388 23.2123 100.435 23.2303 100.471 23.2639C100.507 23.2974 100.528 23.3437 100.529 23.3927V24.6533C100.531 24.7023 100.513 24.7499 100.479 24.7857C100.446 24.8215 100.399 24.8425 100.35 24.8443H93.4059C93.2981 24.9292 93.2149 24.8494 93.2149 24.7365V24.7382Z" fill="#ADADAD"></path>
  <path d="M109.232 24.818L106.976 21.01C106.958 20.9835 106.934 20.9618 106.906 20.947C106.877 20.9322 106.846 20.9247 106.814 20.9251H105.236C105.187 20.9238 105.139 20.9418 105.103 20.9754C105.068 21.0089 105.046 21.0552 105.045 21.1042V24.7382C105.046 24.7872 105.028 24.8348 104.994 24.8706C104.961 24.9063 104.915 24.9274 104.866 24.9292H103.39C103.341 24.9306 103.294 24.9125 103.258 24.8789C103.222 24.8454 103.201 24.7991 103.199 24.7501V14.4289C103.198 14.3798 103.216 14.3323 103.25 14.2965C103.283 14.2607 103.329 14.2396 103.378 14.2379H107.902C108.358 14.2001 108.818 14.2594 109.249 14.4118C109.681 14.5643 110.076 14.8064 110.407 15.1224C110.739 15.4383 111 15.8209 111.173 16.2449C111.346 16.6689 111.427 17.1247 111.411 17.5823C111.451 18.2809 111.244 18.9713 110.826 19.5328C110.409 20.0943 109.807 20.4913 109.127 20.6543C109.074 20.6665 109.027 20.6992 108.998 20.7454C108.969 20.7915 108.96 20.8473 108.971 20.9005C108.976 20.9188 108.982 20.9365 108.991 20.9531C109.426 21.6594 110.786 23.8342 111.302 24.6244C111.33 24.6659 111.341 24.717 111.332 24.7667C111.323 24.8163 111.295 24.8603 111.254 24.8893C111.22 24.9131 111.179 24.9256 111.137 24.9249H109.422C109.383 24.9272 109.344 24.9183 109.31 24.8992C109.275 24.8801 109.247 24.8516 109.229 24.8171L109.232 24.818ZM109.476 17.556C109.48 17.3219 109.434 17.0895 109.342 16.8741C109.25 16.6588 109.114 16.4653 108.942 16.3062C108.77 16.1472 108.566 16.0262 108.344 15.9512C108.122 15.8763 107.887 15.8489 107.654 15.8711H105.263C105.214 15.8697 105.166 15.8877 105.13 15.9213C105.095 15.9548 105.074 16.0012 105.072 16.0502V19.0797C105.07 19.1287 105.089 19.1763 105.122 19.2121C105.156 19.2479 105.202 19.2689 105.251 19.2707H107.655C107.89 19.2919 108.127 19.263 108.351 19.1859C108.574 19.1087 108.779 18.9851 108.951 18.8232C109.123 18.6612 109.259 18.4646 109.349 18.2464C109.44 18.0281 109.483 17.7931 109.477 17.5569L109.476 17.556Z" fill="#ADADAD"></path>
  <path d="M124.078 24.7382V14.4289C124.077 14.3798 124.095 14.3323 124.128 14.2965C124.162 14.2607 124.208 14.2396 124.257 14.2379H131.231C131.28 14.2365 131.327 14.2545 131.363 14.2881C131.399 14.3216 131.42 14.368 131.422 14.417V15.7064C131.423 15.7554 131.405 15.803 131.371 15.8388C131.338 15.8745 131.292 15.8956 131.243 15.8974H126.149C126.1 15.896 126.053 15.914 126.017 15.9476C125.981 15.9811 125.96 16.0275 125.958 16.0765V18.4804C125.957 18.5295 125.975 18.577 126.009 18.6128C126.042 18.6486 126.089 18.6697 126.138 18.6714H131.098C131.147 18.6701 131.195 18.6881 131.231 18.7217C131.266 18.7552 131.287 18.8015 131.289 18.8505V20.1399C131.291 20.189 131.273 20.2365 131.239 20.2723C131.205 20.3081 131.159 20.3292 131.11 20.3309H126.149C126.1 20.3296 126.053 20.3476 126.017 20.3812C125.981 20.4147 125.96 20.461 125.958 20.51V23.1313C125.957 23.1803 125.975 23.2279 126.009 23.2637C126.042 23.2995 126.089 23.3205 126.138 23.3223H131.231C131.28 23.3209 131.327 23.339 131.363 23.3725C131.399 23.4061 131.42 23.4524 131.422 23.5014V24.7891C131.423 24.8381 131.405 24.8857 131.371 24.9215C131.338 24.9573 131.292 24.9783 131.243 24.9801H124.269C124.218 24.9613 124.173 24.9285 124.139 24.8855C124.105 24.8425 124.084 24.7908 124.078 24.7365V24.7382Z" fill="#ADADAD"></path>
  <path d="M112.767 19.5424C112.735 18.8183 112.852 18.0953 113.111 17.4185C113.371 16.7416 113.766 16.1253 114.274 15.6078C114.781 15.0904 115.39 14.6828 116.062 14.4105C116.733 14.1382 117.454 14.0069 118.178 14.0248C118.987 14.0042 119.786 14.2 120.494 14.5921C121.202 14.9841 121.791 15.5582 122.203 16.2548C122.227 16.2893 122.237 16.3322 122.23 16.3739C122.223 16.4156 122.199 16.4527 122.165 16.4772C122.151 16.4866 122.137 16.4938 122.121 16.4984L120.899 17.1528C120.869 17.1759 120.832 17.1864 120.795 17.1819C120.758 17.1774 120.724 17.1584 120.701 17.1291C120.693 17.1195 120.687 17.1089 120.682 17.0977C120.415 16.6738 120.046 16.3229 119.609 16.0763C119.173 15.8296 118.682 15.695 118.181 15.6843C117.21 15.7619 116.305 16.2022 115.644 16.9176C114.984 17.6329 114.617 18.5708 114.617 19.5445C114.617 20.5181 114.984 21.456 115.644 22.1714C116.305 22.8868 117.21 23.3271 118.181 23.4046C118.682 23.3938 119.173 23.259 119.609 23.0124C120.046 22.7658 120.414 22.415 120.682 21.9913C120.7 21.9565 120.73 21.9299 120.767 21.9173C120.803 21.9047 120.844 21.9072 120.879 21.9242L120.9 21.9361L122.122 22.5617C122.167 22.5823 122.203 22.6198 122.22 22.6662C122.238 22.7126 122.237 22.7641 122.217 22.8096C122.213 22.818 122.208 22.826 122.203 22.8334C121.789 23.5292 121.199 24.104 120.492 24.5C119.786 24.896 118.988 25.0993 118.178 25.0896C117.453 25.1021 116.732 24.966 116.061 24.6898C115.39 24.4136 114.782 24.0031 114.275 23.4835C113.768 22.964 113.373 22.3462 113.114 21.6683C112.854 20.9904 112.736 20.2675 112.767 19.5424Z" fill="#ADADAD"></path>
  <path d="M88.5918 24.7892V16.6589L85.3569 24.8495C85.3569 24.8758 85.3017 24.9047 85.272 24.9047H84.5929C84.5666 24.9047 84.508 24.8784 84.508 24.8495L81.245 16.664V24.7943C81.2463 24.8111 81.2442 24.828 81.2388 24.844C81.2335 24.86 81.225 24.8748 81.2138 24.8874C81.2027 24.9001 81.1891 24.9104 81.1739 24.9177C81.1587 24.9251 81.1422 24.9293 81.1253 24.9301H79.476C79.4592 24.9314 79.4423 24.9293 79.4263 24.9239C79.4103 24.9186 79.3955 24.9101 79.3829 24.8989C79.3702 24.8877 79.3599 24.8742 79.3526 24.859C79.3453 24.8438 79.3411 24.8273 79.3402 24.8104V14.3483C79.3389 14.3315 79.341 14.3146 79.3464 14.2986C79.3518 14.2826 79.3603 14.2679 79.3714 14.2552C79.3826 14.2425 79.3961 14.2323 79.4113 14.2249C79.4265 14.2176 79.443 14.2134 79.4599 14.2125H81.8163C81.8683 14.2127 81.9191 14.2282 81.9625 14.257C82.0058 14.2858 82.0397 14.3267 82.0599 14.3746L84.9146 21.7172L87.7438 14.3746C87.7602 14.3241 87.7931 14.2805 87.8374 14.2511C87.8816 14.2216 87.9345 14.208 87.9875 14.2125H90.3294C90.3463 14.2112 90.3632 14.2134 90.3792 14.2187C90.3952 14.2241 90.4099 14.2326 90.4226 14.2437C90.4352 14.2549 90.4455 14.2685 90.4529 14.2837C90.4602 14.2988 90.4644 14.3154 90.4653 14.3322V24.7901C90.4665 24.8069 90.4644 24.8238 90.4591 24.8398C90.4537 24.8558 90.4452 24.8705 90.434 24.8832C90.4229 24.8959 90.4093 24.9061 90.3941 24.9135C90.3789 24.9208 90.3624 24.925 90.3456 24.9259H88.7013C88.6852 24.9242 88.6696 24.9193 88.6554 24.9116C88.6411 24.9038 88.6285 24.8934 88.6184 24.8807C88.6082 24.8681 88.6006 24.8536 88.5961 24.838C88.5915 24.8225 88.5901 24.8053 88.5918 24.7892Z" fill="#ADADAD"></path>
  <path d="M86.0864 34.9135C85.9803 34.653 85.818 34.4191 85.6111 34.2285C85.3936 34.0303 85.1376 33.8792 84.859 33.7846C84.5345 33.6756 84.1937 33.6231 83.8514 33.6292H81.293V39.8929H82.6706V38.017H83.719C84.0533 38.0185 84.3861 37.9719 84.7071 37.8786C85.0001 37.7935 85.2736 37.6516 85.5118 37.461C85.7428 37.2755 85.9281 37.0394 86.0533 36.7708C86.19 36.4705 86.257 36.1432 86.2494 35.8133V35.7963C86.2533 35.4946 86.1974 35.1952 86.0847 34.9152L86.0864 34.9135ZM84.8573 35.8396C84.8605 35.9666 84.8366 36.0929 84.7873 36.2099C84.738 36.327 84.6643 36.4323 84.5712 36.5187C84.3492 36.7117 84.0601 36.8095 83.7665 36.7912H82.6757V34.8762H83.7402C84.0329 34.8599 84.3222 34.945 84.5594 35.1173C84.6611 35.2033 84.7411 35.312 84.793 35.4347C84.8449 35.5574 84.8672 35.6906 84.8581 35.8235V35.8405L84.8573 35.8396ZM91.7466 33.5859H90.4733L87.7901 39.8929H89.1958L89.7688 38.4872H92.4163L92.9893 39.8929H94.4324L91.7491 33.5859H91.7466ZM90.262 37.2717L91.0947 35.2403L91.9282 37.2717H90.2645H90.262ZM100.336 37.6562C100.719 37.5174 101.056 37.2743 101.308 36.9542C101.568 36.5946 101.699 36.1581 101.681 35.7149V35.6979C101.696 35.4141 101.648 35.1304 101.541 34.8675C101.433 34.6045 101.268 34.3688 101.058 34.1776C100.565 33.7875 99.9451 33.5928 99.3175 33.6309H96.4552V39.8946H97.8329V37.8896H98.9169L100.258 39.8946H101.871L100.343 37.6579L100.336 37.6562ZM100.284 35.7887C100.288 35.9096 100.267 36.03 100.22 36.1414C100.172 36.2528 100.101 36.3524 100.011 36.433C99.7891 36.6076 99.5101 36.6935 99.2284 36.6741H97.832V34.8762H99.1953C99.4775 34.8594 99.7573 34.9377 99.9898 35.0986C100.087 35.1797 100.164 35.2828 100.214 35.3994C100.263 35.516 100.285 35.6427 100.276 35.7692V35.7862L100.284 35.7887ZM106.815 34.9051V39.8989H105.437V34.9051H103.532V33.6318H108.722V34.9051H106.817H106.815ZM115.225 39.8989L112.193 35.9169V39.8989H110.835V33.6352H112.108L115.044 37.4932V33.6352H116.402V39.8989H115.23H115.225ZM118.96 39.8989V33.6352H123.675V34.8618H120.321V36.135H123.274V37.3616H120.321V38.6774H123.716V39.9039H118.956L118.96 39.8989ZM129.893 37.6621C130.276 37.5234 130.613 37.2802 130.865 36.9601C131.125 36.6005 131.256 36.164 131.238 35.7208V35.7038C131.253 35.4201 131.205 35.1364 131.098 34.8734C130.99 34.6105 130.825 34.3748 130.615 34.1835C130.121 33.7938 129.502 33.5993 128.875 33.6369H126.012V39.9006H127.39V37.8956H128.474L129.815 39.9006H131.428L129.9 37.6638L129.893 37.6621ZM129.841 35.7946C129.846 35.9155 129.824 36.0359 129.777 36.1473C129.729 36.2587 129.658 36.3583 129.568 36.4389C129.346 36.6135 129.067 36.6994 128.785 36.68H127.389V34.8762H128.757C129.039 34.8594 129.319 34.9377 129.551 35.0986C129.649 35.1797 129.725 35.2828 129.775 35.3994C129.825 35.516 129.846 35.6427 129.837 35.7692V35.7862L129.841 35.7946Z" fill="#ADADAD"></path>
  <path d="M24.0847 39.3515C23.9089 39.4858 23.7183 39.5997 23.5168 39.691C23.3071 39.7885 23.0878 39.8636 22.8624 39.9151C22.6069 39.9722 22.3458 40.0007 22.084 40C21.6658 40.0052 21.2509 39.925 20.8648 39.7645C20.4786 39.604 20.1292 39.3664 19.8379 39.0663C19.5535 38.7709 19.33 38.4225 19.18 38.0408C19.0193 37.6357 18.9383 37.2034 18.9415 36.7676C18.9381 36.3364 19.0191 35.9087 19.18 35.5087C19.3312 35.1256 19.5539 34.7747 19.8362 34.4748C20.1198 34.1765 20.4608 33.9386 20.8387 33.7754C21.2407 33.6025 21.6744 33.5158 22.112 33.5207C22.3715 33.5181 22.6306 33.542 22.8853 33.592C23.105 33.6364 23.3195 33.7036 23.5253 33.7923C23.7182 33.8765 23.9015 33.9812 24.072 34.1047C24.2429 34.2293 24.4048 34.3658 24.5567 34.513L24.072 35.0334C23.8136 34.7892 23.5228 34.5819 23.2078 34.4171C22.7441 34.1844 22.2176 34.1075 21.7067 34.1979C21.1958 34.2883 20.7276 34.5411 20.3718 34.9188C20.1519 35.1572 19.979 35.4352 19.8625 35.7379C19.7378 36.0629 19.6753 36.4084 19.6783 36.7565C19.6761 37.1045 19.7386 37.45 19.8625 37.7752C19.9776 38.0799 20.1505 38.3595 20.3718 38.5985C20.589 38.8311 20.8505 39.0178 21.1409 39.1478C21.443 39.2839 21.7713 39.3523 22.1026 39.3481C22.4865 39.3587 22.8673 39.2769 23.2129 39.1096C23.548 38.9336 23.8552 38.709 24.1246 38.4432L24.5898 38.899C24.4318 39.0623 24.2615 39.2133 24.0805 39.3506L24.0847 39.3515Z" fill="#ADADAD"></path>
  <path d="M31.5325 34.2737H27.7127V36.4128H31.131V37.0571H27.7127V39.2488H31.5775V39.8931H27.0039V33.6294H31.53V34.2737H31.5325Z" fill="#ADADAD"></path>
  <path d="M38.4966 39.8914L36.6801 37.4586H34.8898V39.8914H34.1836V33.6277H36.8762C37.1926 33.6236 37.5077 33.6695 37.8099 33.7635C38.069 33.8436 38.3104 33.9724 38.5212 34.1429C38.7153 34.3031 38.871 34.5047 38.9771 34.7329C39.0869 34.9724 39.1423 35.2334 39.1392 35.4969C39.1442 35.7369 39.1012 35.9756 39.0127 36.1989C38.9316 36.3995 38.8116 36.5821 38.6596 36.7362C38.5022 36.8928 38.319 37.0211 38.118 37.1156C37.9035 37.2204 37.6747 37.2928 37.4389 37.3304L39.3633 39.8871H38.4941L38.4966 39.8914ZM38.0119 34.609C37.665 34.3704 37.248 34.2553 36.8278 34.2822H34.889V36.8287H36.8176C37.0362 36.8323 37.2541 36.8036 37.4644 36.7438C37.6482 36.6905 37.8208 36.6042 37.9737 36.4892C38.1169 36.3811 38.2331 36.2413 38.3133 36.0809C38.3962 35.9107 38.4378 35.7234 38.4346 35.5342C38.4433 35.3581 38.4093 35.1825 38.3354 35.0224C38.2615 34.8623 38.1499 34.7225 38.0102 34.6149L38.0119 34.609Z" fill="#ADADAD"></path>
  <path d="M44.1339 39.8913H43.4277V34.2812H41.3242V33.6267H46.2374V34.2812H44.1339V39.8913Z" fill="#ADADAD"></path>
  <path d="M49.5148 33.6294V39.8931H48.8086V33.6294H49.5148Z" fill="#ADADAD"></path>
  <path d="M57.0349 34.2821H53.2414V36.5189H56.6309V37.1632H53.2414V39.8914H52.5352V33.6277H57.0341L57.0349 34.2821Z" fill="#ADADAD"></path>
  <path d="M60.3508 33.6294V39.8931H59.6445V33.6294H60.3508Z" fill="#ADADAD"></path>
  <path d="M67.8958 34.2737H64.076V36.4128H67.4943V37.0571H64.076V39.2488H67.9408V39.8931H63.3672V33.6294H67.8933V34.2737H67.8958Z" fill="#ADADAD"></path>
  <path d="M75.8067 37.9917C75.6503 38.3684 75.417 38.7084 75.1217 38.9899C74.8154 39.277 74.4562 39.5015 74.064 39.6512C73.6347 39.8166 73.1778 39.8984 72.7177 39.8923H70.543V33.6277H72.7177C73.1775 33.622 73.6342 33.7029 74.064 33.8662C74.4558 34.0143 74.815 34.2372 75.1217 34.5224C75.4168 34.8021 75.6502 35.1404 75.8067 35.5156C75.9701 35.9063 76.0521 36.3263 76.0478 36.7498C76.0507 37.1748 75.9688 37.5962 75.8067 37.9891V37.9917ZM75.1276 35.7931C75.0105 35.4959 74.8334 35.226 74.6073 35.0003C74.373 34.7707 74.0942 34.5913 73.7881 34.4732C73.4456 34.3405 73.0808 34.2748 72.7135 34.2796H71.2475V39.2378H72.716C73.0829 39.2431 73.4475 39.1792 73.7907 39.0494C74.0975 38.9346 74.3766 38.7564 74.6098 38.5265C74.8326 38.3019 75.0093 38.0361 75.1302 37.7438C75.3753 37.1176 75.3753 36.4219 75.1302 35.7957L75.1276 35.7931Z" fill="#ADADAD"></path>
</svg>
