<?xml version="1.0" encoding="UTF-8"?>
<svg xmlns="http://www.w3.org/2000/svg" width="206" height="49" viewBox="0 0 206 49" fill="none">
  <path d="M28.8635 22.502H24.7383V47.5068H28.8635V22.502Z" fill="white"></path>
  <path d="M42.7029 39.0262C42.7396 39.6075 42.6558 40.1901 42.4566 40.7374C42.2574 41.2847 41.9473 41.785 41.5456 42.2067C41.1575 42.6149 40.683 42.9311 40.1568 43.132C39.6306 43.3329 39.0661 43.4134 38.5048 43.3677C36.0874 43.3677 35.6837 41.0351 35.6837 39.6079V29.4392H31.623V39.5804C31.5189 41.7617 32.2569 43.8995 33.6844 45.5521C34.3125 46.1727 35.0593 46.6604 35.8802 46.9858C36.701 47.3113 37.579 47.4679 38.4618 47.4463C39.9944 47.4743 41.4902 46.9756 42.6993 46.0334V47.4977H46.7338V29.4392H42.7029V39.0226V39.0262Z" fill="white"></path>
  <path d="M56.2253 23.8931H52.3711V30.0547H49.4844V34.1668H52.3723V47.5065H56.2265V34.1668H59.1144V30.0547H56.2265L56.2253 23.8931Z" fill="white"></path>
  <path d="M72.2885 42.2125C71.4167 43.0533 70.2534 43.5242 69.0422 43.5263C68.3995 43.5442 67.7605 43.4242 67.168 43.1745C66.5755 42.9249 66.0434 42.5512 65.6073 42.0787C65.1544 41.591 64.8021 41.0187 64.5706 40.3947C64.339 39.7706 64.2327 39.1071 64.2577 38.442C64.2297 37.7807 64.3347 37.1204 64.5665 36.5005C64.7984 35.8805 65.1523 35.3133 65.6073 34.8327C66.0458 34.3682 66.5803 34.0049 67.1735 33.7681C67.7667 33.5313 68.4044 33.4267 69.0422 33.4615C70.2507 33.4519 71.4186 33.8975 72.3136 34.7096L72.9107 35.2602L75.5861 32.4356L74.9124 31.8038C73.3342 30.29 71.2303 29.4474 69.0434 29.4533C67.9021 29.4137 66.7655 29.6181 65.7095 30.0529C64.6536 30.4877 63.7025 31.1428 62.92 31.9746C62.1096 32.8362 61.4777 33.8497 61.0606 34.9565C60.6435 36.0634 60.4494 37.2419 60.4895 38.4241C60.4248 40.8174 61.3028 43.1404 62.9344 44.8926C63.7132 45.7323 64.6601 46.3985 65.7135 46.8479C66.7669 47.2973 67.9031 47.5199 69.0482 47.5011C71.2541 47.5164 73.3783 46.6676 74.9662 45.1363L75.6111 44.4913L72.8641 41.6249L72.292 42.2042L72.2885 42.2125Z" fill="white"></path>
  <path d="M88.9556 31.9803C87.9009 30.922 86.4926 30.2905 85.0008 30.2067C83.509 30.123 82.0389 30.5929 80.8723 31.5264V22.502H76.9883V47.5068H80.8663V38.1288C80.8663 34.363 83.5381 33.9999 84.4721 33.9999C86.8225 33.9999 86.7497 36.2453 86.7497 37.5829V47.496H90.7113V37.6128C90.8871 35.5757 90.2543 33.5511 88.9496 31.9767L88.9556 31.9803Z" fill="white"></path>
  <path d="M69.1494 41.2534C69.7004 41.2598 70.2408 41.1022 70.7021 40.8007C71.1634 40.4993 71.5246 40.0675 71.7399 39.5602C71.9552 39.053 72.0149 38.4932 71.9113 37.952C71.8078 37.4107 71.5456 36.9125 71.1583 36.5206C70.7709 36.1287 70.2758 35.8608 69.7358 35.7509C69.1958 35.641 68.6354 35.6941 68.1256 35.9035C67.6159 36.1129 67.1799 36.469 66.8731 36.9268C66.5663 37.3845 66.4024 37.9231 66.4024 38.4741C66.3992 39.2066 66.6866 39.9105 67.2015 40.4315C67.7164 40.9524 68.4169 41.248 69.1494 41.2534Z" fill="#EB4F3C"></path>
  <path d="M18.4667 42.4686C16.8171 44.0721 14.6007 44.9585 12.3003 44.9349C10.0957 44.8502 8.00924 43.9161 6.4775 42.3283C4.94576 40.7404 4.0874 38.6217 4.082 36.4154C4.0766 34.2092 4.92458 32.0863 6.44853 30.491C7.97248 28.8956 10.0543 27.9514 12.2585 27.8558C14.5437 27.8432 16.7438 28.7219 18.3915 30.3054L19.0507 30.9372L21.9518 28.1472L21.32 27.5154C20.1281 26.3456 18.7169 25.4228 17.1674 24.7997C15.618 24.1766 13.9607 23.8656 12.2908 23.8846C9.01204 23.9401 5.88638 25.2816 3.58736 27.6198C1.28833 29.9581 0 33.106 0 36.3852C0 39.6644 1.28833 42.8123 3.58736 45.1506C5.88638 47.4889 9.01204 48.8303 12.2908 48.8858C13.9667 48.9031 15.6297 48.59 17.1846 47.9646C18.7396 47.3392 20.1562 46.4136 21.3534 45.2407L21.9853 44.6196L19.1355 41.8153L18.4619 42.4603L18.4667 42.4686Z" fill="white"></path>
  <path d="M118.872 15.1281L114.436 17.9396C114.318 18.0181 114.178 18.0576 114.036 18.0527C113.894 18.0477 113.757 17.9986 113.644 17.9121C113.529 17.8218 113.442 17.6998 113.395 17.5611C113.348 17.4224 113.342 17.2729 113.379 17.131L114.516 11.858L110.614 8.27496C110.508 8.17496 110.432 8.04674 110.395 7.90527C110.359 7.7638 110.364 7.6149 110.409 7.47595C110.449 7.33881 110.53 7.21674 110.64 7.12499C110.749 7.03323 110.884 6.97584 111.026 6.95999L116.17 6.50614L118.23 1.5508C118.278 1.41421 118.366 1.29575 118.484 1.21191C118.602 1.12806 118.743 1.08301 118.887 1.08301C119.032 1.08301 119.173 1.12806 119.291 1.21191C119.408 1.29575 119.497 1.41421 119.544 1.5508L121.575 6.52405L126.719 6.9779C126.86 6.99451 126.993 7.05278 127.101 7.1453C127.209 7.23782 127.287 7.36041 127.325 7.49744C127.368 7.63576 127.371 7.78333 127.334 7.92334C127.297 8.06334 127.222 8.19015 127.116 8.2893L123.224 11.8723L124.361 17.1454C124.392 17.2881 124.383 17.4369 124.333 17.5745C124.284 17.712 124.197 17.8328 124.081 17.9229C123.969 18.0096 123.833 18.0595 123.691 18.0657C123.549 18.0719 123.409 18.0341 123.29 17.9575L118.885 15.1293L118.872 15.1281Z" fill="#EB4F3C"></path>
  <path d="M138.202 15.1281L133.766 17.9396C133.648 18.0181 133.508 18.0576 133.366 18.0527C133.224 18.0477 133.087 17.9986 132.974 17.9121C132.859 17.8218 132.772 17.6998 132.725 17.5611C132.678 17.4224 132.672 17.2729 132.709 17.131L133.852 11.8604L129.95 8.27735C129.844 8.17735 129.768 8.04913 129.731 7.90766C129.695 7.76619 129.7 7.61729 129.745 7.47833C129.785 7.3412 129.866 7.21913 129.976 7.12738C130.085 7.03562 130.22 6.97823 130.362 6.96238L135.506 6.50853L137.554 1.5508C137.602 1.41421 137.69 1.29575 137.808 1.21191C137.926 1.12806 138.067 1.08301 138.211 1.08301C138.356 1.08301 138.497 1.12806 138.614 1.21191C138.732 1.29575 138.821 1.41421 138.868 1.5508L140.899 6.52405L146.043 6.9779C146.184 6.99451 146.317 7.05278 146.425 7.1453C146.533 7.23782 146.611 7.36041 146.649 7.49744C146.692 7.63576 146.695 7.78333 146.658 7.92334C146.621 8.06334 146.546 8.19015 146.44 8.2893L142.548 11.8723L143.685 17.1454C143.716 17.2881 143.707 17.4369 143.657 17.5745C143.608 17.712 143.521 17.8328 143.405 17.9229C143.293 18.0096 143.157 18.0595 143.015 18.0657C142.873 18.0719 142.733 18.0341 142.614 17.9575L138.209 15.1293L138.202 15.1281Z" fill="#EB4F3C"></path>
  <path d="M157.516 15.1237L153.077 17.9352C152.959 18.0137 152.819 18.0533 152.678 18.0484C152.537 18.0434 152.4 17.9943 152.288 17.9077C152.173 17.8172 152.087 17.6953 152.039 17.5568C151.991 17.4182 151.985 17.2689 152.02 17.1266L153.157 11.8536L149.255 8.27058C149.148 8.17057 149.072 8.04236 149.036 7.90089C149 7.75941 149.004 7.61052 149.049 7.47156C149.09 7.33411 149.17 7.21171 149.28 7.11986C149.39 7.02802 149.524 6.97085 149.667 6.9556L154.811 6.50175L156.867 1.54641C156.917 1.41188 157.006 1.29556 157.123 1.21282C157.24 1.13007 157.38 1.08481 157.523 1.08301C157.666 1.08453 157.805 1.12974 157.922 1.21257C158.038 1.2954 158.127 1.41189 158.175 1.54641L160.206 6.51967L165.35 6.97352C165.491 6.99103 165.623 7.04963 165.731 7.14201C165.839 7.23439 165.917 7.35648 165.956 7.49306C165.999 7.63137 166.002 7.77894 165.965 7.91895C165.928 8.05895 165.853 8.18576 165.747 8.28491L161.855 11.8679L162.992 17.141C163.023 17.2837 163.014 17.4325 162.965 17.5701C162.915 17.7077 162.828 17.8284 162.713 17.9185C162.6 18.0052 162.464 18.0551 162.322 18.0613C162.18 18.0675 162.04 18.0297 161.921 17.9531L157.52 15.1249L157.516 15.1237Z" fill="#EB4F3C"></path>
  <path d="M176.838 15.1237L172.403 17.9352C172.284 18.0137 172.144 18.0532 172.002 18.0483C171.86 18.0433 171.723 17.9942 171.611 17.9077C171.495 17.8174 171.409 17.6954 171.362 17.5567C171.315 17.418 171.309 17.2685 171.346 17.1266L172.489 11.856L168.587 8.27297C168.48 8.17296 168.404 8.04475 168.368 7.90327C168.332 7.7618 168.336 7.61291 168.381 7.47395C168.422 7.3365 168.502 7.2141 168.612 7.12225C168.722 7.0304 168.856 6.97324 168.999 6.95799L174.143 6.50414L176.191 1.54641C176.242 1.41253 176.331 1.29685 176.448 1.21425C176.565 1.13166 176.704 1.08595 176.847 1.08301C176.99 1.08503 177.129 1.13044 177.245 1.2132C177.361 1.29596 177.45 1.41217 177.499 1.54641L179.529 6.51967L184.673 6.97352C184.814 6.99103 184.947 7.04963 185.055 7.14201C185.163 7.23439 185.241 7.35648 185.28 7.49306C185.323 7.63137 185.326 7.77894 185.289 7.91895C185.252 8.05895 185.177 8.18576 185.071 8.28491L181.179 11.8679L182.316 17.141C182.348 17.2837 182.339 17.4327 182.289 17.5704C182.24 17.7082 182.152 17.8289 182.036 17.9185C181.924 18.0052 181.788 18.0551 181.646 18.0613C181.504 18.0675 181.364 18.0297 181.244 17.9531L176.843 15.1249L176.838 15.1237Z" fill="#EB4F3C"></path>
  <path d="M196.153 15.131L191.717 17.9449C191.599 18.0233 191.459 18.0629 191.317 18.0579C191.175 18.053 191.038 18.0039 190.925 17.9174C190.81 17.8271 190.723 17.7051 190.676 17.5664C190.629 17.4276 190.624 17.2782 190.66 17.1363L191.797 11.8633L187.895 8.28024C187.789 8.18023 187.713 8.05202 187.677 7.91055C187.64 7.76907 187.645 7.62018 187.69 7.48122C187.731 7.34408 187.811 7.22202 187.921 7.13026C188.031 7.0385 188.165 6.98112 188.307 6.96526L193.451 6.51141L195.506 1.55369C195.553 1.41877 195.642 1.30194 195.758 1.2193C195.875 1.13666 196.015 1.09229 196.158 1.09229C196.301 1.09229 196.44 1.13666 196.557 1.2193C196.674 1.30194 196.762 1.41877 196.81 1.55369L198.84 6.52694L203.984 6.98079C204.125 6.9983 204.258 7.0569 204.366 7.14928C204.474 7.24167 204.552 7.36375 204.591 7.50033C204.634 7.63864 204.637 7.78621 204.6 7.92622C204.563 8.06623 204.488 8.19303 204.382 8.29218L200.49 11.8752L201.627 17.1482C201.659 17.291 201.65 17.44 201.6 17.5777C201.551 17.7154 201.463 17.8362 201.347 17.9258C201.235 18.0125 201.099 18.0624 200.957 18.0686C200.815 18.0748 200.675 18.037 200.555 17.9604L196.154 15.1322L196.153 15.131Z" fill="#EB4F3C"></path>
  <path d="M1.64453 4.68861H4.37122C4.90763 4.67337 5.44154 4.76723 5.94059 4.9645C6.34449 5.12754 6.68733 5.41275 6.92115 5.78024C7.15752 6.17667 7.27486 6.63274 7.25915 7.09402C7.2637 7.43997 7.18528 7.78198 7.03047 8.09139C6.87566 8.40081 6.64896 8.66862 6.36936 8.8724C6.06319 9.09254 5.7172 9.25113 5.35058 9.33939L5.04364 9.45882H2.48177L2.47102 8.59412H4.40705C4.74495 8.60606 5.08089 8.53813 5.38761 8.39586C5.63297 8.27476 5.83762 8.08464 5.97642 7.84885C6.10938 7.61886 6.17788 7.35727 6.17468 7.09163C6.18123 6.81048 6.1163 6.53227 5.98597 6.28306C5.85433 6.04474 5.6472 5.85694 5.39716 5.74919C5.0743 5.60915 4.72409 5.54343 4.37241 5.5569H2.73616V12.7134H1.64453V4.68861ZM6.46013 12.717L4.45482 9.07544L5.59184 9.06827L7.62223 12.6513V12.717H6.46013Z" fill="#ADADAD"></path>
  <path d="M15.6723 11.8531V12.7178H11.3094V11.8531H15.6723ZM11.5291 4.68701V12.7154H10.4375V4.69059L11.5291 4.68701ZM15.0931 8.13986V9.00457H11.3058V8.13986H15.0931ZM15.6126 4.68701V5.55888H11.3058V4.68701H15.6126Z" fill="#ADADAD"></path>
  <path d="M21.3435 11.4984L23.7704 4.69059H24.9528L21.9012 12.719H21.0568L21.3399 11.5019L21.3435 11.4984ZM19.0742 4.69059L21.4808 11.4984L21.7806 12.7154H20.9362L17.8906 4.68701L19.0742 4.69059Z" fill="#ADADAD"></path>
  <path d="M28.8885 4.68701V12.7154H27.7969V4.68701H28.8885Z" fill="#ADADAD"></path>
  <path d="M37.7664 11.8531V12.7178H33.407V11.8531H37.7664ZM33.6232 4.68701V12.7154H32.5352V4.69059L33.6232 4.68701ZM37.1871 8.13986V9.00457H33.4034V8.13986H37.1871ZM37.7067 4.68701V5.55888H33.4034V4.68701H37.7067Z" fill="#ADADAD"></path>
  <path d="M42.9472 10.2909L44.5871 4.6894H45.3789L44.9215 6.86908L43.1598 12.7214H42.3715L42.9472 10.2909ZM41.256 4.68701L42.5567 10.181L42.9472 12.7166H42.1661L40.168 4.6894H41.256V4.68701ZM47.4917 10.1726L48.7673 4.6894H49.8589L47.8679 12.7178H47.0868L47.4917 10.1726ZM45.4936 4.68701L47.0832 10.2909L47.6625 12.7178H46.8742L45.1759 6.8655L44.7065 4.6894H45.4876L45.4936 4.68701Z" fill="#ADADAD"></path>
  <path d="M57.9614 11.8531V12.7178H53.5984V11.8531H57.9614ZM53.8182 4.68701V12.7154H52.7266V4.69059L53.8182 4.68701ZM57.3821 8.13986V9.00457H53.5948V8.13986H57.3821ZM57.9016 4.68701V5.55888H53.5948V4.68701H57.9016Z" fill="#ADADAD"></path>
  <path d="M63.1974 12.7193H61.4775L61.4883 11.8546H63.1974C63.7116 11.8741 64.2211 11.75 64.6688 11.4963C65.0595 11.2556 65.3674 10.9015 65.5514 10.4811C65.7604 9.99703 65.8627 9.47358 65.8512 8.94641V8.45434C65.8584 8.03986 65.8008 7.62681 65.6804 7.23013C65.5811 6.89453 65.4108 6.58418 65.1812 6.32004C64.9619 6.07024 64.687 5.8755 64.3786 5.75154C64.0344 5.61727 63.6671 5.55194 63.2977 5.55925H61.4429V4.68737H63.2977C63.803 4.68053 64.3049 4.77053 64.7763 4.95252C65.2095 5.11828 65.6012 5.37672 65.9241 5.70973C66.2555 6.04982 66.5101 6.45711 66.6705 6.90408C66.8515 7.40594 66.9402 7.93643 66.9321 8.46986V8.9476C66.9399 9.48336 66.8513 10.0162 66.6705 10.5206C66.5088 10.9652 66.2522 11.3692 65.9184 11.7046C65.5847 12.04 65.1819 12.2986 64.7381 12.4626C64.243 12.6422 63.7192 12.7297 63.1926 12.7205L63.1974 12.7193ZM62.0604 4.69096V12.7193H60.9688V4.69096H62.0604Z" fill="#ADADAD"></path>
  <path d="M81.1069 8.45182V8.95702C81.1138 9.50691 81.0332 10.0544 80.8681 10.5789C80.7309 11.0264 80.5028 11.4408 80.1981 11.796C79.9112 12.1268 79.5536 12.3889 79.1518 12.5628C78.7218 12.7452 78.2584 12.8355 77.7914 12.8279C77.3303 12.8351 76.8728 12.7447 76.449 12.5628C76.0465 12.3863 75.6871 12.1247 75.3956 11.796C75.0892 11.4398 74.8569 11.026 74.7124 10.5789C74.5438 10.0552 74.4631 9.50714 74.4736 8.95702V8.45182C74.4664 7.90426 74.547 7.35908 74.7124 6.83706C74.8575 6.39023 75.0897 5.97659 75.3956 5.62002C75.681 5.28682 76.0389 5.02332 76.4418 4.84967C76.866 4.66901 77.3232 4.5787 77.7843 4.58453C78.2511 4.57834 78.7143 4.6686 79.1446 4.84967C79.5479 5.02277 79.9059 5.28636 80.1909 5.62002C80.4968 5.97501 80.7261 6.38934 80.8645 6.83706C81.0299 7.35908 81.1106 7.90426 81.1034 8.45182H81.1069ZM80.0261 8.95702V8.43748C80.0318 8.00937 79.9804 7.58241 79.8732 7.1679C79.7902 6.83293 79.6421 6.5176 79.4372 6.23989C79.2517 5.99487 79.0084 5.79956 78.729 5.67138C78.4345 5.53892 78.1143 5.47325 77.7914 5.47909C77.4728 5.47308 77.1569 5.5388 76.867 5.67138C76.5915 5.80257 76.3512 5.99744 76.1659 6.23989C75.9596 6.51815 75.808 6.83306 75.7193 7.1679C75.6088 7.58186 75.5562 8.0091 75.5628 8.43748V8.95702C75.5564 9.38893 75.6091 9.81969 75.7193 10.2374C75.8104 10.5737 75.9644 10.8898 76.1731 11.1689C76.3618 11.4109 76.6043 11.6056 76.8813 11.7375C77.1714 11.8693 77.4872 11.9349 77.8058 11.9297C78.1304 11.9351 78.4523 11.8699 78.7493 11.7387C79.0255 11.6101 79.2652 11.4147 79.4468 11.1701C79.651 10.8907 79.799 10.5743 79.8827 10.2386C79.9862 9.81981 80.0356 9.38952 80.0296 8.95822L80.0261 8.95702Z" fill="#ADADAD"></path>
  <path d="M90.7353 4.68701V12.7154H89.6365L85.4861 6.52153V12.7154H84.3945V4.68701H85.4861L89.6496 10.8976V4.68701H90.7305H90.7353Z" fill="#ADADAD"></path>
  <path d="M110.964 45.9928V44.7577L114.785 40.7989C115.193 40.3688 115.529 39.9921 115.794 39.6686C116.062 39.3414 116.263 39.0308 116.395 38.7368C116.527 38.4427 116.594 38.1303 116.594 37.7994C116.594 37.4245 116.505 37.1011 116.329 36.829C116.153 36.5534 115.912 36.342 115.607 36.195C115.302 36.0443 114.958 35.9689 114.576 35.9689C114.171 35.9689 113.818 36.0516 113.517 36.217C113.216 36.3824 112.984 36.6158 112.822 36.9173C112.661 37.2187 112.58 37.5716 112.58 37.9759H110.953C110.953 37.2885 111.111 36.6875 111.427 36.1729C111.743 35.6583 112.177 35.2595 112.729 34.9765C113.28 34.6897 113.907 34.5464 114.609 34.5464C115.318 34.5464 115.943 34.6879 116.483 34.9709C117.027 35.2503 117.452 35.6326 117.757 36.1178C118.062 36.5993 118.215 37.1433 118.215 37.7498C118.215 38.1689 118.136 38.5787 117.978 38.9794C117.823 39.38 117.553 39.8266 117.167 40.3192C116.781 40.8081 116.244 41.4017 115.557 42.1001L113.313 44.4489V44.5316H118.397V45.9928H110.964Z" fill="#ADADAD"></path>
  <path d="M124.728 46.1802C123.857 46.1765 123.113 45.9468 122.495 45.491C121.877 45.0352 121.405 44.3717 121.078 43.5006C120.751 42.6294 120.587 41.58 120.587 40.3523C120.587 39.1282 120.751 38.0825 121.078 37.215C121.409 36.3475 121.883 35.6859 122.501 35.2301C123.122 34.7743 123.864 34.5464 124.728 34.5464C125.592 34.5464 126.333 34.7761 126.95 35.2356C127.568 35.6914 128.04 36.353 128.367 37.2205C128.698 38.0843 128.863 39.1282 128.863 40.3523C128.863 41.5837 128.7 42.6349 128.373 43.5061C128.045 44.3736 127.573 45.0371 126.956 45.4965C126.338 45.9523 125.596 46.1802 124.728 46.1802ZM124.728 44.7081C125.493 44.7081 126.09 44.335 126.52 43.5888C126.954 42.8426 127.171 41.7638 127.171 40.3523C127.171 39.415 127.071 38.6228 126.873 37.9759C126.678 37.3253 126.397 36.8327 126.029 36.4982C125.665 36.1601 125.232 35.991 124.728 35.991C123.967 35.991 123.37 36.3659 122.936 37.1158C122.502 37.8656 122.284 38.9445 122.28 40.3523C122.28 41.2933 122.377 42.0891 122.572 42.7397C122.771 43.3866 123.052 43.8773 123.416 44.2118C123.78 44.5427 124.217 44.7081 124.728 44.7081Z" fill="#ADADAD"></path>
  <path d="M135.704 45.9928V34.7008H139.729C140.604 34.7008 141.33 34.8515 141.907 35.1529C142.487 35.4543 142.921 35.8715 143.208 36.4045C143.495 36.9338 143.638 37.5458 143.638 38.2405C143.638 38.9316 143.493 39.5399 143.202 40.0656C142.916 40.5875 142.482 40.9937 141.901 41.2841C141.324 41.5745 140.598 41.7197 139.723 41.7197H136.674V40.253H139.569C140.12 40.253 140.569 40.174 140.914 40.0159C141.263 39.8579 141.519 39.6281 141.681 39.3267C141.842 39.0253 141.923 38.6633 141.923 38.2405C141.923 37.8142 141.84 37.4447 141.675 37.1323C141.513 36.8199 141.258 36.5809 140.909 36.4155C140.563 36.2464 140.109 36.1619 139.547 36.1619H137.407V45.9928H135.704ZM141.278 40.8981L144.068 45.9928H142.127L139.392 40.8981H141.278Z" fill="#ADADAD"></path>
  <path d="M146.022 45.9928V34.7008H153.101V36.1674H147.725V39.6079H152.732V41.0691H147.725V44.5261H153.167V45.9928H146.022Z" fill="#ADADAD"></path>
  <path d="M156.674 34.7008L159.817 43.8976H159.944L163.087 34.7008H164.928L160.865 45.9928H158.896L154.833 34.7008H156.674Z" fill="#ADADAD"></path>
  <path d="M168.573 34.7008V45.9928H166.87V34.7008H168.573Z" fill="#ADADAD"></path>
  <path d="M171.365 45.9928V34.7008H178.444V36.1674H173.069V39.6079H178.075V41.0691H173.069V44.5261H178.511V45.9928H171.365Z" fill="#ADADAD"></path>
  <path d="M183.242 45.9928L180.11 34.7008H181.902L184.102 43.4454H184.207L186.495 34.7008H188.27L190.558 43.451H190.663L192.858 34.7008H194.655L191.518 45.9928H189.803L187.427 37.5348H187.338L184.962 45.9928H183.242Z" fill="#ADADAD"></path>
  <path d="M202.647 37.6671C202.589 37.1452 202.346 36.7408 201.92 36.4541C201.493 36.1637 200.957 36.0185 200.31 36.0185C199.847 36.0185 199.446 36.0921 199.108 36.2391C198.77 36.3824 198.507 36.5809 198.319 36.8346C198.135 37.0845 198.044 37.3694 198.044 37.6892C198.044 37.9575 198.106 38.1891 198.231 38.3839C198.36 38.5787 198.527 38.7423 198.733 38.8746C198.942 39.0033 199.167 39.1117 199.405 39.1999C199.644 39.2845 199.874 39.3543 200.095 39.4094L201.197 39.6962C201.558 39.7844 201.927 39.9038 202.306 40.0545C202.684 40.2052 203.035 40.4037 203.359 40.65C203.682 40.8963 203.943 41.2014 204.142 41.5653C204.344 41.9292 204.445 42.3648 204.445 42.872C204.445 43.5116 204.28 44.0795 203.949 44.5757C203.622 45.072 203.146 45.4634 202.521 45.7502C201.899 46.0369 201.148 46.1802 200.266 46.1802C199.42 46.1802 198.689 46.0461 198.071 45.7777C197.454 45.5094 196.97 45.129 196.621 44.6364C196.272 44.1402 196.079 43.552 196.042 42.872H197.751C197.784 43.28 197.917 43.62 198.148 43.8921C198.384 44.1604 198.683 44.3607 199.047 44.493C199.415 44.6217 199.817 44.686 200.255 44.686C200.736 44.686 201.164 44.6107 201.539 44.46C201.918 44.3056 202.216 44.0924 202.432 43.8204C202.649 43.5447 202.758 43.2231 202.758 42.8555C202.758 42.521 202.662 42.2471 202.471 42.0339C202.284 41.8208 202.028 41.6443 201.705 41.5046C201.385 41.365 201.023 41.2418 200.618 41.1352L199.284 40.7713C198.38 40.525 197.663 40.163 197.134 39.6851C196.608 39.2073 196.345 38.575 196.345 37.7884C196.345 37.1378 196.522 36.5699 196.875 36.0847C197.228 35.5995 197.705 35.2227 198.308 34.9544C198.911 34.6824 199.591 34.5464 200.348 34.5464C201.113 34.5464 201.787 34.6806 202.372 34.9489C202.96 35.2172 203.423 35.5866 203.761 36.0571C204.099 36.524 204.276 37.0606 204.291 37.6671H202.647Z" fill="#ADADAD"></path>
</svg>
