<svg width="251" height="75" viewBox="0 0 251 75" fill="none" xmlns="http://www.w3.org/2000/svg">
<g clip-path="url(#clip0_158_11)">
<path d="M49.3034 69.1373L18.8024 6.781C18.7785 6.7408 18.7632 6.69648 18.7571 6.64984C18.7508 6.60381 18.7539 6.55719 18.7662 6.5123C18.7784 6.46683 18.7999 6.42487 18.8286 6.38816C18.8575 6.352 18.8934 6.32113 18.9342 6.29897C18.9891 6.26691 19.0517 6.25 19.1152 6.25H36.9834L67.4798 68.6105C67.5039 68.6508 67.5191 68.6952 67.5256 68.7414C67.5318 68.7875 67.5284 68.8345 67.5162 68.8795C67.5039 68.9244 67.4829 68.9664 67.4537 69.0031C67.425 69.0397 67.3888 69.0702 67.3478 69.0927C67.2936 69.1234 67.2322 69.1395 67.1693 69.1394H49.3012L49.3034 69.1373Z" fill="#EFEFED"/>
<path d="M35.7385 67.023L18.4938 37.6924H0L17.9724 68.2529C18.133 68.5213 18.3605 68.7438 18.6328 68.8985C18.905 69.0535 19.2128 69.1354 19.5261 69.1363H34.4956C34.7458 69.136 34.9914 69.0714 35.2092 68.9485C35.4271 68.8258 35.6094 68.6489 35.7385 68.4354C35.8644 68.2216 35.9308 67.9782 35.9308 67.7304C35.9308 67.4824 35.8644 67.2368 35.7385 67.023Z" fill="url(#paint0_linear_158_11)"/>
<path d="M0 37.6904L18.179 6.77988C18.2741 6.61785 18.4104 6.4838 18.574 6.3917C18.7378 6.29902 18.923 6.25123 19.1111 6.25298H36.9792L18.4938 37.6904H0Z" fill="url(#paint1_linear_158_11)"/>
<path d="M49.2969 69.138L67.7865 37.6924H86.2784L68.2016 68.433C68.0761 68.6468 67.8972 68.8244 67.6825 68.948C67.4675 69.0718 67.2239 69.1374 66.9757 69.138H49.2969Z" fill="url(#paint2_linear_158_11)"/>
<path d="M86.2822 37.6921L68.3097 7.1297C68.1514 6.86042 67.9242 6.63717 67.6514 6.48271C67.3785 6.32882 67.0696 6.24954 66.7558 6.25304H51.7868C51.5364 6.25304 51.2906 6.31717 51.0727 6.44015C50.8551 6.56313 50.6728 6.73974 50.5439 6.95365C50.4178 7.16757 50.3516 7.41063 50.3516 7.65901C50.3516 7.90663 50.4178 8.15029 50.5439 8.36365L67.7904 37.6943L86.2822 37.6921Z" fill="url(#paint3_linear_158_11)"/>
<path d="M95.6786 44.7042C95.221 44.7042 94.8469 44.5623 94.5557 44.2784C94.2647 43.9948 94.1191 43.6298 94.1191 43.1837V14.5973C94.1191 14.1513 94.2647 13.7863 94.5557 13.5025C94.8469 13.2187 95.221 13.0768 95.6786 13.0768H102.852C103.31 13.0768 103.684 13.2187 103.975 13.5025C104.266 13.7863 104.412 14.1513 104.412 14.5973V16.9086C105.493 15.6516 106.907 14.5973 108.653 13.7458C110.4 12.8943 112.459 12.4686 114.829 12.4686C117.241 12.4686 119.362 12.9957 121.192 14.05C123.063 15.1042 124.519 16.6653 125.558 18.7331C126.639 20.7606 127.18 23.2544 127.18 26.2144V43.1837C127.18 43.6298 127.014 43.9948 126.681 44.2784C126.39 44.5623 126.036 44.7042 125.621 44.7042H117.761C117.345 44.7042 116.971 44.5623 116.638 44.2784C116.347 43.9948 116.201 43.6298 116.201 43.1837V26.5794C116.201 24.6734 115.723 23.2138 114.767 22.2002C113.852 21.1458 112.479 20.6188 110.65 20.6188C108.944 20.6188 107.572 21.1458 106.532 22.2002C105.535 23.2138 105.035 24.6734 105.035 26.5794V43.1837C105.035 43.6298 104.869 43.9948 104.536 44.2784C104.245 44.5623 103.892 44.7042 103.476 44.7042H95.6786ZM149.112 45.3125C144.205 45.3125 140.296 44.015 137.385 41.4198C134.474 38.8248 132.957 34.9727 132.832 29.8638C132.832 29.5798 132.832 29.215 132.832 28.7689C132.832 28.3228 132.832 27.9781 132.832 27.7348C132.957 24.5317 133.684 21.7947 135.015 19.5239C136.387 17.2127 138.259 15.4691 140.629 14.2932C143.041 13.0768 145.848 12.4686 149.05 12.4686C152.71 12.4686 155.724 13.1781 158.096 14.5973C160.507 16.0166 162.316 17.9425 163.522 20.3753C164.728 22.8083 165.332 25.5858 165.332 28.7081V30.1678C165.332 30.6139 165.165 30.9787 164.832 31.2625C164.542 31.5464 164.187 31.6883 163.771 31.6883H143.811C143.811 31.7289 143.811 31.7897 143.811 31.8709C143.811 31.952 143.811 32.033 143.811 32.1141C143.853 33.29 144.06 34.3645 144.435 35.3377C144.809 36.3109 145.391 37.0813 146.181 37.6489C146.971 38.2166 147.928 38.5005 149.05 38.5005C149.882 38.5005 150.569 38.3789 151.109 38.1355C151.691 37.8517 152.17 37.5477 152.543 37.2231C152.917 36.8583 153.208 36.5541 153.417 36.3109C153.792 35.9055 154.081 35.6622 154.29 35.5809C154.539 35.4594 154.914 35.3984 155.412 35.3984H163.147C163.564 35.3984 163.897 35.5202 164.146 35.7634C164.437 35.9662 164.562 36.2703 164.52 36.6758C164.479 37.3652 164.124 38.1963 163.459 39.1695C162.796 40.1427 161.817 41.1158 160.529 42.0889C159.28 43.0216 157.7 43.7919 155.787 44.4003C153.875 45.0084 151.649 45.3125 149.112 45.3125ZM143.811 25.6669H154.353V25.5453C154.353 24.2477 154.144 23.1123 153.729 22.1394C153.355 21.1661 152.752 20.4159 151.919 19.8887C151.13 19.3619 150.173 19.0981 149.05 19.0981C147.928 19.0981 146.971 19.3619 146.181 19.8887C145.433 20.4159 144.85 21.1661 144.435 22.1394C144.018 23.1123 143.811 24.2477 143.811 25.5453V25.6669ZM186.526 45.3125C183.033 45.3125 180.079 44.7652 177.667 43.6703C175.297 42.5755 173.466 41.0144 172.177 38.987C170.93 36.9191 170.222 34.4658 170.057 31.6275C170.014 30.8166 169.995 29.9042 169.995 28.8905C169.995 27.8363 170.014 26.9239 170.057 26.1536C170.222 23.2747 170.972 20.8214 172.302 18.7941C173.633 16.7666 175.484 15.2055 177.854 14.1107C180.267 13.016 183.157 12.4686 186.526 12.4686C189.935 12.4686 192.825 13.016 195.197 14.1107C197.608 15.2055 199.479 16.7666 200.81 18.7941C202.14 20.8214 202.888 23.2747 203.056 26.1536C203.097 26.9239 203.117 27.8363 203.117 28.8905C203.117 29.9042 203.097 30.8166 203.056 31.6275C202.888 34.4658 202.162 36.9191 200.872 38.987C199.625 41.0144 197.795 42.5755 195.383 43.6703C193.011 44.7652 190.059 45.3125 186.526 45.3125ZM186.526 37.8922C188.396 37.8922 189.747 37.3448 190.58 36.25C191.452 35.1553 191.953 33.5131 192.076 31.3234C192.119 30.7152 192.139 29.9042 192.139 28.8905C192.139 27.8769 192.119 27.0659 192.076 26.4577C191.953 24.3086 191.452 22.6867 190.58 21.5919C189.747 20.4566 188.396 19.8887 186.526 19.8887C184.695 19.8887 183.345 20.4566 182.471 21.5919C181.597 22.6867 181.119 24.3086 181.036 26.4577C180.993 27.0659 180.973 27.8769 180.973 28.8905C180.973 29.9042 180.993 30.7152 181.036 31.3234C181.119 33.5131 181.597 35.1553 182.471 36.25C183.345 37.3448 184.695 37.8922 186.526 37.8922ZM210.812 44.7042C210.354 44.7042 209.981 44.5623 209.689 44.2784C209.399 43.9948 209.253 43.6298 209.253 43.1837V14.5973C209.253 14.1513 209.399 13.7863 209.689 13.5025C209.981 13.2187 210.354 13.0768 210.812 13.0768H218.173C218.588 13.0768 218.941 13.2187 219.233 13.5025C219.566 13.7863 219.732 14.1513 219.732 14.5973V43.1837C219.732 43.6298 219.566 43.9948 219.233 44.2784C218.941 44.5623 218.588 44.7042 218.173 44.7042H210.812ZM210.749 8.51514C210.293 8.51514 209.918 8.37311 209.626 8.08936C209.336 7.80552 209.19 7.44066 209.19 6.99456V1.58139C209.19 1.1353 209.336 0.77033 209.626 0.486589C209.918 0.162122 210.293 0 210.749 0H218.173C218.631 0 219.004 0.162122 219.296 0.486589C219.628 0.77033 219.795 1.1353 219.795 1.58139V6.99456C219.795 7.44066 219.628 7.80552 219.296 8.08936C219.004 8.37311 218.631 8.51514 218.173 8.51514H210.749ZM243.633 44.7042C240.971 44.7042 238.665 44.2987 236.709 43.4878C234.797 42.6362 233.32 41.3387 232.28 39.5953C231.242 37.8111 230.721 35.5202 230.721 32.7223V21.0445H225.855C225.397 21.0445 225.003 20.9025 224.67 20.6188C224.379 20.3348 224.233 19.97 224.233 19.5239V14.5973C224.233 14.1513 224.379 13.7863 224.67 13.5025C225.003 13.2187 225.397 13.0768 225.855 13.0768H230.721V3.04105C230.721 2.59506 230.867 2.23009 231.157 1.94625C231.491 1.6625 231.865 1.52058 232.28 1.52058H239.517C239.975 1.52058 240.348 1.6625 240.639 1.94625C240.93 2.23009 241.076 2.59506 241.076 3.04105V13.0768H248.873C249.331 13.0768 249.704 13.2187 249.996 13.5025C250.286 13.7863 250.432 14.1513 250.432 14.5973V19.5239C250.432 19.97 250.286 20.3348 249.996 20.6188C249.704 20.9025 249.331 21.0445 248.873 21.0445H241.076V31.8709C241.076 33.2494 241.346 34.3442 241.886 35.1553C242.427 35.9662 243.343 36.3717 244.631 36.3717H249.435C249.893 36.3717 250.268 36.5136 250.556 36.7975C250.848 37.0812 250.994 37.4462 250.994 37.8922V43.1837C250.994 43.6298 250.848 43.9948 250.556 44.2784C250.268 44.5623 249.893 44.7042 249.435 44.7042H243.633Z" fill="white"/>
<path d="M113.554 54.5924L109.435 68.7502H107.354L104.051 57.3549L100.624 68.7502L98.5647 68.7705L94.5879 54.5924H96.5661L99.6659 66.5971L103.092 54.5924H105.172L108.435 66.5564L111.555 54.5924H113.554ZM125.782 62.758C125.782 63.11 125.761 63.4825 125.721 63.8752H116.788C116.856 64.9721 117.23 65.8319 117.91 66.4549C118.603 67.0643 119.439 67.3689 120.418 67.3689C121.22 67.3689 121.887 67.1861 122.417 66.8205C122.961 66.4413 123.341 65.9404 123.559 65.3174H125.558C125.258 66.3872 124.66 67.2607 123.763 67.9377C122.866 68.6013 121.751 68.933 120.418 68.933C119.358 68.933 118.406 68.696 117.563 68.2221C116.734 67.7482 116.081 67.0778 115.605 66.2111C115.13 65.331 114.892 64.3153 114.892 63.1643C114.892 62.0132 115.123 61.0044 115.585 60.1377C116.047 59.271 116.693 58.6075 117.522 58.1471C118.365 57.6732 119.331 57.4361 120.418 57.4361C121.479 57.4361 122.417 57.6663 123.233 58.1268C124.048 58.5872 124.674 59.2236 125.109 60.0361C125.558 60.835 125.782 61.7424 125.782 62.758ZM123.865 62.3721C123.865 61.6678 123.708 61.0654 123.396 60.5643C123.083 60.0497 122.655 59.6638 122.111 59.4064C121.581 59.1357 120.989 59.0002 120.337 59.0002C119.399 59.0002 118.597 59.2982 117.93 59.8939C117.278 60.4897 116.904 61.3158 116.809 62.3721H123.865ZM130.087 59.6908C130.468 59.0272 131.025 58.4857 131.76 58.0658C132.494 57.646 133.33 57.4361 134.268 57.4361C135.274 57.4361 136.178 57.6732 136.98 58.1471C137.783 58.621 138.415 59.2913 138.877 60.158C139.339 61.0111 139.57 62.0064 139.57 63.1439C139.57 64.2678 139.339 65.27 138.877 66.1502C138.415 67.0303 137.776 67.7143 136.96 68.2018C136.158 68.6893 135.261 68.933 134.268 68.933C133.303 68.933 132.453 68.7232 131.719 68.3033C130.998 67.8835 130.454 67.3486 130.087 66.6986V68.7502H128.231V53.7189H130.087V59.6908ZM137.674 63.1439C137.674 62.3044 137.504 61.5732 137.164 60.9502C136.824 60.3272 136.362 59.8533 135.777 59.5283C135.206 59.2033 134.574 59.0408 133.881 59.0408C133.201 59.0408 132.569 59.21 131.984 59.5486C131.413 59.8736 130.951 60.3544 130.597 60.9908C130.257 61.6138 130.087 62.3382 130.087 63.1643C130.087 64.0038 130.257 64.7419 130.597 65.3783C130.951 66.0013 131.413 66.4819 131.984 66.8205C132.569 67.1455 133.201 67.308 133.881 67.308C134.574 67.308 135.206 67.1455 135.777 66.8205C136.362 66.4819 136.824 66.0013 137.164 65.3783C137.504 64.7419 137.674 63.9971 137.674 63.1439ZM143.93 66.1908L141.646 71.6549H140.402L141.891 66.1908H143.93ZM156 68.8924C155.062 68.8924 154.219 68.7299 153.471 68.4049C152.737 68.0663 152.159 67.606 151.738 67.0236C151.316 66.4279 151.099 65.7439 151.085 64.9721H153.064C153.131 65.6357 153.403 66.1975 153.879 66.658C154.369 67.1049 155.076 67.3283 156 67.3283C156.884 67.3283 157.578 67.1116 158.08 66.6783C158.597 66.2314 158.855 65.6627 158.855 64.9721C158.855 64.4304 158.706 63.9903 158.406 63.6518C158.108 63.3132 157.733 63.056 157.284 62.8799C156.836 62.7038 156.231 62.5143 155.47 62.3111C154.532 62.0674 153.777 61.8236 153.206 61.5799C152.649 61.3361 152.166 60.9569 151.758 60.4424C151.364 59.9143 151.167 59.21 151.167 58.3299C151.167 57.558 151.364 56.8741 151.758 56.2783C152.153 55.6825 152.703 55.2221 153.41 54.8971C154.131 54.5721 154.953 54.4096 155.878 54.4096C157.211 54.4096 158.298 54.7413 159.14 55.4049C159.997 56.0685 160.48 56.9486 160.588 58.0455H158.549C158.481 57.5038 158.196 57.0299 157.692 56.6236C157.19 56.2038 156.524 55.9939 155.694 55.9939C154.919 55.9939 154.287 56.1971 153.798 56.6033C153.308 56.996 153.064 57.5513 153.064 58.2689C153.064 58.7835 153.206 59.2033 153.492 59.5283C153.791 59.8533 154.151 60.1038 154.573 60.2799C155.008 60.4424 155.613 60.6319 156.388 60.8486C157.325 61.106 158.08 61.3632 158.651 61.6205C159.222 61.8643 159.711 62.2502 160.119 62.7783C160.527 63.2929 160.731 63.9971 160.731 64.8908C160.731 65.5814 160.547 66.2314 160.18 66.8408C159.813 67.4502 159.27 67.9444 158.549 68.3236C157.829 68.7029 156.978 68.8924 156 68.8924ZM164.421 55.8111C164.068 55.8111 163.768 55.6893 163.523 55.4455C163.279 55.2018 163.156 54.9038 163.156 54.5518C163.156 54.1997 163.279 53.9018 163.523 53.658C163.768 53.4143 164.068 53.2924 164.421 53.2924C164.761 53.2924 165.047 53.4143 165.277 53.658C165.522 53.9018 165.644 54.1997 165.644 54.5518C165.644 54.9038 165.522 55.2018 165.277 55.4455C165.047 55.6893 164.761 55.8111 164.421 55.8111ZM165.318 57.6189V68.7502H163.462V57.6189H165.318ZM181.92 57.4158C182.791 57.4158 183.566 57.5986 184.245 57.9643C184.926 58.3163 185.462 58.8513 185.856 59.5689C186.251 60.2866 186.447 61.16 186.447 62.1893V68.7502H184.612V62.4533C184.612 61.3429 184.334 60.4966 183.776 59.9143C183.233 59.3185 182.491 59.0205 181.553 59.0205C180.588 59.0205 179.819 59.3319 179.248 59.9549C178.677 60.5643 178.392 61.4513 178.392 62.6158V68.7502H176.556V62.4533C176.556 61.3429 176.279 60.4966 175.72 59.9143C175.178 59.3185 174.436 59.0205 173.497 59.0205C172.533 59.0205 171.764 59.3319 171.193 59.9549C170.622 60.5643 170.336 61.4513 170.336 62.6158V68.7502H168.481V57.6189H170.336V59.2236C170.703 58.6413 171.193 58.1944 171.805 57.883C172.431 57.5716 173.118 57.4158 173.865 57.4158C174.803 57.4158 175.632 57.6257 176.353 58.0455C177.074 58.4653 177.611 59.0814 177.964 59.8939C178.277 59.1085 178.794 58.4991 179.514 58.0658C180.235 57.6325 181.037 57.4158 181.92 57.4158ZM191.348 59.6705C191.715 59.0341 192.26 58.506 192.98 58.0861C193.714 57.6528 194.564 57.4361 195.529 57.4361C196.522 57.4361 197.419 57.6732 198.221 58.1471C199.037 58.621 199.675 59.2913 200.138 60.158C200.601 61.0111 200.831 62.0064 200.831 63.1439C200.831 64.2678 200.601 65.27 200.138 66.1502C199.675 67.0303 199.037 67.7143 198.221 68.2018C197.419 68.6893 196.522 68.933 195.529 68.933C194.577 68.933 193.734 68.7232 193 68.3033C192.28 67.87 191.729 67.335 191.348 66.6986V74.0314H189.492V57.6189H191.348V59.6705ZM198.935 63.1439C198.935 62.3044 198.765 61.5732 198.425 60.9502C198.084 60.3272 197.623 59.8533 197.038 59.5283C196.467 59.2033 195.835 59.0408 195.141 59.0408C194.462 59.0408 193.83 59.21 193.245 59.5486C192.674 59.8736 192.211 60.3544 191.858 60.9908C191.518 61.6138 191.348 62.3382 191.348 63.1643C191.348 64.0038 191.518 64.7419 191.858 65.3783C192.211 66.0013 192.674 66.4819 193.245 66.8205C193.83 67.1455 194.462 67.308 195.141 67.308C195.835 67.308 196.467 67.1455 197.038 66.8205C197.623 66.4819 198.084 66.0013 198.425 65.3783C198.765 64.7419 198.935 63.9971 198.935 63.1439ZM205.13 53.7189V68.7502H203.274V53.7189H205.13ZM209.251 55.8111C208.898 55.8111 208.598 55.6893 208.353 55.4455C208.109 55.2018 207.986 54.9038 207.986 54.5518C207.986 54.1997 208.109 53.9018 208.353 53.658C208.598 53.4143 208.898 53.2924 209.251 53.2924C209.591 53.2924 209.877 53.4143 210.107 53.658C210.352 53.9018 210.474 54.1997 210.474 54.5518C210.474 54.9038 210.352 55.2018 210.107 55.4455C209.877 55.6893 209.591 55.8111 209.251 55.8111ZM210.148 57.6189V68.7502H208.292V57.6189H210.148ZM217.86 59.1424H215.515V68.7502H213.659V59.1424H212.211V57.6189H213.659V56.8268C213.659 55.581 213.977 54.6736 214.617 54.1049C215.27 53.5225 216.31 53.2314 217.738 53.2314V54.7752C216.922 54.7752 216.343 54.9377 216.004 55.2627C215.678 55.5741 215.515 56.0955 215.515 56.8268V57.6189H217.86V59.1424ZM220.982 55.8111C220.629 55.8111 220.329 55.6893 220.085 55.4455C219.84 55.2018 219.718 54.9038 219.718 54.5518C219.718 54.1997 219.84 53.9018 220.085 53.658C220.329 53.4143 220.629 53.2924 220.982 53.2924C221.322 53.2924 221.608 53.4143 221.838 53.658C222.083 53.9018 222.206 54.1997 222.206 54.5518C222.206 54.9038 222.083 55.2018 221.838 55.4455C221.608 55.6893 221.322 55.8111 220.982 55.8111ZM221.879 57.6189V68.7502H220.023V57.6189H221.879ZM235.239 62.758C235.239 63.11 235.218 63.4825 235.178 63.8752H226.245C226.313 64.9721 226.687 65.8319 227.367 66.4549C228.06 67.0643 228.896 67.3689 229.875 67.3689C230.677 67.3689 231.343 67.1861 231.874 66.8205C232.418 66.4413 232.798 65.9404 233.016 65.3174H235.014C234.715 66.3872 234.117 67.2607 233.22 67.9377C232.322 68.6013 231.207 68.933 229.875 68.933C228.815 68.933 227.862 68.696 227.02 68.2221C226.19 67.7482 225.538 67.0778 225.062 66.2111C224.587 65.331 224.348 64.3153 224.348 63.1643C224.348 62.0132 224.579 61.0044 225.042 60.1377C225.505 59.271 226.149 58.6075 226.979 58.1471C227.822 57.6732 228.788 57.4361 229.875 57.4361C230.936 57.4361 231.874 57.6663 232.689 58.1268C233.505 58.5872 234.131 59.2236 234.566 60.0361C235.014 60.835 235.239 61.7424 235.239 62.758ZM233.322 62.3721C233.322 61.6678 233.165 61.0654 232.853 60.5643C232.54 60.0497 232.112 59.6638 231.568 59.4064C231.038 59.1357 230.446 59.0002 229.794 59.0002C228.855 59.0002 228.054 59.2982 227.387 59.8939C226.735 60.4897 226.361 61.3158 226.265 62.3721H233.322ZM236.996 63.1439C236.996 62.0064 237.226 61.0111 237.689 60.158C238.15 59.2913 238.783 58.621 239.586 58.1471C240.401 57.6732 241.311 57.4361 242.318 57.4361C243.188 57.4361 243.997 57.6393 244.745 58.0455C245.492 58.4382 246.063 58.9596 246.458 59.6096V53.7189H248.335V68.7502H246.458V66.658C246.091 67.3216 245.547 67.87 244.827 68.3033C244.105 68.7232 243.263 68.933 242.298 68.933C241.305 68.933 240.401 68.6893 239.586 68.2018C238.783 67.7143 238.15 67.0303 237.689 66.1502C237.226 65.27 236.996 64.2678 236.996 63.1439ZM246.458 63.1643C246.458 62.3247 246.287 61.5935 245.949 60.9705C245.608 60.3475 245.145 59.8736 244.562 59.5486C243.991 59.21 243.359 59.0408 242.665 59.0408C241.972 59.0408 241.34 59.2033 240.769 59.5283C240.198 59.8533 239.741 60.3272 239.402 60.9502C239.062 61.5732 238.892 62.3044 238.892 63.1439C238.892 63.9971 239.062 64.7419 239.402 65.3783C239.741 66.0013 240.198 66.4819 240.769 66.8205C241.34 67.1455 241.972 67.308 242.665 67.308C243.359 67.308 243.991 67.1455 244.562 66.8205C245.145 66.4819 245.608 66.0013 245.949 65.3783C246.287 64.7419 246.458 64.0038 246.458 63.1643Z" fill="white"/>
</g>
<defs>
<linearGradient id="paint0_linear_158_11" x1="35.7895" y1="69.1363" x2="1.39496" y2="36.1765" gradientUnits="userSpaceOnUse">
<stop stop-color="#F47D00"/>
<stop offset="1" stop-color="#F6C667"/>
</linearGradient>
<linearGradient id="paint1_linear_158_11" x1="5.86311" y1="37.633" x2="25.8443" y2="6.28197" gradientUnits="userSpaceOnUse">
<stop offset="0.237" stop-color="#FFCD69"/>
<stop offset="1" stop-color="#F47D00"/>
</linearGradient>
<linearGradient id="paint2_linear_158_11" x1="59.2653" y1="69.138" x2="75.993" y2="37.5495" gradientUnits="userSpaceOnUse">
<stop stop-color="#FFCC69"/>
<stop offset="1" stop-color="#F47F02"/>
</linearGradient>
<linearGradient id="paint3_linear_158_11" x1="76.1242" y1="37.8068" x2="59.0468" y2="5.85865" gradientUnits="userSpaceOnUse">
<stop offset="0.237" stop-color="#F5B853"/>
<stop offset="1" stop-color="#F48207"/>
</linearGradient>
<clipPath id="clip0_158_11">
<rect width="251" height="75" fill="white"/>
</clipPath>
</defs>
</svg>
