<?xml version="1.0" encoding="UTF-8"?>
<svg xmlns="http://www.w3.org/2000/svg" width="92" height="40" viewBox="0 0 92 40" fill="none">
  <path opacity="0.8" d="M34.5036 3.61281C36.4123 1.67879 38.9145 0.440956 41.6099 0.0974313C44.3054 -0.246093 47.0381 0.324549 49.3708 1.71803C50.1067 2.13438 50.7815 2.65047 51.3761 3.25164C50.7948 3.87336 50.183 4.43487 49.6215 5.01616C49.06 5.59744 48.4481 6.22903 47.8246 6.79055C46.8674 5.85072 45.6423 5.2308 44.3181 5.01616C42.958 4.80096 41.5647 4.98542 40.3075 5.54713C38.9108 6.18109 37.7446 7.23181 36.9689 8.55506C36.7281 9.00427 36.508 9.47774 36.3077 9.94852C34.8837 9.02583 33.581 7.89292 32.1875 6.86063C32.7451 5.64004 33.5313 4.53757 34.5036 3.61281Z" fill="#ADADAD"></path>
  <path opacity="0.6" d="M32.1926 6.80054C33.5762 7.83283 34.8879 8.92622 36.2831 9.98816C35.9807 10.9602 35.8717 11.9821 35.9624 12.9961C36.0226 13.5576 36.1825 14.1092 36.2831 14.66C35.2104 15.5018 34.108 16.3445 33.0353 17.216C32.7574 17.4275 32.4623 17.6153 32.1531 17.7775C31.4091 16.2878 30.9855 14.6587 30.9096 12.9952C30.8509 11.9003 30.9284 10.8024 31.1405 9.72671C31.3654 8.71508 31.7227 7.73753 32.2034 6.8194L32.1926 6.80054Z" fill="#ADADAD"></path>
  <path opacity="0.2" d="M43.263 10.0282H53.3685C53.7987 9.99319 54.2311 9.99319 54.6613 10.0282C55.0577 11.8723 55.0394 13.7813 54.6077 15.6174C54.1761 17.4535 53.3419 19.1707 52.1655 20.645C51.926 20.9834 51.627 21.2757 51.2832 21.5074C49.9302 20.5048 48.6562 19.4518 47.2735 18.4528C47.8759 18.0262 48.3843 17.4804 48.7671 16.8492C49.1499 16.218 49.399 15.515 49.4989 14.7836H43.183C43.1228 13.5402 43.183 12.277 43.183 11.0444C43.154 10.709 43.1743 10.3712 43.2432 10.0417L43.263 10.0282Z" fill="#ADADAD"></path>
  <path opacity="0.4" d="M33.0392 17.1529C34.1119 16.3012 35.2143 15.4585 36.287 14.5969C36.5476 15.0884 36.7183 15.5996 37.0291 16.1108C38.0047 17.7196 39.5574 18.8957 41.3703 19.399C42.6338 19.6897 43.9467 19.6897 45.2102 19.399C45.9463 19.1855 46.6509 18.8752 47.3053 18.4763C48.6386 19.479 49.9216 20.5616 51.3159 21.5445C50.9673 21.9369 50.5618 22.2749 50.1129 22.5471C48.6493 23.5148 46.9968 24.1606 45.2649 24.4418C43.533 24.723 41.7611 24.6332 40.0665 24.1783C38.3718 23.7234 36.7932 22.9138 35.4349 21.803C34.0766 20.6923 32.9697 19.3057 32.1875 17.7351C32.4923 17.5736 32.778 17.3783 33.0392 17.1529Z" fill="#ADADAD"></path>
  <path d="M48.2344 27.1901C49.4374 27.1398 50.6502 27.1398 51.8434 27.1901C52.3079 27.2109 52.7607 27.3428 53.1637 27.5748C53.5667 27.8068 53.9082 28.1321 54.1595 28.5233C54.5416 29.2022 54.6594 29.9983 54.4901 30.7586C54.4062 31.1283 54.2495 31.4775 54.0292 31.786C53.809 32.0945 53.5295 32.3561 53.2072 32.5555C52.1147 33.2374 50.8209 32.9149 49.6081 32.9966C49.4976 34.2598 49.6081 35.5428 49.6081 36.8059C49.1646 36.846 48.7183 36.846 48.2748 36.8059V27.1928M49.6224 28.526C49.5472 29.5675 49.5472 30.6129 49.6224 31.6544C50.4602 31.7045 51.3003 31.7045 52.138 31.6544C52.5474 31.4833 52.8733 31.1586 53.0458 30.7499C53.2183 30.3412 53.2237 29.8811 53.0607 29.4685C52.9628 29.2412 52.8194 29.0364 52.6394 28.8665C51.767 28.305 50.6341 28.6356 49.6314 28.5557M68.3789 29.8189C68.3404 29.223 68.3673 28.6247 68.4589 28.0346H69.7517V29.7793C70.2009 30.0201 70.7544 29.8395 71.306 29.9195V31.1629C70.7859 31.1474 70.2655 31.1811 69.7517 31.2635V35.0118C69.7333 35.1784 69.7718 35.3464 69.8611 35.4883C69.9503 35.6303 70.085 35.7378 70.2431 35.7934H71.4057C71.4422 36.2171 71.4082 36.644 71.3051 37.0566C70.6733 37.1139 70.0363 37.07 69.4184 36.9263C69.1519 36.8035 68.9205 36.6157 68.7453 36.3803C68.5702 36.1449 68.4568 35.8692 68.4157 35.5787C68.2756 34.125 68.4157 32.7037 68.3151 31.2662L67.122 31.0866V29.9276C67.5226 29.8987 67.9211 29.8449 68.3151 29.7668M55.6329 31.1306C55.9352 30.6684 56.3478 30.2889 56.8335 30.0262C57.3192 29.7635 57.8627 29.6259 58.4149 29.6259C58.9671 29.6259 59.5106 29.7635 59.9963 30.0262C60.482 30.2889 60.8946 30.6684 61.1969 31.1306C61.4245 31.8109 61.5098 32.5308 61.4475 33.2455V36.8086C61.1136 36.8268 60.7789 36.8268 60.4449 36.8086C60.3344 36.6586 60.2347 36.478 60.1143 36.3271C59.7494 36.6372 59.3191 36.8605 58.8555 36.9803C58.3919 37.1001 57.9073 37.1133 57.4379 37.0189C57.0936 36.9715 56.7642 36.8483 56.4734 36.6581C56.1826 36.4678 55.9377 36.2154 55.7564 35.919C55.5751 35.6225 55.4619 35.2895 55.425 34.944C55.3881 34.5985 55.4284 34.2491 55.5431 33.9211C55.776 33.4475 56.1372 33.0489 56.5856 32.7706C57.034 32.4923 57.5516 32.3455 58.0793 32.347C58.7988 32.3821 59.5154 32.4625 60.2248 32.5878C60.232 32.3732 60.1965 32.1592 60.1205 31.9583C60.0444 31.7575 59.9293 31.5737 59.7817 31.4176C59.6341 31.2615 59.4571 31.1362 59.2608 31.049C59.0645 30.9618 58.8529 30.9144 58.6382 30.9096C58.2562 30.8809 57.8731 30.9473 57.5231 31.103C57.1732 31.2587 56.8673 31.4988 56.6329 31.8017C56.2584 31.6314 55.9185 31.3935 55.6302 31.1M56.7227 34.7692C56.7971 35.0871 56.9872 35.3659 57.2559 35.5513C57.5247 35.7366 57.8528 35.8153 58.1764 35.7719C58.6655 35.7486 59.1292 35.5472 59.4801 35.2056C59.831 34.864 60.0447 34.4058 60.081 33.9175C59.498 33.5089 58.7787 33.3435 58.0757 33.4566C57.7291 33.4592 57.3975 33.5988 57.1533 33.8448C56.9091 34.0908 56.7721 34.4234 56.7721 34.7701M73.8216 30.4181C74.4064 29.9387 75.1322 29.6641 75.888 29.6365C76.5325 29.6095 77.1615 29.8391 77.637 30.2752C78.1124 30.7112 78.3955 31.318 78.4242 31.9625V36.7745C77.9759 36.8148 77.5249 36.8148 77.0766 36.7745C77.0164 35.2005 77.1565 33.63 76.9966 32.0524C76.9167 31.0497 75.6732 30.729 74.8611 31.0497C74.5029 31.2106 74.1998 31.4731 73.9895 31.8047C73.7792 32.1363 73.6708 32.5223 73.6778 32.9149V36.8086C73.2208 36.8487 72.7612 36.8487 72.3041 36.8086V29.897C72.7237 29.8469 73.1478 29.8469 73.5673 29.897C73.6471 30.0609 73.7109 30.2321 73.7578 30.4082M80.7754 30.2474C81.4425 29.7585 82.2655 29.5305 83.0891 29.6063C83.9127 29.6821 84.6802 30.0565 85.2469 30.6589C85.5906 31.0728 85.8425 31.555 85.9859 32.0735C86.1294 32.5921 86.161 33.1351 86.0788 33.6668H80.8167C80.7941 33.9745 80.8427 34.2833 80.9589 34.5691C81.0751 34.8549 81.2556 35.1101 81.4865 35.3147C81.7174 35.5194 81.9924 35.668 82.2901 35.749C82.5878 35.83 82.9002 35.8412 83.203 35.7817C83.9352 35.7817 84.3556 35.1403 84.8372 34.6892C85.242 34.7478 85.6288 34.8951 85.9701 35.1205C85.7733 35.5356 85.4958 35.9073 85.1539 36.2139C84.8119 36.5206 84.4122 36.7561 83.9782 36.9066C83.5443 37.0572 83.0846 37.1197 82.6262 37.0907C82.1678 37.0617 81.7197 36.9417 81.3082 36.7377C78.8716 35.6245 78.7027 31.8349 80.7772 30.2816M80.7772 32.4971C82.0404 32.5573 83.3233 32.5573 84.6072 32.4971C84.5566 32.0378 84.3298 31.6161 83.9745 31.3207C83.6193 31.0253 83.1633 30.8792 82.7025 30.9132C82.2576 30.9241 81.8289 31.0828 81.4841 31.3642C81.1393 31.6456 80.8978 32.0337 80.7979 32.4674M89.7192 29.7111C90.2167 29.5907 90.7357 29.5907 91.2331 29.7111C91.2683 30.1782 91.2683 30.6473 91.2331 31.1144C90.7243 31.0443 90.2083 31.0443 89.6995 31.1144C89.3461 31.2532 89.0435 31.4964 88.8321 31.8117C88.6206 32.127 88.5105 32.4993 88.5163 32.8789V36.7691C88.0628 36.8142 87.6059 36.8142 87.1524 36.7691V29.8575H88.2252C88.3333 30.0421 88.4534 30.2195 88.5845 30.3885C88.9439 30.1782 89.3167 29.9572 89.677 29.7668M63.8616 30.5987C64.3629 30.3292 64.8643 29.88 65.4159 29.88C65.7497 29.8577 66.0847 29.8577 66.4185 29.88V31.1432C65.8166 31.2438 65.0952 31.083 64.5938 31.534C64.4121 31.6815 64.2616 31.864 64.1515 32.0706C64.0413 32.2772 63.9736 32.5038 63.9524 32.737C63.902 34.1304 63.9524 35.5338 63.9524 36.9596C63.5176 36.9794 63.0821 36.9695 62.6487 36.9299C62.6086 34.6108 62.6086 32.3048 62.6487 30.012C63.0283 29.967 63.4119 29.967 63.7915 30.012C63.8235 30.1797 63.8704 30.3442 63.9317 30.5035L63.8616 30.5987Z" fill="#ADADAD"></path>
  <path d="M2.56997 27.9027C3.29254 27.3996 4.12843 27.0832 5.00304 26.9818C5.87765 26.8804 6.76376 26.9971 7.58229 27.3215C8.22664 27.5388 8.77192 27.9795 9.1195 28.564C8.84799 28.8774 8.54715 29.1641 8.22108 29.4202C7.77398 28.9926 7.25157 28.6514 6.68027 28.4139C5.94933 28.1888 5.16712 28.192 4.43801 28.423C3.7089 28.654 3.06758 29.1018 2.59962 29.7068C2.28075 30.1697 2.06429 30.6954 1.96467 31.2486C1.86505 31.8018 1.88457 32.37 2.02193 32.9151C2.21393 33.764 2.70379 34.5159 3.40266 35.0347C4.10153 35.5534 4.96314 35.8045 5.83126 35.7424C6.6076 35.7447 7.3565 35.4554 7.92969 34.9318C8.50288 34.4082 8.85857 33.6884 8.92634 32.9151C7.79343 32.8351 6.67039 32.9151 5.53747 32.9151C5.37823 32.5283 5.36767 32.0963 5.50783 31.7022C7.08187 31.5521 8.68556 31.642 10.2695 31.642C10.4038 32.3524 10.3714 33.0843 10.1748 33.7801C9.97821 34.4759 9.62281 35.1166 9.13657 35.6517C8.23565 36.5445 7.03292 37.0674 5.76551 37.1173C4.4981 37.1672 3.25798 36.7404 2.28966 35.9212C1.77801 35.4847 1.35735 34.9518 1.05168 34.3527C0.74602 33.7537 0.561344 33.1003 0.508201 32.4299C0.455058 31.7594 0.534489 31.0851 0.741957 30.4454C0.949426 29.8057 1.28087 29.2131 1.71736 28.7014C1.97157 28.411 2.24988 28.1427 2.54931 27.8991M35.1119 27.2271C35.5619 27.1471 36.0204 27.1269 36.4757 27.1669C36.5359 30.3545 36.4757 33.5458 36.4757 36.7307C36.0215 36.8325 35.5525 36.8496 35.0921 36.781V27.2505M13.8084 29.7796C14.3061 29.6554 14.8242 29.6359 15.3299 29.7222C15.8356 29.8085 16.3178 29.9987 16.7463 30.2809C17.532 30.845 18.0766 31.6842 18.2717 32.6316C18.4668 33.579 18.2981 34.5651 17.7992 35.3938C17.4679 35.9437 16.996 36.3953 16.432 36.702C15.8681 37.0087 15.2325 37.1594 14.5909 37.1386C13.7198 37.0846 12.8943 36.7302 12.255 36.1359C11.7636 35.634 11.418 35.0077 11.2555 34.3242C11.0929 33.6408 11.1195 32.926 11.3323 32.2565C11.4984 31.6613 11.817 31.1197 12.2566 30.6854C12.6963 30.2512 13.2417 29.9392 13.8389 29.7805M14.0186 31.1038C13.6237 31.2546 13.2809 31.5166 13.0318 31.8581C12.7828 32.1997 12.6381 32.6061 12.6153 33.0283C12.5368 33.4538 12.5695 33.8923 12.71 34.3015C12.8506 34.7107 13.0943 35.0767 13.4176 35.3642C13.6971 35.5808 14.0248 35.7267 14.3729 35.7895C14.7209 35.8522 15.0789 35.83 15.4165 35.7247C15.7541 35.6193 16.0613 35.434 16.3119 35.1845C16.5625 34.935 16.7491 34.6286 16.8559 34.2915C16.9982 33.8345 17.0214 33.3487 16.9231 32.8802C16.8248 32.4118 16.6084 31.9763 16.2943 31.615C16.0054 31.3184 15.6365 31.1121 15.2324 31.0213C14.8284 30.9306 14.4067 30.9592 14.0186 31.1038ZM21.6481 29.8002C22.5692 29.56 23.5472 29.6782 24.3847 30.1308C24.832 30.4009 25.2193 30.7596 25.5229 31.185C25.8264 31.6103 26.0397 32.0932 26.1496 32.6041C26.2595 33.1149 26.2637 33.6428 26.162 34.1553C26.0602 34.6679 25.8547 35.1542 25.558 35.5843C25.2261 36.0751 24.7775 36.4759 24.2525 36.7506C23.7276 37.0253 23.1426 37.1654 22.5501 37.1583C21.9918 37.1384 21.4453 36.9918 20.9521 36.7295C20.4588 36.4672 20.0317 36.0962 19.703 35.6445C19.139 34.7995 18.9168 33.772 19.0813 32.7695C19.1688 32.0769 19.4549 31.4245 19.9049 30.8908C20.3549 30.3571 20.9497 29.9649 21.6175 29.7616M21.9284 31.0445C20.1136 31.6061 19.8728 34.4127 21.3893 35.4352C21.774 35.6901 22.2296 35.8167 22.6907 35.7968C23.1518 35.777 23.5947 35.6117 23.9561 35.3246C24.4733 34.8589 24.7887 34.2101 24.8355 33.5157C24.8823 32.8213 24.6568 32.136 24.2068 31.6052C23.9179 31.3081 23.5515 31.0981 23.1493 30.9988C22.747 30.8995 22.325 30.9151 21.9311 31.0436M27.044 32.1963C27.212 31.4528 27.6345 30.7913 28.2386 30.3264C28.8427 29.8614 29.5903 29.6222 30.352 29.6502C31.0843 29.7094 31.7824 29.9852 32.3573 30.4426L32.5774 29.9116H33.7804V36.5789C33.8065 37.1342 33.6947 37.6874 33.455 38.189C33.2153 38.6907 32.8552 39.1252 32.4067 39.4538C31.5446 39.9361 30.5425 40.1062 29.5695 39.9354C29.0344 39.8578 28.5331 39.6272 28.1258 39.2715C27.7186 38.9157 27.4228 38.4499 27.274 37.9301C27.4188 37.7772 27.5928 37.655 27.7857 37.5705C27.9786 37.4861 28.1865 37.4413 28.397 37.4386C28.7196 37.8786 29.1167 38.2587 29.5704 38.5617C30.0178 38.7514 30.5164 38.7836 30.9845 38.6531C31.4526 38.5225 31.8625 38.2369 32.1471 37.8429C32.3999 37.3592 32.5046 36.8117 32.4481 36.2689C31.7573 36.8258 30.8988 37.1332 30.0115 37.1413C29.5461 37.1059 29.094 36.9692 28.6871 36.7405C28.2801 36.5119 27.9281 36.197 27.6558 35.8179C27.3095 35.2934 27.0802 34.7005 26.9833 34.0795C26.8864 33.4585 26.9243 32.8239 27.0943 32.2188M29.5686 31.1272C29.2257 31.3306 28.9323 31.6076 28.7094 31.9381C28.4864 32.2686 28.3396 32.6444 28.2794 33.0385C28.2193 33.4326 28.2473 33.8351 28.3615 34.2171C28.4757 34.5991 28.6731 34.9509 28.9397 35.2474C29.2459 35.5627 29.6473 35.7686 30.082 35.8336C30.5167 35.8985 30.9607 35.8188 31.3457 35.6068C31.6911 35.36 31.9737 35.0354 32.1705 34.6593C32.3673 34.2831 32.473 33.866 32.4788 33.4415C32.4847 33.017 32.3906 32.5971 32.2042 32.2157C32.0179 31.8342 31.7444 31.502 31.4059 31.2458C31.1241 31.1011 30.8147 31.0183 30.4983 31.0028C30.1819 30.9873 29.8659 31.0395 29.5713 31.1559M38.5879 30.6492C38.8982 30.3087 39.2807 30.042 39.7074 29.8685C40.1341 29.695 40.5943 29.6192 41.0541 29.6466C41.6222 29.6464 42.1801 29.7966 42.6714 30.0819C43.1626 30.3672 43.5696 30.7774 43.8509 31.2709C44.1909 31.9929 44.333 32.7922 44.2624 33.5871C42.5284 33.8072 40.7639 33.5871 39.0192 33.6877C38.9888 34.0149 39.0393 34.3446 39.1662 34.6478C39.2932 34.9509 39.4927 35.2182 39.7472 35.4261C40.0017 35.634 40.3034 35.7762 40.6258 35.8401C40.9481 35.9041 41.2812 35.8878 41.5958 35.7927C42.3146 35.7226 42.6982 35.1009 43.1295 34.6095L44.1923 35.1009C44.0264 35.5899 43.7324 36.0254 43.341 36.3621C42.9496 36.6988 42.4751 36.9245 41.9669 37.0155C41.4524 37.1458 40.9152 37.1594 40.3947 37.0553C39.8743 36.9511 39.3837 36.7318 38.959 36.4135C38.5292 36.0369 38.1826 35.575 37.941 35.0571C37.6994 34.5393 37.5682 33.9769 37.5556 33.4056C37.5648 32.371 37.9536 31.3757 38.6481 30.6088M40.1422 31.0904C39.8788 31.2371 39.6518 31.4413 39.4782 31.6878C39.3046 31.9344 39.1889 32.2169 39.1395 32.5144H42.9291C42.8496 32.0763 42.6481 31.6696 42.3478 31.341C42.0393 31.1195 41.6794 30.9802 41.3022 30.9364C40.9249 30.8925 40.5427 30.9455 40.1916 31.0904" fill="#ADADAD"></path>
</svg>
