<?xml version="1.0" encoding="UTF-8"?>
<svg xmlns="http://www.w3.org/2000/svg" width="125" height="40" viewBox="0 0 125 40" fill="none">
  <path d="M75.4043 18.0217C76.2532 18.0217 76.9414 17.3336 76.9414 16.4846C76.9414 15.6357 76.2532 14.9475 75.4043 14.9475C74.5554 14.9475 73.8672 15.6357 73.8672 16.4846C73.8672 17.3336 74.5554 18.0217 75.4043 18.0217Z" fill="#ADADAD"></path>
  <path d="M63.5059 18.1248C64.3548 18.1248 65.043 17.4366 65.043 16.5877C65.043 15.7387 64.3548 15.0505 63.5059 15.0505C62.6569 15.0505 61.9688 15.7387 61.9688 16.5877C61.9688 17.4366 62.6569 18.1248 63.5059 18.1248Z" fill="#ADADAD"></path>
  <path d="M82.1244 14.9646C81.8249 14.9644 81.5321 15.0531 81.2829 15.2194C81.0338 15.3857 80.8396 15.6221 80.7249 15.8988C80.6101 16.1755 80.58 16.4799 80.6384 16.7737C80.6967 17.0675 80.8409 17.3374 81.0526 17.5492C81.2643 17.7611 81.5341 17.9054 81.8279 17.9639C82.1216 18.0224 82.4261 17.9924 82.7029 17.8778C82.9796 17.7633 83.2161 17.5692 83.3825 17.3202C83.549 17.0711 83.6378 16.7783 83.6378 16.4788C83.6378 16.0774 83.4784 15.6923 83.1946 15.4084C82.9108 15.1244 82.5259 14.9648 82.1244 14.9646Z" fill="#ADADAD"></path>
  <path d="M64.3804 26.4369C64.3009 26.3495 64.2035 26.28 64.0949 26.2332C63.9783 26.1814 63.852 26.1552 63.7244 26.1563C63.5967 26.1546 63.4702 26.1808 63.3538 26.2332C63.2457 26.2797 63.1491 26.3492 63.0707 26.4369C62.9889 26.5252 62.926 26.6293 62.8859 26.7429C62.8416 26.8614 62.8194 26.987 62.8204 27.1134C62.8186 27.2453 62.8408 27.3764 62.8859 27.5004C62.926 27.6139 62.9889 27.718 63.0707 27.8063C63.1508 27.8928 63.2481 27.9616 63.3562 28.0084C63.4733 28.0583 63.5996 28.0829 63.7268 28.0804C63.854 28.0825 63.9802 28.0579 64.0974 28.0084C64.2057 27.9611 64.3034 27.8924 64.3845 27.8063C64.4651 27.717 64.5278 27.6132 64.5694 27.5004C64.6136 27.3762 64.6358 27.2453 64.6349 27.1134C64.6349 26.987 64.6128 26.8616 64.5694 26.7429C64.5266 26.6297 64.4625 26.5259 64.3804 26.4369Z" fill="#ADADAD"></path>
  <path d="M106.27 27.4365H107.088L106.679 26.373L106.27 27.4365Z" fill="#ADADAD"></path>
  <path d="M116.223 20.7763C116.12 20.674 116.038 20.5523 115.982 20.4182C115.927 20.2841 115.898 20.1403 115.898 19.9951C115.898 19.8499 115.927 19.7061 115.982 19.572C116.038 19.4379 116.12 19.3162 116.223 19.2138L124.567 6.86129C124.722 6.70664 124.828 6.50935 124.871 6.29451C124.913 6.07968 124.891 5.85699 124.807 5.65478C124.723 5.45256 124.58 5.27995 124.398 5.15888C124.215 5.03781 124.001 4.97376 123.782 4.97487H32.5619L38.0428 8.12436C38.5 8.39498 38.8792 8.77972 39.143 9.2409C39.4069 9.70208 39.5464 10.2239 39.548 10.7552V14.1092H40.1959C40.4627 14.1086 40.7269 14.1605 40.9736 14.2619C41.2203 14.3634 41.4446 14.5125 41.6336 14.7007C41.8227 14.8888 41.9729 15.1124 42.0755 15.3586C42.1782 15.6048 42.2314 15.8688 42.232 16.1355V23.5037C42.2314 23.7704 42.1782 24.0344 42.0755 24.2806C41.9729 24.5268 41.8227 24.7504 41.6336 24.9386C41.4446 25.1267 41.2203 25.2758 40.9736 25.3773C40.7269 25.4788 40.4627 25.5307 40.1959 25.53H39.548V29.2603C39.5477 29.7963 39.4051 30.3226 39.1348 30.7854C38.8644 31.2482 38.476 31.6309 38.0093 31.8944L32.5586 35.0259H123.781C124 35.027 124.214 34.963 124.397 34.8419C124.58 34.7209 124.722 34.5482 124.806 34.346C124.89 34.1438 124.912 33.9211 124.87 33.7063C124.827 33.4915 124.721 33.2942 124.566 33.1395L116.223 20.7763ZM85.9691 12.8993L87.3393 12.2899V13.8491H88.5811V15.0295H87.3385V17.3601C87.3385 17.887 87.5684 18.2314 88.3643 18.2314C88.5173 18.2314 88.6916 18.2199 88.8404 18.2109L88.505 19.438C88.3266 19.4697 88.1455 19.4839 87.9643 19.4805C87.7082 19.513 87.4481 19.4893 87.202 19.4112C86.9559 19.3331 86.7298 19.2024 86.5393 19.0281C86.3491 18.8547 86.1993 18.6417 86.1003 18.4041C86.0014 18.1665 85.9558 17.9101 85.9666 17.653L85.9691 12.8993ZM72.4655 16.5961C72.4443 16.2202 72.4986 15.8439 72.625 15.4893C72.7514 15.1347 72.9475 14.809 73.2018 14.5313C73.4571 14.2529 73.7651 14.028 74.1081 13.8696C74.451 13.7112 74.822 13.6224 75.1995 13.6086C75.9863 13.5933 76.7471 13.8907 77.3149 14.4356C77.595 14.7043 77.8191 15.0257 77.9745 15.3813C78.13 15.7369 78.2135 16.1197 78.2205 16.5077C78.2321 17.2654 77.9424 17.9967 77.415 18.5408C76.8876 19.0849 76.1657 19.3973 75.4081 19.4094C75.1133 19.4223 74.8192 19.3723 74.5452 19.2627C74.2713 19.1531 74.0239 18.9864 73.8194 18.7737V21.3342H72.4655V16.5961ZM54.6599 13.6511H56.0113V16.9667C56.0194 17.274 56.1472 17.5661 56.3674 17.7806C56.5877 17.9952 56.883 18.1152 57.1905 18.1152C57.498 18.1152 57.7933 17.9952 58.0136 17.7806C58.2338 17.5661 58.3616 17.274 58.3697 16.9667V13.6527H59.7162V16.9683C59.6994 17.6278 59.4257 18.2546 58.9533 18.7151C58.4809 19.1756 57.8473 19.4334 57.1876 19.4334C56.5279 19.4334 55.8943 19.1756 55.422 18.7151C54.9496 18.2546 54.6758 17.6278 54.659 16.9683L54.6599 13.6511ZM49.8293 28.0193C49.779 28.1194 49.7082 28.2078 49.6215 28.2787C49.5298 28.3479 49.4261 28.3995 49.3155 28.4308C49.195 28.4653 49.0703 28.4826 48.9449 28.4824C48.774 28.4824 48.6045 28.4508 48.4451 28.3891C48.2905 28.3315 48.153 28.2358 48.0451 28.111L48.3789 27.8017C48.4452 27.8925 48.5336 27.9649 48.6357 28.012C48.7342 28.0609 48.8424 28.0869 48.9523 28.0881C49.0074 28.0872 49.0623 28.0803 49.1159 28.0676C49.1704 28.0534 49.2221 28.0302 49.2689 27.9989C49.3133 27.9665 49.351 27.926 49.3802 27.8794C49.4107 27.8231 49.4254 27.7595 49.4227 27.6954C49.425 27.6347 49.4081 27.5749 49.3744 27.5244C49.3396 27.477 49.2956 27.4369 49.2452 27.4066C49.1869 27.371 49.1249 27.3419 49.0603 27.3199L48.8304 27.2438C48.7535 27.2176 48.6709 27.1882 48.5932 27.1555C48.5156 27.1212 48.4439 27.0751 48.3805 27.0189C48.3165 26.9602 48.2646 26.8896 48.2275 26.8111C48.1853 26.7153 48.1652 26.6113 48.1686 26.5068C48.1649 26.3873 48.1931 26.2689 48.2504 26.164C48.3046 26.0696 48.3792 25.9885 48.4689 25.9268C48.5615 25.8619 48.6651 25.8145 48.7748 25.7869C48.8889 25.756 49.0067 25.7406 49.1249 25.7411C49.2643 25.741 49.4026 25.7648 49.5339 25.8114C49.6667 25.8552 49.7886 25.9269 49.8914 26.0217L49.5855 26.3538C49.5299 26.2835 49.4584 26.2275 49.3769 26.1902C49.2418 26.1236 49.0873 26.108 48.9417 26.146C48.889 26.1576 48.8388 26.1786 48.7936 26.2082C48.7487 26.2356 48.7111 26.2735 48.684 26.3186C48.6538 26.3677 48.639 26.4247 48.6415 26.4822C48.6391 26.5354 48.6519 26.5881 48.6783 26.6344C48.7036 26.6771 48.7383 26.7134 48.7797 26.7407C48.8287 26.773 48.8818 26.7986 48.9376 26.8168C48.9989 26.8389 49.0668 26.861 49.1413 26.8831C49.2157 26.9052 49.3123 26.9403 49.4022 26.9755C49.4901 27.0091 49.5728 27.0551 49.6477 27.1121C49.7238 27.1696 49.7868 27.2427 49.8325 27.3264C49.8839 27.4253 49.9088 27.5358 49.9045 27.6471C49.9062 27.7743 49.8782 27.9 49.8227 28.0144L49.8293 28.0193ZM53.1833 27.6651C53.1159 27.8286 53.0157 27.9764 52.8888 28.0995C52.7595 28.2227 52.6072 28.3192 52.4405 28.3834C52.2596 28.4516 52.0677 28.4859 51.8744 28.4848C51.6846 28.4856 51.4962 28.4512 51.3189 28.3834C51.153 28.3197 51.0016 28.2231 50.8739 28.0995C50.7479 27.9762 50.6485 27.8284 50.5819 27.6651C50.4409 27.3037 50.4409 26.9025 50.5819 26.5411C50.6472 26.3786 50.7468 26.2321 50.8739 26.1116C51.0018 25.991 51.1533 25.8982 51.3189 25.8392C51.4968 25.7742 51.685 25.7417 51.8744 25.7435C52.0673 25.7414 52.259 25.7739 52.4405 25.8392C52.6069 25.8986 52.7595 25.9913 52.8888 26.1116C53.0168 26.2319 53.1172 26.3784 53.1833 26.5411C53.3242 26.9025 53.3242 27.3037 53.1833 27.6651ZM53.8132 19.4642H52.3873V16.322H49.381V19.4683H47.9551V11.7017H49.381V14.9534H52.3824V11.7017H53.8083L53.8132 19.4642ZM55.5442 28.4185H53.9596V25.8065H54.4267V28.0152H55.5376L55.5442 28.4185ZM58.0801 27.4606C58.0818 27.6065 58.0539 27.7512 57.9983 27.886C57.9463 28.0069 57.8709 28.1164 57.7766 28.2083C57.6801 28.298 57.5666 28.3675 57.4429 28.4128C57.3086 28.4613 57.1668 28.4854 57.024 28.484C56.8813 28.4858 56.7393 28.4616 56.6052 28.4128C56.4807 28.3679 56.3667 28.2984 56.2698 28.2083C56.1731 28.1184 56.0975 28.0084 56.0481 27.886C55.9942 27.7508 55.968 27.6061 55.9712 27.4606V25.8H56.4383V27.4312C56.4379 27.5082 56.4478 27.585 56.4677 27.6594C56.4858 27.7327 56.5193 27.8013 56.5659 27.8606C56.615 27.9228 56.6784 27.9722 56.7508 28.0046C56.929 28.0763 57.128 28.0763 57.3062 28.0046C57.378 27.9712 57.4412 27.922 57.4911 27.8606C57.5362 27.8003 57.5695 27.7321 57.5893 27.6594C57.6083 27.5848 57.6182 27.5082 57.6187 27.4312V25.8065H58.0858L58.0801 27.4606ZM60.6578 26.2147H59.8438V28.4235H59.3767V26.2147H58.5734V25.8057H60.6472L60.6578 26.2147ZM61.6525 28.4235H61.1854V25.8057H61.6525V28.4235ZM65.0393 27.67C64.9719 27.8335 64.8717 27.9813 64.7448 28.1044C64.6155 28.2277 64.4632 28.3241 64.2965 28.3883C64.1156 28.4565 63.9237 28.4908 63.7304 28.4897C63.5406 28.4905 63.3522 28.4561 63.1749 28.3883C63.009 28.3246 62.8576 28.228 62.7299 28.1044C62.6039 27.9811 62.5045 27.8333 62.4379 27.67C62.2969 27.3086 62.2969 26.9074 62.4379 26.546C62.5032 26.3835 62.6028 26.237 62.7299 26.1166C62.8578 25.9959 63.0093 25.9031 63.1749 25.8441C63.3528 25.7791 63.541 25.7467 63.7304 25.7484C63.9233 25.7464 64.115 25.7788 64.2965 25.8441C64.4629 25.9035 64.6155 25.9962 64.7448 26.1166C64.8728 26.2368 64.9732 26.3833 65.0393 26.546C65.1804 26.9077 65.1804 27.3084 65.0393 27.67ZM63.3124 19.4773C62.9343 19.4633 62.5627 19.3746 62.2191 19.2162C61.8755 19.0578 61.5668 18.8329 61.3106 18.5545C61.0555 18.2769 60.8583 17.9511 60.7308 17.5962C60.6032 17.2414 60.5478 16.8646 60.5678 16.4881V11.7491H61.9217V14.3072C62.1265 14.0951 62.3741 13.929 62.648 13.8199C62.9218 13.7107 63.2158 13.661 63.5103 13.674C64.268 13.6861 64.9899 13.9985 65.5173 14.5426C66.0446 15.0867 66.3344 15.818 66.3228 16.5756C66.3173 16.9636 66.2349 17.3466 66.0804 17.7026C65.926 18.0585 65.7025 18.3803 65.4229 18.6494C64.8561 19.1945 64.0961 19.4922 63.3099 19.4773H63.3124ZM68.1266 28.4226H67.5335L66.2901 26.4061V28.4218H65.8091V25.8041H66.4275L67.6456 27.7567V25.8065H68.1127L68.1266 28.4226ZM70.4989 28.0136C70.4487 28.1137 70.3779 28.2021 70.2912 28.2729C70.1995 28.3422 70.0957 28.3938 69.9852 28.4251C69.8647 28.4596 69.74 28.4769 69.6146 28.4766C69.4437 28.4767 69.2742 28.4451 69.1148 28.3834C68.9602 28.3257 68.8226 28.2301 68.7148 28.1052L69.0485 27.796C69.1149 27.8868 69.2033 27.9592 69.3054 28.0062C69.4038 28.0552 69.5121 28.0812 69.622 28.0823C69.6771 28.0814 69.732 28.0746 69.7856 28.0619C69.8401 28.0477 69.8918 28.0245 69.9386 27.9932C69.9829 27.9608 70.0207 27.9203 70.0498 27.8737C70.0804 27.8174 70.0951 27.7537 70.0924 27.6897C70.0947 27.629 70.0778 27.5692 70.0441 27.5187C70.0093 27.4712 69.9653 27.4312 69.9148 27.4009C69.8566 27.3653 69.7946 27.3362 69.73 27.3142L69.5001 27.2381C69.4232 27.2119 69.3406 27.1825 69.2629 27.1497C69.1854 27.1154 69.1136 27.0693 69.0502 27.0131C68.9862 26.9544 68.9343 26.8839 68.8972 26.8054C68.855 26.7096 68.8349 26.6056 68.8383 26.501C68.8346 26.3815 68.8628 26.2632 68.9201 26.1583C68.9745 26.0638 69.0494 25.9827 69.1393 25.921C69.2319 25.8562 69.3356 25.8087 69.4453 25.7812C69.5594 25.7503 69.6772 25.7349 69.7954 25.7353C69.9348 25.7353 70.0731 25.7591 70.2044 25.8057C70.3396 25.8521 70.463 25.9275 70.566 26.0266L70.2601 26.3587C70.2043 26.2886 70.1328 26.2326 70.0515 26.1951C69.9164 26.1286 69.7619 26.1129 69.6163 26.1509C69.5633 26.1624 69.5128 26.1834 69.4674 26.2131C69.4225 26.2405 69.3849 26.2784 69.3578 26.3235C69.3275 26.3726 69.3127 26.4296 69.3152 26.4871C69.3129 26.5403 69.3257 26.5931 69.352 26.6393C69.3773 26.682 69.412 26.7183 69.4535 26.7456C69.5024 26.778 69.5555 26.8035 69.6113 26.8217C69.6727 26.8438 69.7406 26.8659 69.815 26.888C69.8895 26.9101 69.986 26.9452 70.076 26.9804C70.1639 27.014 70.2465 27.06 70.3214 27.117C70.3976 27.1745 70.4606 27.2476 70.5063 27.3314C70.5577 27.4302 70.5825 27.5407 70.5783 27.652C70.5789 27.777 70.5509 27.9004 70.4965 28.0128L70.4989 28.0136ZM69.0993 19.4609C68.6471 19.462 68.2009 19.3578 67.7959 19.1567C67.391 18.9555 67.0384 18.6628 66.7662 18.3017L67.7478 17.2865C67.8967 17.5311 68.1061 17.7332 68.3559 17.8732C68.6057 18.0132 68.8874 18.0864 69.1737 18.0858C69.4113 18.0917 69.6422 18.0065 69.8188 17.8475C69.9955 17.6885 70.1045 17.4678 70.1235 17.2309C70.1235 15.7584 66.8938 16.5936 66.8938 13.9669C66.8918 13.646 66.9578 13.3283 67.0875 13.0348C67.2172 12.7413 67.4076 12.4786 67.6462 12.264C67.8848 12.0494 68.1662 11.8879 68.4718 11.7899C68.7774 11.692 69.1002 11.66 69.4191 11.696C69.8157 11.7074 70.2053 11.8035 70.5617 11.9779C70.9182 12.1523 71.2331 12.4009 71.4855 12.7071L70.6004 13.7444C70.272 13.3722 69.8185 13.1335 69.3258 13.0736C69.2013 13.057 69.0746 13.0684 68.955 13.1071C68.8354 13.1457 68.7259 13.2106 68.6346 13.2969C68.5436 13.3829 68.4731 13.4883 68.4284 13.6053C68.3836 13.7223 68.3658 13.8478 68.3761 13.9726C68.3761 15.2365 71.6058 14.3293 71.6058 17.2448C71.5979 17.5585 71.5253 17.8672 71.3925 18.1516C71.2598 18.4359 71.0698 18.6898 70.8343 18.8973C70.5982 19.1054 70.3219 19.263 70.0225 19.3602C69.7231 19.4574 69.4069 19.4923 69.0935 19.4625L69.0993 19.4609ZM74.1761 26.9223C74.1228 27.0179 74.0474 27.0993 73.956 27.1596C73.8553 27.2218 73.7446 27.2661 73.6288 27.2905C73.4996 27.3172 73.368 27.3307 73.2361 27.3305H72.877V28.4104H72.4181V25.8065H73.2738C73.4112 25.8046 73.5484 25.818 73.6828 25.8466C73.7945 25.8687 73.9004 25.9138 73.9936 25.9791C74.0785 26.0401 74.1471 26.121 74.1933 26.2147C74.2426 26.3232 74.2667 26.4416 74.2636 26.5608C74.2685 26.6898 74.2403 26.8179 74.1818 26.933L74.1761 26.9223ZM76.4903 28.4161L76.249 27.8271H75.1119L74.8747 28.4243H74.3528L75.4931 25.8016H75.8964L77.0229 28.4104L76.4903 28.4161ZM78.9191 28.4161L78.3113 27.3109H77.971V28.4218H77.5137V25.8041H78.4242C78.545 25.8038 78.6654 25.8167 78.7833 25.8425C78.892 25.8664 78.9956 25.9093 79.0893 25.9693C79.1783 26.0276 79.2525 26.1057 79.3061 26.1975C79.3632 26.3052 79.3913 26.4258 79.3879 26.5477C79.3941 26.7169 79.3356 26.8822 79.2243 27.0099C79.1072 27.1353 78.9539 27.221 78.7858 27.2553L79.486 28.412L78.9191 28.4161ZM81.8109 26.2074H81.0076V28.4161H80.5487V26.2147H79.7429V25.8057H81.8167L81.8109 26.2074ZM84.6479 28.4161H84.0581L82.8139 26.4004V28.421H82.3468V25.8032H82.9652L84.1833 27.7559V25.8065H84.6504L84.6479 28.4161ZM84.4671 18.2584C83.9906 18.8772 83.2888 19.2826 82.5147 19.3862C81.7405 19.4898 80.9568 19.2831 80.3344 18.8114L79.2488 19.9076C79.3068 20.1008 79.3023 20.3075 79.2361 20.4981C79.1699 20.6887 79.0453 20.8536 78.8799 20.9694C78.7146 21.0851 78.517 21.1457 78.3153 21.1427C78.1135 21.1397 77.9178 21.0731 77.756 20.9525C77.5943 20.8318 77.4746 20.6632 77.4142 20.4707C77.3537 20.2782 77.3555 20.0715 77.4193 19.88C77.483 19.6886 77.6055 19.5221 77.7694 19.4043C77.9332 19.2864 78.13 19.2232 78.3318 19.2237C78.4247 19.2253 78.517 19.2402 78.6058 19.2678L79.7167 18.1627C79.3756 17.6811 79.1886 17.1074 79.1804 16.5173C79.1722 15.9272 79.3433 15.3486 79.6709 14.8577L76.0322 12.0404C75.8091 12.1657 75.551 12.2144 75.2976 12.1789C75.0442 12.1435 74.8094 12.0258 74.6293 11.844C74.4496 11.663 74.335 11.4275 74.3034 11.1744C74.2717 10.9214 74.3247 10.6649 74.4542 10.4452C74.584 10.2253 74.7824 10.0542 75.019 9.95805C75.2555 9.8619 75.517 9.84605 75.7634 9.91295C76.0098 9.97984 76.2274 10.1258 76.3828 10.3283C76.5382 10.5309 76.6228 10.7789 76.6237 11.0342C76.6226 11.1327 76.6083 11.2307 76.5811 11.3254L80.2804 14.1886C80.6833 13.8684 81.1625 13.6584 81.671 13.5791V12.2416C81.495 12.1597 81.3457 12.0299 81.2402 11.8669C81.1347 11.704 81.0774 11.5146 81.0747 11.3205V11.2927C81.076 11.0191 81.1856 10.7573 81.3796 10.5644C81.5735 10.3715 81.836 10.2633 82.1095 10.2636H82.1406C82.414 10.2638 82.6762 10.3721 82.8701 10.5649C83.064 10.7577 83.1737 11.0193 83.1754 11.2927V11.3238C83.1728 11.5182 83.1152 11.7079 83.0092 11.8709C82.9033 12.0339 82.7533 12.1636 82.5766 12.2449V13.584C83.081 13.6597 83.5569 13.8656 83.9573 14.1814C84.3578 14.4972 84.669 14.9119 84.8602 15.3847C85.0514 15.8575 85.116 16.3719 85.0477 16.8773C84.9793 17.3827 84.7803 17.8615 84.4704 18.2665L84.4671 18.2584ZM87.2485 28.4226H85.4603V25.8049H87.1978V26.2139H85.9274V26.8773H87.1315V27.2798H85.9274V28.0161H87.2641L87.2485 28.4226ZM89.3411 28.4226L88.7333 27.3174H88.393V28.4226H87.9414V25.8049H88.8519C88.9726 25.8046 89.0931 25.8175 89.211 25.8433C89.3197 25.8672 89.4233 25.9102 89.517 25.9701C89.6059 26.0284 89.6801 26.1065 89.7337 26.1984C89.7908 26.306 89.819 26.4267 89.8156 26.5485C89.8217 26.7177 89.7632 26.883 89.6519 27.0107C89.5348 27.1361 89.3816 27.2218 89.2135 27.2561L89.9137 28.4128L89.3411 28.4226ZM93.3888 26.9346C93.3356 27.0302 93.2601 27.1116 93.1687 27.1718C93.0681 27.2341 92.9573 27.2784 92.8415 27.3027C92.7123 27.3295 92.5808 27.3429 92.4489 27.3428H92.1045V28.4226H91.6373V25.8049H92.493C92.6304 25.803 92.7676 25.8164 92.9021 25.845C93.0138 25.867 93.1197 25.9122 93.2129 25.9775C93.2979 26.0387 93.3664 26.1199 93.4125 26.2139C93.4619 26.3224 93.486 26.4407 93.4829 26.5599C93.4877 26.6889 93.4596 26.8171 93.4011 26.9321L93.3888 26.9346ZM95.5215 28.4226L94.9136 27.3174H94.5864V28.4226H94.1193V25.8049H95.0298C95.1506 25.8046 95.271 25.8175 95.3889 25.8433C95.4976 25.8672 95.6012 25.9101 95.6949 25.9701C95.7838 26.0284 95.858 26.1065 95.9117 26.1984C95.9687 26.306 95.9969 26.4267 95.9935 26.5485C95.9996 26.7177 95.9411 26.883 95.8299 27.0107C95.7128 27.1361 95.5595 27.2218 95.3914 27.2561L96.0916 28.4128L95.5215 28.4226ZM99.2452 27.6692C99.1779 27.8327 99.0776 27.9805 98.9507 28.1036C98.8212 28.2273 98.6682 28.3238 98.5008 28.3875C98.1372 28.5225 97.7371 28.5225 97.3735 28.3875C97.2086 28.3232 97.0581 28.2267 96.931 28.1036C96.8049 27.9803 96.7055 27.8325 96.6389 27.6692C96.498 27.3078 96.498 26.9066 96.6389 26.5452C96.7041 26.3826 96.8037 26.2361 96.931 26.1157C97.0582 25.9955 97.2089 25.9028 97.3735 25.8433C97.7385 25.7158 98.1359 25.7158 98.5008 25.8433C98.6678 25.9025 98.8209 25.9952 98.9507 26.1157C99.0787 26.236 99.1792 26.3825 99.2452 26.5452C99.3819 26.9077 99.3802 27.3079 99.2403 27.6692H99.2452ZM102.321 28.2868C102.181 28.3529 102.034 28.4039 101.883 28.439C101.7 28.4768 101.514 28.4946 101.327 28.4922C101.129 28.4942 100.932 28.4598 100.746 28.3907C100.577 28.3275 100.424 28.2309 100.294 28.1069C100.167 27.9838 100.067 27.8359 99.9995 27.6725C99.9282 27.4969 99.8924 27.309 99.8939 27.1195C99.8904 26.9255 99.9277 26.7329 100.004 26.5542C100.072 26.3911 100.174 26.2446 100.304 26.1247C100.434 26.0042 100.587 25.9115 100.754 25.8523C100.932 25.7876 101.12 25.7552 101.309 25.7566C101.504 25.7546 101.697 25.7853 101.882 25.8474C102.037 25.8959 102.18 25.9767 102.302 26.0846L101.98 26.4307C101.901 26.3505 101.806 26.2878 101.701 26.2466C101.577 26.1949 101.445 26.169 101.311 26.1705C101.183 26.1697 101.057 26.1956 100.94 26.2466C100.831 26.2922 100.733 26.3615 100.653 26.4495C100.571 26.5372 100.508 26.6408 100.468 26.7538C100.424 26.8715 100.402 26.9963 100.403 27.1219C100.401 27.2533 100.423 27.3839 100.468 27.5072C100.508 27.6202 100.571 27.7238 100.653 27.8116C100.735 27.8986 100.835 27.9672 100.945 28.0128C101.069 28.0623 101.202 28.0865 101.336 28.084C101.514 28.0874 101.692 28.056 101.858 27.9915V27.3281H101.303V26.9477H102.301L102.321 28.2868ZM104.524 28.4235L103.916 27.3183H103.576V28.4235H103.107V25.8057H104.019C104.139 25.8054 104.26 25.8183 104.378 25.8441C104.486 25.8676 104.59 25.9105 104.684 25.9709C104.773 26.0282 104.848 26.1066 104.9 26.1992C104.958 26.3065 104.987 26.4274 104.982 26.5493C104.988 26.7186 104.93 26.8838 104.819 27.0115C104.701 27.1369 104.548 27.2227 104.38 27.2569L105.08 28.4136L104.524 28.4235ZM107.486 28.4235L107.256 27.8345H106.127L105.889 28.4316H105.368L106.497 25.809H106.901L108.027 28.4161L107.486 28.4235ZM111.331 28.4235H110.872V26.3243L110.076 28.4202H109.749L108.958 26.3243V28.4202H108.513V25.8024H109.243L109.924 27.6553H109.936L110.606 25.8024H111.347L111.331 28.4235Z" fill="#ADADAD"></path>
  <path d="M73.6142 26.2775C73.5564 26.2483 73.4937 26.2303 73.4293 26.2243C73.3601 26.2153 73.2904 26.2109 73.2207 26.2112H72.8828V26.963H73.21C73.2834 26.963 73.3568 26.9573 73.4293 26.9458C73.4935 26.9357 73.5559 26.9158 73.6142 26.8869C73.6658 26.8589 73.7101 26.8191 73.7434 26.7707C73.776 26.7146 73.7926 26.6507 73.7917 26.5859C73.794 26.5208 73.7772 26.4566 73.7434 26.401C73.7121 26.349 73.6675 26.3064 73.6142 26.2775Z" fill="#ADADAD"></path>
  <path d="M78.8725 26.761C78.9067 26.7053 78.9248 26.6414 78.9249 26.5761C78.9294 26.5108 78.9125 26.4459 78.8766 26.3912C78.8444 26.3459 78.8025 26.3085 78.7539 26.2816C78.7016 26.2529 78.6445 26.2341 78.5854 26.2259C78.5243 26.2156 78.4624 26.2107 78.4005 26.2112H77.9727V26.9524H78.3555C78.4223 26.952 78.489 26.9471 78.5551 26.9377C78.6192 26.9284 78.6814 26.9096 78.74 26.882C78.7918 26.8528 78.8359 26.8116 78.8684 26.7618L78.8725 26.761Z" fill="#ADADAD"></path>
  <path d="M89.2926 26.761C89.3267 26.7053 89.3448 26.6413 89.3449 26.5761C89.3494 26.5108 89.3324 26.4459 89.2966 26.3912C89.2645 26.3459 89.2225 26.3085 89.1739 26.2816C89.1216 26.2529 89.0645 26.2341 89.0054 26.2259C88.9444 26.2156 88.8825 26.2107 88.8205 26.2112H88.3984V26.9524H88.7813C88.8481 26.952 88.9148 26.9471 88.9809 26.9377C89.0449 26.9284 89.1072 26.9096 89.1658 26.882C89.2171 26.8524 89.2606 26.8108 89.2926 26.761Z" fill="#ADADAD"></path>
  <path d="M52.532 26.4369C52.4524 26.3495 52.3551 26.28 52.2465 26.2332C52.1299 26.1814 52.0035 26.1552 51.8759 26.1563C51.7483 26.1546 51.6218 26.1808 51.5053 26.2332C51.3973 26.2796 51.3006 26.3492 51.2223 26.4369C51.1405 26.5252 51.0776 26.6294 51.0374 26.7429C50.9935 26.8614 50.9716 26.987 50.9728 27.1134C50.9708 27.2453 50.9927 27.3764 51.0374 27.5004C51.0776 27.6139 51.1405 27.718 51.2223 27.8063C51.3024 27.8928 51.3996 27.9616 51.5078 28.0084C51.6248 28.0583 51.7511 28.0829 51.8784 28.0804C52.0056 28.0825 52.1318 28.0579 52.2489 28.0084C52.3573 27.9611 52.455 27.8924 52.5361 27.8063C52.6166 27.717 52.6794 27.6132 52.721 27.5004C52.7651 27.3762 52.7873 27.2453 52.7864 27.1134C52.7865 26.987 52.7643 26.8616 52.721 26.7429C52.6781 26.6297 52.614 26.5259 52.532 26.4369Z" fill="#ADADAD"></path>
  <path d="M104.482 26.761C104.515 26.7051 104.532 26.6411 104.532 26.5761C104.537 26.5111 104.521 26.4462 104.486 26.3912C104.454 26.3453 104.411 26.3077 104.362 26.2816C104.31 26.2524 104.252 26.2335 104.193 26.2259C104.132 26.2156 104.07 26.2107 104.008 26.2112H103.582V26.9524H103.953C104.019 26.9522 104.086 26.9473 104.152 26.9377C104.217 26.9284 104.279 26.9097 104.338 26.882C104.396 26.8547 104.445 26.813 104.482 26.761Z" fill="#ADADAD"></path>
  <path d="M98.6029 26.4369C98.5246 26.3492 98.428 26.2796 98.3199 26.2332C98.2033 26.1814 98.0769 26.1552 97.9493 26.1563C97.8216 26.1546 97.6952 26.1808 97.5787 26.2332C97.4706 26.2796 97.374 26.3492 97.2957 26.4369C97.2144 26.5258 97.1514 26.6298 97.11 26.7429C97.0675 26.8618 97.0462 26.9872 97.047 27.1134C97.0453 27.2451 97.0666 27.3761 97.11 27.5004C97.1518 27.6133 97.2148 27.7171 97.2957 27.8063C97.3768 27.8924 97.4744 27.9611 97.5828 28.0084C97.6999 28.0583 97.8262 28.0829 97.9534 28.0804C98.0806 28.0825 98.2068 28.0579 98.324 28.0084C98.4321 27.9607 98.5297 27.892 98.6111 27.8063C98.6917 27.7171 98.7544 27.6132 98.796 27.5004C98.8399 27.3761 98.8618 27.2452 98.8606 27.1134C98.861 26.9871 98.8391 26.8616 98.796 26.7429C98.7523 26.6292 98.6868 26.5252 98.6029 26.4369Z" fill="#ADADAD"></path>
  <path d="M95.4784 26.761C95.5126 26.7053 95.5307 26.6413 95.5308 26.5761C95.5352 26.5108 95.5182 26.4459 95.4825 26.3912C95.4504 26.3459 95.4084 26.3084 95.3598 26.2816C95.3075 26.2529 95.2504 26.2341 95.1913 26.2259C95.1302 26.2156 95.0683 26.2107 95.0064 26.2112H94.5859V26.9524H94.9688C95.0356 26.9521 95.1023 26.9472 95.1684 26.9377C95.2324 26.9284 95.2947 26.9096 95.3533 26.882C95.4036 26.8523 95.4463 26.8111 95.4776 26.7618L95.4784 26.761Z" fill="#ADADAD"></path>
  <path d="M92.8329 26.2775C92.7751 26.2484 92.7124 26.2303 92.648 26.2243C92.5789 26.2153 92.5092 26.2109 92.4394 26.2112H92.1016V26.963H92.4288C92.5019 26.963 92.575 26.9572 92.6472 26.9458C92.7115 26.9357 92.7738 26.9159 92.8321 26.8869C92.8837 26.8589 92.9281 26.8191 92.9614 26.7707C92.9939 26.7146 93.0106 26.6507 93.0096 26.5859C93.0119 26.5208 92.9952 26.4566 92.9614 26.401C92.9303 26.3496 92.8863 26.3073 92.8337 26.2783L92.8329 26.2775Z" fill="#ADADAD"></path>
  <path d="M75.2734 27.4365H76.0915L75.6882 26.373L75.2734 27.4365Z" fill="#ADADAD"></path>
  <path d="M13.7201 13.2369H27.0543C27.092 13.2389 27.1298 13.2333 27.1653 13.2203C27.2008 13.2072 27.2332 13.1871 27.2607 13.1611C27.2881 13.1351 27.3099 13.1038 27.3249 13.0691C27.3398 13.0344 27.3475 12.997 27.3475 12.9592C27.3475 12.9214 27.3398 12.884 27.3249 12.8493C27.3099 12.8145 27.2881 12.7832 27.2607 12.7572C27.2332 12.7312 27.2008 12.7111 27.1653 12.6981C27.1298 12.6851 27.092 12.6794 27.0543 12.6814H21.4228L26.2943 9.86981C26.3278 9.85254 26.3574 9.82866 26.3813 9.79962C26.4053 9.77058 26.4231 9.73698 26.4337 9.70086C26.4443 9.66473 26.4474 9.62683 26.4429 9.58946C26.4384 9.55208 26.4264 9.51601 26.4076 9.48342C26.3887 9.45083 26.3635 9.4224 26.3333 9.39987C26.3031 9.37733 26.2687 9.36115 26.2321 9.3523C26.1956 9.34345 26.1575 9.34212 26.1204 9.3484C26.0833 9.35467 26.0479 9.36841 26.0162 9.38879L21.1439 12.2037L23.9563 7.32976C23.9767 7.29811 23.9905 7.26265 23.9967 7.22553C24.003 7.18841 24.0017 7.15041 23.9928 7.11382C23.984 7.07723 23.9678 7.04281 23.9453 7.01266C23.9227 6.98251 23.8943 6.95725 23.8617 6.9384C23.8291 6.91956 23.7931 6.90753 23.7557 6.90304C23.7183 6.89854 23.6804 6.90168 23.6443 6.91227C23.6082 6.92286 23.5746 6.94066 23.5455 6.96462C23.5165 6.98857 23.4926 7.01817 23.4753 7.05162L20.6629 11.9247V6.29492C20.6649 6.25719 20.6593 6.21942 20.6462 6.18395C20.6332 6.14847 20.6131 6.11602 20.5871 6.08858C20.5611 6.06114 20.5298 6.03928 20.4951 6.02435C20.4603 6.00941 20.4229 6.00171 20.3852 6.00171C20.3474 6.00171 20.31 6.00941 20.2752 6.02435C20.2405 6.03928 20.2092 6.06114 20.1832 6.08858C20.1572 6.11602 20.1371 6.14847 20.1241 6.18395C20.111 6.21942 20.1054 6.25719 20.1074 6.29492V11.9223L17.295 7.04835C17.2777 7.0149 17.2538 6.9853 17.2248 6.96134C17.1957 6.93739 17.1621 6.91958 17.126 6.909C17.0899 6.89841 17.052 6.89527 17.0146 6.89976C16.9772 6.90425 16.9412 6.91629 16.9086 6.93513C16.876 6.95398 16.8476 6.97924 16.825 7.00939C16.8025 7.03954 16.7863 7.07395 16.7775 7.11054C16.7686 7.14713 16.7673 7.18514 16.7736 7.22226C16.7798 7.25938 16.7936 7.29484 16.814 7.32649L19.6264 12.1996L14.7508 9.3847C14.7192 9.36432 14.6837 9.35058 14.6466 9.34431C14.6095 9.33803 14.5715 9.33936 14.5349 9.34821C14.4983 9.35705 14.4639 9.37324 14.4337 9.39578C14.4036 9.41831 14.3783 9.44674 14.3595 9.47933C14.3406 9.51192 14.3286 9.54799 14.3241 9.58537C14.3196 9.62274 14.3228 9.66064 14.3333 9.69676C14.3439 9.73289 14.3617 9.76649 14.3857 9.79553C14.4096 9.82457 14.4392 9.84845 14.4727 9.86571L19.345 12.6823H13.7201C13.649 12.6861 13.5822 12.7171 13.5332 12.7687C13.4843 12.8204 13.457 12.8888 13.457 12.96C13.457 13.0311 13.4843 13.0996 13.5332 13.1513C13.5822 13.2029 13.649 13.233 13.7201 13.2369Z" fill="#ADADAD"></path>
  <path d="M27.0547 26.756H13.7229C13.6852 26.754 13.6474 26.7596 13.6119 26.7727C13.5764 26.7857 13.544 26.8058 13.5166 26.8318C13.4891 26.8578 13.4673 26.8891 13.4523 26.9238C13.4374 26.9586 13.4297 26.996 13.4297 27.0338C13.4297 27.0716 13.4374 27.109 13.4523 27.1437C13.4673 27.1784 13.4891 27.2097 13.5166 27.2357C13.544 27.2617 13.5764 27.2818 13.6119 27.2948C13.6474 27.3079 13.6852 27.3135 13.7229 27.3115H19.3511L14.4788 30.1239C14.4264 30.1548 14.3856 30.2019 14.3625 30.2582C14.3394 30.3144 14.3355 30.3767 14.3511 30.4354C14.3668 30.4941 14.4013 30.5461 14.4493 30.5834C14.4973 30.6206 14.5562 30.6411 14.617 30.6418C14.6654 30.641 14.7129 30.6284 14.7553 30.605L19.6276 27.7901L16.8151 32.6632C16.7961 32.6948 16.7835 32.73 16.7783 32.7665C16.7731 32.8031 16.7753 32.8404 16.7848 32.8761C16.7942 32.9118 16.8108 32.9452 16.8334 32.9744C16.8561 33.0036 16.8843 33.028 16.9166 33.046C16.9587 33.0699 17.0063 33.0826 17.0548 33.0828C17.1036 33.0829 17.1516 33.0702 17.1939 33.0459C17.2363 33.0217 17.2715 32.9867 17.2961 32.9446L20.1086 28.0715V33.6972C20.1125 33.7682 20.1434 33.8351 20.1951 33.884C20.2467 33.933 20.3152 33.9603 20.3863 33.9603C20.4575 33.9603 20.5259 33.933 20.5776 33.884C20.6293 33.8351 20.6602 33.7682 20.6641 33.6972V28.0698L23.4765 32.9429C23.5012 32.985 23.5365 33.0199 23.5788 33.0442C23.6211 33.0684 23.6691 33.0812 23.7178 33.0812C23.7663 33.081 23.8139 33.0683 23.8561 33.0444C23.8881 33.0261 23.9161 33.0016 23.9386 32.9724C23.961 32.9432 23.9774 32.9098 23.9869 32.8742C23.9963 32.8386 23.9986 32.8014 23.9935 32.7649C23.9885 32.7284 23.9763 32.6933 23.9575 32.6615L21.1451 27.7884L26.0174 30.5992C26.0597 30.6227 26.1072 30.6353 26.1556 30.6361C26.2164 30.6354 26.2753 30.6149 26.3233 30.5776C26.3714 30.5404 26.4058 30.4884 26.4215 30.4297C26.4372 30.3709 26.4332 30.3087 26.4102 30.2524C26.3871 30.1962 26.3463 30.149 26.2939 30.1182L21.4216 27.3099H27.0506C27.1216 27.306 27.1885 27.2751 27.2374 27.2234C27.2864 27.1717 27.3136 27.1033 27.3136 27.0321C27.3136 26.961 27.2864 26.8925 27.2374 26.8409C27.1885 26.7892 27.1216 26.7583 27.0506 26.7544L27.0547 26.756Z" fill="#ADADAD"></path>
  <path d="M20.6163 19.8189C20.5567 19.7419 20.481 19.6788 20.3946 19.634C20.2943 19.5852 20.1838 19.5611 20.0723 19.5637C19.9613 19.5609 19.8512 19.5851 19.7516 19.634C19.664 19.6782 19.5875 19.7414 19.5274 19.8189C19.4685 19.8959 19.4239 19.9829 19.3957 20.0758C19.3665 20.1687 19.3516 20.2655 19.3516 20.3629C19.3517 20.4617 19.3666 20.5598 19.3957 20.6541C19.4234 20.7479 19.468 20.8358 19.5274 20.9135C19.5882 20.9903 19.6646 21.0533 19.7516 21.0983C19.8508 21.1488 19.961 21.1735 20.0723 21.1703C20.184 21.1733 20.2947 21.1485 20.3946 21.0983C20.4804 21.0527 20.5559 20.9897 20.6163 20.9135C20.6762 20.8359 20.7214 20.748 20.7496 20.6541C20.7773 20.5598 20.7916 20.4621 20.7922 20.3637C20.7918 20.2665 20.7774 20.1698 20.7496 20.0766C20.721 19.9834 20.6758 19.8961 20.6163 19.8189Z" fill="#ADADAD"></path>
  <path d="M25.104 19.8254C25.0399 19.7497 24.9618 19.6869 24.8741 19.6405C24.7797 19.5915 24.6746 19.5668 24.5682 19.5685C24.4585 19.566 24.3499 19.5902 24.2516 19.6389C24.1641 19.6831 24.0875 19.7462 24.0275 19.8238C23.9692 19.9012 23.9246 19.9881 23.8957 20.0806C23.8665 20.1735 23.8516 20.2704 23.8516 20.3678C23.8551 20.4642 23.8728 20.5595 23.9039 20.6508C23.9323 20.7443 23.9769 20.8321 24.0356 20.9101C24.0964 20.9869 24.1728 21.0499 24.2598 21.095C24.3576 21.1452 24.4665 21.17 24.5764 21.167C24.6825 21.1684 24.7874 21.1443 24.8823 21.0967C24.9706 21.0512 25.0488 20.9883 25.1122 20.9118C25.1768 20.8362 25.2265 20.749 25.2586 20.6549C25.2901 20.5624 25.3064 20.4655 25.3069 20.3678C25.3062 20.269 25.2899 20.171 25.2586 20.0774C25.2233 19.9845 25.1708 19.899 25.104 19.8254Z" fill="#ADADAD"></path>
  <path d="M40.1981 15.552H0.574987C0.427671 15.552 0.286389 15.6105 0.182221 15.7147C0.0780523 15.8189 0.0195313 15.9601 0.0195312 16.1075L0.0195313 23.5141C0.0195313 23.6614 0.0780523 23.8027 0.182221 23.9069C0.286389 24.011 0.427671 24.0695 0.574987 24.0695H40.1981C40.3454 24.0695 40.4867 24.011 40.5908 23.9069C40.695 23.8027 40.7535 23.6614 40.7535 23.5141V16.1075C40.7535 15.9601 40.695 15.8189 40.5908 15.7147C40.4867 15.6105 40.3454 15.552 40.1981 15.552ZM5.3434 20.0799C5.16105 20.1316 4.99497 20.2291 4.86094 20.3632C4.72692 20.4972 4.62942 20.6633 4.57771 20.8456C4.50899 21.091 4.4141 21.2424 4.31266 21.2424C4.21122 21.2424 4.11714 21.0894 4.04597 20.8456C3.99426 20.6633 3.89676 20.4972 3.76274 20.3632C3.62871 20.2291 3.46263 20.1316 3.28028 20.0799C3.03486 20.0112 2.88352 19.9163 2.88352 19.8149C2.88352 19.7134 3.0365 19.6193 3.28028 19.5498C3.46263 19.4981 3.62871 19.4006 3.76274 19.2666C3.89676 19.1326 3.99426 18.9665 4.04597 18.7841C4.11633 18.5387 4.20958 18.3874 4.31266 18.3874C4.41573 18.3874 4.50817 18.5403 4.57771 18.7841C4.63014 18.9656 4.72797 19.1306 4.86194 19.2638C4.99592 19.3969 5.16163 19.4936 5.3434 19.5449C5.58882 19.6136 5.74016 19.7085 5.74016 19.81C5.74016 19.9114 5.58718 20.0104 5.3434 20.0799ZM18.105 21.4297C17.9094 21.5224 17.7042 21.5932 17.4931 21.6407C17.2401 21.6944 16.9819 21.7202 16.7233 21.7176C16.4458 21.7209 16.1701 21.6726 15.9102 21.5753C15.6743 21.4872 15.4588 21.3519 15.277 21.1777C15.099 21.004 14.9585 20.7958 14.8639 20.5658C14.7637 20.3163 14.7139 20.0494 14.7174 19.7805C14.7135 19.5075 14.7655 19.2366 14.8704 18.9845C14.9669 18.7562 15.1102 18.5505 15.2909 18.3808C15.4727 18.2117 15.687 18.0815 15.9208 17.998C16.1736 17.9055 16.441 17.8595 16.7102 17.8622C16.9838 17.859 17.256 17.9022 17.5152 17.9898C17.7324 18.0587 17.9328 18.1724 18.1033 18.3236L17.6518 18.8062C17.5418 18.6914 17.4084 18.6016 17.2608 18.5428C17.0855 18.4671 16.8961 18.4297 16.7053 18.4332C16.5238 18.4297 16.3437 18.4648 16.1768 18.5363C16.024 18.6015 15.8871 18.6989 15.7752 18.8217C15.6637 18.9453 15.577 19.0892 15.5199 19.2455C15.458 19.415 15.4272 19.5943 15.4291 19.7748C15.4269 19.9595 15.4577 20.1432 15.5199 20.3171C15.5768 20.4757 15.665 20.6212 15.7793 20.745C15.8962 20.8688 16.0393 20.9649 16.1981 21.0264C16.3715 21.0969 16.5574 21.1314 16.7446 21.1278C16.9977 21.1342 17.2497 21.0903 17.4857 20.9986V20.0742H16.7004V19.5384H18.1058L18.105 21.4297ZM21.3101 20.9053C21.2419 21.0623 21.1438 21.2046 21.0213 21.3242C20.8967 21.4414 20.751 21.5338 20.5919 21.5966C20.4231 21.6621 20.2436 21.6954 20.0626 21.6947C19.8818 21.6957 19.7025 21.6624 19.5341 21.5966C19.3742 21.5339 19.2276 21.4415 19.1022 21.3242C18.9796 21.205 18.882 21.0626 18.815 20.9053C18.7442 20.7348 18.7078 20.5521 18.7078 20.3675C18.7078 20.1829 18.7442 20.0001 18.815 19.8296C18.8823 19.6754 18.98 19.5362 19.1022 19.4206C19.227 19.3043 19.3739 19.2142 19.5341 19.1555C19.7031 19.0924 19.8822 19.0611 20.0626 19.0631C20.2432 19.0614 20.4225 19.0927 20.5919 19.1555C20.7513 19.2143 20.8973 19.3044 21.0213 19.4206C21.1432 19.5368 21.2413 19.6758 21.3101 19.8296C21.4507 20.1744 21.4507 20.5605 21.3101 20.9053ZM22.6247 21.6219H22.0022V17.7018H22.6247V21.6219ZM25.8969 21.6219H25.3063V21.2538H25.2973C25.2135 21.3978 25.0884 21.5132 24.9382 21.5851C24.784 21.6611 24.6143 21.7003 24.4424 21.6996C24.2738 21.7033 24.1064 21.6702 23.9519 21.6027C23.7973 21.5352 23.6593 21.4348 23.5475 21.3086C23.4388 21.186 23.3554 21.0431 23.3021 20.8881C23.2454 20.722 23.2177 20.5474 23.2202 20.372C23.2183 20.1971 23.248 20.0234 23.3078 19.859C23.3633 19.7058 23.4484 19.5649 23.5581 19.4443C23.6648 19.3257 23.7952 19.2309 23.941 19.1661C24.0942 19.0983 24.2601 19.064 24.4277 19.0655C24.531 19.0641 24.634 19.0773 24.7336 19.1048C24.8159 19.1274 24.8955 19.159 24.9709 19.1989C25.0329 19.2339 25.0906 19.2762 25.1427 19.3248C25.1867 19.3641 25.2269 19.4074 25.2629 19.4541H25.276V17.7018H25.8985L25.8969 21.6219ZM37.568 20.0734C37.3857 20.1251 37.2196 20.2226 37.0856 20.3566C36.9515 20.4906 36.854 20.6567 36.8023 20.8391C36.732 21.0845 36.6387 21.2358 36.5356 21.2358C36.4326 21.2358 36.3401 21.0828 36.2706 20.8391C36.2189 20.6567 36.1214 20.4906 35.9874 20.3566C35.8533 20.2226 35.6873 20.1251 35.5049 20.0734C35.2595 20.003 35.1082 19.9098 35.1082 19.8067C35.1082 19.7036 35.2611 19.6112 35.5049 19.5416C35.6873 19.4899 35.8533 19.3924 35.9874 19.2584C36.1214 19.1244 36.2189 18.9583 36.2706 18.7759C36.3393 18.5305 36.4342 18.3792 36.5356 18.3792C36.6371 18.3792 36.7312 18.5322 36.8023 18.7759C36.854 18.9583 36.9515 19.1244 37.0856 19.2584C37.2196 19.3924 37.3857 19.4899 37.568 19.5416C37.8134 19.6104 37.9648 19.7052 37.9648 19.8067C37.9648 19.9081 37.8241 20.0022 37.5778 20.0734H37.568Z" fill="#ADADAD"></path>
  <path d="M5.75903 14.1474V11.627L20.385 3.18226L35.0166 11.627V14.1474H37.9788V10.7803C37.9765 10.5178 37.9062 10.2603 37.7747 10.0331C37.6432 9.8058 37.4551 9.61652 37.2286 9.4837L21.1523 0.206197C20.9228 0.0713453 20.6614 0.000244141 20.3952 0.000244141C20.129 0.000244141 19.8676 0.0713453 19.6381 0.206197L3.53803 9.4927C3.31258 9.62571 3.12568 9.81515 2.99572 10.0424C2.86576 10.2696 2.79723 10.5267 2.79688 10.7885V14.1474H5.75903Z" fill="#ADADAD"></path>
  <path d="M35.0166 25.3882V28.3659L20.385 36.8114L5.75903 28.3618V25.3882H2.79688V29.2101C2.79982 29.476 2.87197 29.7365 3.00624 29.966C3.1405 30.1956 3.33224 30.3861 3.56257 30.519L19.6242 39.7924C19.8563 39.9288 20.1206 40.0006 20.3899 40.0002C20.6504 39.9996 20.9062 39.9299 21.131 39.7981L37.2057 30.5182C37.439 30.3845 37.6329 30.1915 37.7677 29.9588C37.9024 29.7261 37.9733 29.4619 37.973 29.1929V25.3882H35.0166Z" fill="#ADADAD"></path>
</svg>
