<svg width="16" height="16" viewBox="0 0 16 16" fill="none" xmlns="http://www.w3.org/2000/svg">
<g clip-path="url(#clip0_65_3)">
<path d="M15.9846 4.70404C15.9471 3.85388 15.8096 3.26945 15.6126 2.76298C15.4095 2.2254 15.0969 1.74412 14.6875 1.34401C14.2873 0.937683 13.8029 0.621934 13.2715 0.421957C12.7622 0.225044 12.1807 0.0875171 11.3306 0.0500723C10.4741 0.00937683 10.2022 0 8.02988 0C5.85758 0 5.58569 0.00937683 4.73236 0.0468842C3.88223 0.0843915 3.29777 0.221981 2.79145 0.418769C2.25372 0.621934 1.77244 0.934495 1.37233 1.34401C0.966003 1.74409 0.650411 2.22856 0.450278 2.75991C0.253364 3.26945 0.115869 3.85075 0.0783926 4.70086C0.0377284 5.55737 0.0283203 5.82926 0.0283203 8.00156C0.0283203 10.1739 0.0377284 10.4458 0.0752045 11.2991C0.112712 12.1492 0.250301 12.7337 0.447246 13.2401C0.650411 13.7777 0.966003 14.259 1.37233 14.6591C1.77244 15.0654 2.25691 15.3812 2.78827 15.5812C3.29774 15.7781 3.87904 15.9156 4.72933 15.9531C5.5825 15.9907 5.85455 15.9999 8.02685 15.9999C10.1992 15.9999 10.471 15.9907 11.3244 15.9531C12.1745 15.9156 12.759 15.7781 13.2653 15.5812C13.7971 15.3756 14.28 15.0611 14.6832 14.658C15.0863 14.2548 15.4008 13.7719 15.6065 13.2401C15.8032 12.7306 15.9409 12.1492 15.9783 11.2991C16.0158 10.4458 16.0252 10.1739 16.0252 8.00156C16.0252 5.82926 16.022 5.55734 15.9846 4.70404ZM14.5437 11.2366C14.5093 12.018 14.3781 12.4399 14.2687 12.7212C13.9998 13.4182 13.4466 13.9715 12.7496 14.2403C12.4683 14.3497 12.0433 14.481 11.2649 14.5153C10.421 14.5529 10.1679 14.5622 8.03307 14.5622C5.89825 14.5622 5.64198 14.5529 4.8011 14.5153C4.01969 14.481 3.59774 14.3497 3.31643 14.2403C2.96958 14.1121 2.65386 13.909 2.39756 13.6433C2.13189 13.3839 1.92872 13.0713 1.80051 12.7244C1.69111 12.4431 1.55987 12.018 1.52558 11.2398C1.48795 10.3958 1.4787 10.1426 1.4787 8.00778C1.4787 5.87296 1.48795 5.61669 1.52558 4.77596C1.55987 3.99456 1.69111 3.5726 1.80051 3.2913C1.92872 2.94429 2.13189 2.62864 2.40075 2.37228C2.66005 2.1066 2.97261 1.90343 3.31962 1.77538C3.60092 1.66598 4.02607 1.53471 4.80428 1.50029C5.6482 1.46279 5.90144 1.45341 8.0361 1.45341C10.1741 1.45341 10.4272 1.46279 11.2681 1.50029C12.0495 1.53474 12.4714 1.66595 12.7527 1.77535C13.0996 1.90343 13.4153 2.1066 13.6716 2.37228C13.9373 2.63173 14.1405 2.94429 14.2687 3.2913C14.3781 3.5726 14.5093 3.99759 14.5437 4.77596C14.5812 5.61988 14.5906 5.87296 14.5906 8.00778C14.5906 10.1426 14.5813 10.3927 14.5437 11.2366Z" fill="white"/>
<path d="M8.0301 3.89156C5.76097 3.89156 3.91992 5.73249 3.91992 8.00174C3.91992 10.271 5.76097 12.1119 8.0301 12.1119C10.2993 12.1119 12.1403 10.271 12.1403 8.00174C12.1403 5.73249 10.2993 3.89156 8.0301 3.89156ZM8.0301 10.6679C6.558 10.6679 5.36389 9.47397 5.36389 8.00174C5.36389 6.52952 6.558 5.3356 8.03007 5.3356C9.50229 5.3356 10.6962 6.52952 10.6962 8.00174C10.6962 9.47397 9.50226 10.6679 8.0301 10.6679ZM13.2624 3.72903C13.2624 4.25895 12.8328 4.68859 12.3027 4.68859C11.7729 4.68859 11.3432 4.25895 11.3432 3.72903C11.3432 3.19905 11.7729 2.76953 12.3028 2.76953C12.8328 2.76953 13.2624 3.19902 13.2624 3.72903Z" fill="white"/>
</g>
<defs>
<clipPath id="clip0_65_3">
<rect width="16" height="16" fill="white"/>
</clipPath>
</defs>
</svg>
