<svg width="160" height="48" viewBox="0 0 160 48" fill="none" xmlns="http://www.w3.org/2000/svg">
<path d="M31.4289 44.2479L11.986 4.33984C11.9708 4.31411 11.961 4.28575 11.9571 4.2559C11.9531 4.22644 11.9551 4.1966 11.9629 4.16787C11.9707 4.13877 11.9844 4.11192 12.0027 4.08842C12.0211 4.06528 12.044 4.04552 12.07 4.03134C12.105 4.01082 12.1449 4 12.1854 4H23.5755L43.0154 43.9107C43.0308 43.9365 43.0405 43.9649 43.0446 43.9945C43.0486 44.024 43.0464 44.0541 43.0386 44.0829C43.0308 44.1116 43.0174 44.1385 42.9988 44.162C42.9805 44.1854 42.9574 44.2049 42.9313 44.2193C42.8967 44.239 42.8576 44.2493 42.8175 44.2492H31.4275L31.4289 44.2479Z" fill="url(#paint0_linear_136_6)"/>
<path d="M22.7815 42.8946L11.7889 24.123H0L11.4565 43.6817C11.5589 43.8535 11.7039 43.9959 11.8775 44.0949C12.051 44.1941 12.2472 44.2465 12.4469 44.2471H21.9892C22.1487 44.2469 22.3053 44.2056 22.4441 44.1269C22.583 44.0484 22.6992 43.9352 22.7815 43.7985C22.8618 43.6617 22.9041 43.5059 22.9041 43.3473C22.9041 43.1886 22.8618 43.0314 22.7815 42.8946Z" fill="url(#paint1_linear_136_6)"/>
<path d="M0 24.1219L11.5882 4.3392C11.6488 4.2355 11.7357 4.14971 11.84 4.09076C11.9444 4.03145 12.0625 4.00086 12.1824 4.00198H23.5724L11.7889 24.1219H0Z" fill="url(#paint2_linear_136_6)"/>
<path d="M31.4248 44.2482L43.211 24.123H54.9987L43.4756 43.797C43.3956 43.9338 43.2816 44.0475 43.1447 44.1266C43.0077 44.2058 42.8524 44.2478 42.6942 44.2482H31.4248Z" fill="url(#paint3_linear_136_6)"/>
<path d="M55.0007 24.123L43.5441 4.56308C43.4432 4.39074 43.2984 4.24786 43.1245 4.14901C42.9505 4.05052 42.7536 3.99978 42.5536 4.00202H33.0116C32.852 4.00202 32.6953 4.04306 32.5564 4.12177C32.4177 4.20048 32.3015 4.31351 32.2193 4.45041C32.1389 4.58732 32.0967 4.74288 32.0967 4.90184C32.0967 5.06032 32.1389 5.21626 32.2193 5.35281L43.2131 24.1244L55.0007 24.123Z" fill="url(#paint4_linear_136_6)"/>
<path d="M60.9902 28.6107C60.6985 28.6107 60.46 28.5199 60.2744 28.3382C60.0889 28.1567 59.9961 27.9231 59.9961 27.6376V9.3423C59.9961 9.05681 60.0889 8.82322 60.2744 8.64163C60.46 8.45996 60.6985 8.36913 60.9902 8.36913H65.563C65.8546 8.36913 66.0932 8.45996 66.2787 8.64163C66.4643 8.82322 66.5571 9.05681 66.5571 9.3423V10.8215C67.2463 10.017 68.1477 9.3423 69.261 8.7973C70.3744 8.25238 71.6866 7.97988 73.1976 7.97988C74.7351 7.97988 76.0871 8.31722 77.2535 8.99197C78.4464 9.66671 79.3743 10.6658 80.0369 11.9892C80.7262 13.2868 81.0708 14.8828 81.0708 16.7772V27.6376C81.0708 27.9231 80.9648 28.1567 80.7527 28.3382C80.5672 28.5199 80.3418 28.6107 80.0767 28.6107H75.0665C74.8014 28.6107 74.5629 28.5199 74.3508 28.3382C74.1652 28.1567 74.0724 27.9231 74.0724 27.6376V17.0108C74.0724 15.791 73.7676 14.8568 73.1578 14.2081C72.5747 13.5333 71.6999 13.196 70.5334 13.196C69.4465 13.196 68.5718 13.5333 67.909 14.2081C67.2729 14.8568 66.9547 15.791 66.9547 17.0108V27.6376C66.9547 27.9231 66.8487 28.1567 66.6366 28.3382C66.4511 28.5199 66.2257 28.6107 65.9607 28.6107H60.9902ZM95.0516 29C91.9234 29 89.4318 28.1696 87.5762 26.5087C85.7205 24.8479 84.753 22.3825 84.6735 19.1128C84.6735 18.9311 84.6735 18.6976 84.6735 18.4121C84.6735 18.1266 84.6735 17.906 84.6735 17.7503C84.753 15.7003 85.2169 13.9486 86.0652 12.4953C86.94 11.0161 88.1329 9.90022 89.6439 9.14764C91.1814 8.36913 92.9706 7.97988 95.0117 7.97988C97.3448 7.97988 99.2663 8.43397 100.778 9.3423C102.315 10.2506 103.468 11.4832 104.237 13.0402C105.006 14.5973 105.391 16.3749 105.391 18.3732V19.3074C105.391 19.5929 105.284 19.8264 105.072 20.008C104.887 20.1897 104.661 20.2805 104.396 20.2805H91.6721C91.6721 20.3065 91.6721 20.3454 91.6721 20.3974C91.6721 20.4493 91.6721 20.5011 91.6721 20.553C91.6987 21.3056 91.831 21.9933 92.0697 22.6161C92.3084 23.239 92.6794 23.732 93.1827 24.0953C93.6867 24.4586 94.2964 24.6403 95.0117 24.6403C95.5424 24.6403 95.9799 24.5625 96.3242 24.4067C96.6952 24.2251 97.0004 24.0305 97.2384 23.8228C97.4771 23.5893 97.6626 23.3946 97.7956 23.239C98.0343 22.9795 98.2191 22.8238 98.3521 22.7718C98.511 22.694 98.7497 22.655 99.0675 22.655H103.998C104.264 22.655 104.476 22.7329 104.635 22.8886C104.82 23.0184 104.9 23.213 104.873 23.4725C104.847 23.9137 104.621 24.4456 104.197 25.0685C103.774 25.6913 103.15 26.3141 102.329 26.9369C101.533 27.5338 100.526 28.0268 99.3062 28.4162C98.0875 28.8054 96.6686 29 95.0516 29ZM91.6721 16.4268H98.392V16.349C98.392 15.5185 98.259 14.7919 97.9944 14.1692C97.7557 13.5463 97.3714 13.0662 96.8408 12.7288C96.3375 12.3916 95.7279 12.2228 95.0117 12.2228C94.2964 12.2228 93.6867 12.3916 93.1827 12.7288C92.706 13.0662 92.3343 13.5463 92.0697 14.1692C91.8044 14.7919 91.6721 15.5185 91.6721 16.349V16.4268ZM118.901 29C116.674 29 114.791 28.6497 113.254 27.949C111.743 27.2483 110.576 26.2492 109.754 24.9517C108.959 23.6282 108.508 22.0581 108.403 20.2416C108.375 19.7226 108.363 19.1387 108.363 18.4899C108.363 17.8152 108.375 17.2313 108.403 16.7383C108.508 14.8958 108.986 13.3257 109.834 12.0282C110.682 10.7306 111.862 9.73155 113.373 9.03088C114.911 8.33021 116.753 7.97988 118.901 7.97988C121.074 7.97988 122.916 8.33021 124.428 9.03088C125.965 9.73155 127.158 10.7306 128.006 12.0282C128.854 13.3257 129.331 14.8958 129.438 16.7383C129.464 17.2313 129.477 17.8152 129.477 18.4899C129.477 19.1387 129.464 19.7226 129.438 20.2416C129.331 22.0581 128.868 23.6282 128.046 24.9517C127.251 26.2492 126.084 27.2483 124.547 27.949C123.035 28.6497 121.153 29 118.901 29ZM118.901 24.251C120.093 24.251 120.954 23.9007 121.485 23.2C122.041 22.4994 122.36 21.4484 122.439 20.047C122.466 19.6577 122.479 19.1387 122.479 18.4899C122.479 17.8412 122.466 17.3222 122.439 16.9329C122.36 15.5575 122.041 14.5195 121.485 13.8188C120.954 13.0922 120.093 12.7288 118.901 12.7288C117.734 12.7288 116.873 13.0922 116.316 13.8188C115.759 14.5195 115.454 15.5575 115.401 16.9329C115.374 17.3222 115.361 17.8412 115.361 18.4899C115.361 19.1387 115.374 19.6577 115.401 20.047C115.454 21.4484 115.759 22.4994 116.316 23.2C116.873 23.9007 117.734 24.251 118.901 24.251ZM134.382 28.6107C134.09 28.6107 133.852 28.5199 133.666 28.3382C133.481 28.1567 133.388 27.9231 133.388 27.6376V9.3423C133.388 9.05681 133.481 8.82322 133.666 8.64163C133.852 8.45996 134.09 8.36913 134.382 8.36913H139.074C139.339 8.36913 139.564 8.45996 139.75 8.64163C139.962 8.82322 140.068 9.05681 140.068 9.3423V27.6376C140.068 27.9231 139.962 28.1567 139.75 28.3382C139.564 28.5199 139.339 28.6107 139.074 28.6107H134.382ZM134.342 5.44969C134.051 5.44969 133.812 5.35879 133.626 5.17719C133.441 4.99553 133.348 4.76202 133.348 4.47652V1.01209C133.348 0.726592 133.441 0.493011 133.626 0.311417C133.812 0.103758 134.051 0 134.342 0H139.074C139.366 0 139.604 0.103758 139.79 0.311417C140.002 0.493011 140.108 0.726592 140.108 1.01209V4.47652C140.108 4.76202 140.002 4.99553 139.79 5.17719C139.604 5.35879 139.366 5.44969 139.074 5.44969H134.342ZM155.304 28.6107C153.607 28.6107 152.137 28.3512 150.89 27.8322C149.671 27.2872 148.73 26.4568 148.067 25.341C147.405 24.1991 147.073 22.7329 147.073 20.9423V13.4685H143.971C143.679 13.4685 143.428 13.3776 143.216 13.196C143.03 13.0143 142.937 12.7808 142.937 12.4953V9.3423C142.937 9.05681 143.03 8.82322 143.216 8.64163C143.428 8.45996 143.679 8.36913 143.971 8.36913H147.073V1.94627C147.073 1.66084 147.166 1.42726 147.351 1.2456C147.564 1.064 147.802 0.97317 148.067 0.97317H152.68C152.972 0.97317 153.21 1.064 153.395 1.2456C153.581 1.42726 153.674 1.66084 153.674 1.94627V8.36913H158.644C158.936 8.36913 159.174 8.45996 159.36 8.64163C159.545 8.82322 159.638 9.05681 159.638 9.3423V12.4953C159.638 12.7808 159.545 13.0143 159.36 13.196C159.174 13.3776 158.936 13.4685 158.644 13.4685H153.674V20.3974C153.674 21.2796 153.846 21.9803 154.19 22.4994C154.535 23.0184 155.119 23.2779 155.94 23.2779H159.002C159.294 23.2779 159.533 23.3687 159.717 23.5504C159.903 23.732 159.996 23.9656 159.996 24.251V27.6376C159.996 27.9231 159.903 28.1567 159.717 28.3382C159.533 28.5199 159.294 28.6107 159.002 28.6107H155.304Z" fill="#2E2E2E"/>
<path d="M72.3851 34.939L69.7591 44H68.4331L66.3271 36.707L64.1431 44L62.8301 44.013L60.2951 34.939H61.5561L63.5321 42.622L65.7161 34.939H67.0421L69.1221 42.596L71.1111 34.939H72.3851ZM80.1797 40.165C80.1797 40.3903 80.1667 40.6287 80.1407 40.88H74.4467C74.49 41.582 74.7284 42.1323 75.1617 42.531C75.6037 42.921 76.1367 43.116 76.7607 43.116C77.272 43.116 77.6967 42.999 78.0347 42.765C78.3814 42.5223 78.624 42.2017 78.7627 41.803H80.0367C79.846 42.4877 79.4647 43.0467 78.8927 43.48C78.3207 43.9047 77.61 44.117 76.7607 44.117C76.0847 44.117 75.478 43.9653 74.9407 43.662C74.412 43.3587 73.996 42.9297 73.6927 42.375C73.3894 41.8117 73.2377 41.1617 73.2377 40.425C73.2377 39.6883 73.385 39.0427 73.6797 38.488C73.9744 37.9333 74.386 37.5087 74.9147 37.214C75.452 36.9107 76.0674 36.759 76.7607 36.759C77.4367 36.759 78.0347 36.9063 78.5547 37.201C79.0747 37.4957 79.4734 37.903 79.7507 38.423C80.0367 38.9343 80.1797 39.515 80.1797 40.165ZM78.9577 39.918C78.9577 39.4673 78.858 39.0817 78.6587 38.761C78.4594 38.4317 78.1864 38.1847 77.8397 38.02C77.5017 37.8467 77.1247 37.76 76.7087 37.76C76.1107 37.76 75.5994 37.9507 75.1747 38.332C74.7587 38.7133 74.5204 39.242 74.4597 39.918H78.9577ZM82.9242 38.202C83.1669 37.7773 83.5222 37.4307 83.9902 37.162C84.4582 36.8933 84.9912 36.759 85.5892 36.759C86.2306 36.759 86.8069 36.9107 87.3182 37.214C87.8296 37.5173 88.2326 37.9463 88.5272 38.501C88.8219 39.047 88.9692 39.684 88.9692 40.412C88.9692 41.1313 88.8219 41.7727 88.5272 42.336C88.2326 42.8993 87.8252 43.337 87.3052 43.649C86.7939 43.961 86.2219 44.117 85.5892 44.117C84.9739 44.117 84.4322 43.9827 83.9642 43.714C83.5049 43.4453 83.1582 43.103 82.9242 42.687V44H81.7412V34.38H82.9242V38.202ZM87.7602 40.412C87.7602 39.8747 87.6519 39.4067 87.4352 39.008C87.2186 38.6093 86.9239 38.306 86.5512 38.098C86.1872 37.89 85.7842 37.786 85.3422 37.786C84.9089 37.786 84.5059 37.8943 84.1332 38.111C83.7692 38.319 83.4746 38.6267 83.2492 39.034C83.0326 39.4327 82.9242 39.8963 82.9242 40.425C82.9242 40.9623 83.0326 41.4347 83.2492 41.842C83.4746 42.2407 83.7692 42.5483 84.1332 42.765C84.5059 42.973 84.9089 43.077 85.3422 43.077C85.7842 43.077 86.1872 42.973 86.5512 42.765C86.9239 42.5483 87.2186 42.2407 87.4352 41.842C87.6519 41.4347 87.7602 40.958 87.7602 40.412ZM91.7484 42.362L90.2924 45.859H89.4994L90.4484 42.362H91.7484ZM99.4424 44.091C98.8444 44.091 98.307 43.987 97.8304 43.779C97.3624 43.5623 96.994 43.2677 96.7254 42.895C96.4567 42.5137 96.318 42.076 96.3094 41.582H97.5704C97.6137 42.0067 97.787 42.3663 98.0904 42.661C98.4024 42.947 98.853 43.09 99.4424 43.09C100.006 43.09 100.448 42.9513 100.768 42.674C101.098 42.388 101.262 42.024 101.262 41.582C101.262 41.2353 101.167 40.9537 100.976 40.737C100.786 40.5203 100.547 40.3557 100.261 40.243C99.9754 40.1303 99.5897 40.009 99.1044 39.879C98.5064 39.723 98.0254 39.567 97.6614 39.411C97.306 39.255 96.9984 39.0123 96.7384 38.683C96.487 38.345 96.3614 37.8943 96.3614 37.331C96.3614 36.837 96.487 36.3993 96.7384 36.018C96.9897 35.6367 97.3407 35.342 97.7914 35.134C98.2507 34.926 98.775 34.822 99.3644 34.822C100.214 34.822 100.907 35.0343 101.444 35.459C101.99 35.8837 102.298 36.447 102.367 37.149H101.067C101.024 36.8023 100.842 36.499 100.521 36.239C100.201 35.9703 99.776 35.836 99.2474 35.836C98.7534 35.836 98.3504 35.966 98.0384 36.226C97.7264 36.4773 97.5704 36.8327 97.5704 37.292C97.5704 37.6213 97.6614 37.89 97.8434 38.098C98.034 38.306 98.2637 38.4663 98.5324 38.579C98.8097 38.683 99.1954 38.8043 99.6894 38.943C100.287 39.1077 100.768 39.2723 101.132 39.437C101.496 39.593 101.808 39.84 102.068 40.178C102.328 40.5073 102.458 40.958 102.458 41.53C102.458 41.972 102.341 42.388 102.107 42.778C101.873 43.168 101.527 43.4843 101.067 43.727C100.608 43.9697 100.066 44.091 99.4424 44.091ZM104.81 35.719C104.585 35.719 104.394 35.641 104.238 35.485C104.082 35.329 104.004 35.1383 104.004 34.913C104.004 34.6877 104.082 34.497 104.238 34.341C104.394 34.185 104.585 34.107 104.81 34.107C105.027 34.107 105.209 34.185 105.356 34.341C105.512 34.497 105.59 34.6877 105.59 34.913C105.59 35.1383 105.512 35.329 105.356 35.485C105.209 35.641 105.027 35.719 104.81 35.719ZM105.382 36.876V44H104.199V36.876H105.382ZM115.965 36.746C116.52 36.746 117.014 36.863 117.447 37.097C117.881 37.3223 118.223 37.6647 118.474 38.124C118.726 38.5833 118.851 39.1423 118.851 39.801V44H117.681V39.97C117.681 39.2593 117.504 38.7177 117.148 38.345C116.802 37.9637 116.329 37.773 115.731 37.773C115.116 37.773 114.626 37.9723 114.262 38.371C113.898 38.761 113.716 39.3287 113.716 40.074V44H112.546V39.97C112.546 39.2593 112.369 38.7177 112.013 38.345C111.667 37.9637 111.194 37.773 110.596 37.773C109.981 37.773 109.491 37.9723 109.127 38.371C108.763 38.761 108.581 39.3287 108.581 40.074V44H107.398V36.876H108.581V37.903C108.815 37.5303 109.127 37.2443 109.517 37.045C109.916 36.8457 110.354 36.746 110.83 36.746C111.428 36.746 111.957 36.8803 112.416 37.149C112.876 37.4177 113.218 37.812 113.443 38.332C113.643 37.8293 113.972 37.4393 114.431 37.162C114.891 36.8847 115.402 36.746 115.965 36.746ZM121.975 38.189C122.209 37.7817 122.556 37.4437 123.015 37.175C123.483 36.8977 124.025 36.759 124.64 36.759C125.273 36.759 125.845 36.9107 126.356 37.214C126.876 37.5173 127.283 37.9463 127.578 38.501C127.873 39.047 128.02 39.684 128.02 40.412C128.02 41.1313 127.873 41.7727 127.578 42.336C127.283 42.8993 126.876 43.337 126.356 43.649C125.845 43.961 125.273 44.117 124.64 44.117C124.033 44.117 123.496 43.9827 123.028 43.714C122.569 43.4367 122.218 43.0943 121.975 42.687V47.38H120.792V36.876H121.975V38.189ZM126.811 40.412C126.811 39.8747 126.703 39.4067 126.486 39.008C126.269 38.6093 125.975 38.306 125.602 38.098C125.238 37.89 124.835 37.786 124.393 37.786C123.96 37.786 123.557 37.8943 123.184 38.111C122.82 38.319 122.525 38.6267 122.3 39.034C122.083 39.4327 121.975 39.8963 121.975 40.425C121.975 40.9623 122.083 41.4347 122.3 41.842C122.525 42.2407 122.82 42.5483 123.184 42.765C123.557 42.973 123.96 43.077 124.393 43.077C124.835 43.077 125.238 42.973 125.602 42.765C125.975 42.5483 126.269 42.2407 126.486 41.842C126.703 41.4347 126.811 40.958 126.811 40.412ZM130.76 34.38V44H129.577V34.38H130.76ZM133.387 35.719C133.162 35.719 132.971 35.641 132.815 35.485C132.659 35.329 132.581 35.1383 132.581 34.913C132.581 34.6877 132.659 34.497 132.815 34.341C132.971 34.185 133.162 34.107 133.387 34.107C133.604 34.107 133.786 34.185 133.933 34.341C134.089 34.497 134.167 34.6877 134.167 34.913C134.167 35.1383 134.089 35.329 133.933 35.485C133.786 35.641 133.604 35.719 133.387 35.719ZM133.959 36.876V44H132.776V36.876H133.959ZM138.875 37.851H137.38V44H136.197V37.851H135.274V36.876H136.197V36.369C136.197 35.5717 136.4 34.991 136.808 34.627C137.224 34.2543 137.887 34.068 138.797 34.068V35.056C138.277 35.056 137.908 35.16 137.692 35.368C137.484 35.5673 137.38 35.901 137.38 36.369V36.876H138.875V37.851ZM140.865 35.719C140.64 35.719 140.449 35.641 140.293 35.485C140.137 35.329 140.059 35.1383 140.059 34.913C140.059 34.6877 140.137 34.497 140.293 34.341C140.449 34.185 140.64 34.107 140.865 34.107C141.082 34.107 141.264 34.185 141.411 34.341C141.567 34.497 141.645 34.6877 141.645 34.913C141.645 35.1383 141.567 35.329 141.411 35.485C141.264 35.641 141.082 35.719 140.865 35.719ZM141.437 36.876V44H140.254V36.876H141.437ZM149.953 40.165C149.953 40.3903 149.94 40.6287 149.914 40.88H144.22C144.263 41.582 144.502 42.1323 144.935 42.531C145.377 42.921 145.91 43.116 146.534 43.116C147.045 43.116 147.47 42.999 147.808 42.765C148.155 42.5223 148.397 42.2017 148.536 41.803H149.81C149.619 42.4877 149.238 43.0467 148.666 43.48C148.094 43.9047 147.383 44.117 146.534 44.117C145.858 44.117 145.251 43.9653 144.714 43.662C144.185 43.3587 143.769 42.9297 143.466 42.375C143.163 41.8117 143.011 41.1617 143.011 40.425C143.011 39.6883 143.158 39.0427 143.453 38.488C143.748 37.9333 144.159 37.5087 144.688 37.214C145.225 36.9107 145.841 36.759 146.534 36.759C147.21 36.759 147.808 36.9063 148.328 37.201C148.848 37.4957 149.247 37.903 149.524 38.423C149.81 38.9343 149.953 39.515 149.953 40.165ZM148.731 39.918C148.731 39.4673 148.631 39.0817 148.432 38.761C148.233 38.4317 147.96 38.1847 147.613 38.02C147.275 37.8467 146.898 37.76 146.482 37.76C145.884 37.76 145.373 37.9507 144.948 38.332C144.532 38.7133 144.294 39.242 144.233 39.918H148.731ZM151.073 40.412C151.073 39.684 151.22 39.047 151.515 38.501C151.809 37.9463 152.212 37.5173 152.724 37.214C153.244 36.9107 153.824 36.759 154.466 36.759C155.02 36.759 155.536 36.889 156.013 37.149C156.489 37.4003 156.853 37.734 157.105 38.15V34.38H158.301V44H157.105V42.661C156.871 43.0857 156.524 43.4367 156.065 43.714C155.605 43.9827 155.068 44.117 154.453 44.117C153.82 44.117 153.244 43.961 152.724 43.649C152.212 43.337 151.809 42.8993 151.515 42.336C151.22 41.7727 151.073 41.1313 151.073 40.412ZM157.105 40.425C157.105 39.8877 156.996 39.4197 156.78 39.021C156.563 38.6223 156.268 38.319 155.896 38.111C155.532 37.8943 155.129 37.786 154.687 37.786C154.245 37.786 153.842 37.89 153.478 38.098C153.114 38.306 152.823 38.6093 152.607 39.008C152.39 39.4067 152.282 39.8747 152.282 40.412C152.282 40.958 152.39 41.4347 152.607 41.842C152.823 42.2407 153.114 42.5483 153.478 42.765C153.842 42.973 154.245 43.077 154.687 43.077C155.129 43.077 155.532 42.973 155.896 42.765C156.268 42.5483 156.563 42.2407 156.78 41.842C156.996 41.4347 157.105 40.9623 157.105 40.425Z" fill="#2E2E2E"/>
<defs>
<linearGradient id="paint0_linear_136_6" x1="18.0596" y1="3.91719" x2="38.5318" y2="38.8737" gradientUnits="userSpaceOnUse">
<stop stop-color="#71706D"/>
<stop offset="0.708342" stop-color="#2E2E2E"/>
<stop offset="1" stop-color="#181818"/>
</linearGradient>
<linearGradient id="paint1_linear_136_6" x1="22.814" y1="44.2471" x2="0.805438" y2="23.2406" gradientUnits="userSpaceOnUse">
<stop stop-color="#F47D00"/>
<stop offset="1" stop-color="#F6C667"/>
</linearGradient>
<linearGradient id="paint2_linear_136_6" x1="3.73744" y1="24.0852" x2="16.5469" y2="4.06689" gradientUnits="userSpaceOnUse">
<stop offset="0.237" stop-color="#FFCD69"/>
<stop offset="1" stop-color="#F47D00"/>
</linearGradient>
<linearGradient id="paint3_linear_136_6" x1="37.7792" y1="44.2482" x2="48.5089" y2="24.067" gradientUnits="userSpaceOnUse">
<stop stop-color="#FFCC69"/>
<stop offset="1" stop-color="#F47F02"/>
</linearGradient>
<linearGradient id="paint4_linear_136_6" x1="48.5255" y1="24.1964" x2="37.5717" y2="3.78597" gradientUnits="userSpaceOnUse">
<stop offset="0.237" stop-color="#F5B853"/>
<stop offset="1" stop-color="#F48207"/>
</linearGradient>
</defs>
</svg>
