<?xml version="1.0" encoding="UTF-8"?>
<svg xmlns="http://www.w3.org/2000/svg" width="100" height="41" viewBox="0 0 100 41" fill="none">
  <path d="M13.842 13.3695C13.8087 13.372 13.7753 13.372 13.7421 13.3695C13.5506 13.3403 13.3747 13.247 13.2431 13.1049C13.1115 12.9629 13.0319 12.7804 13.0173 12.5873C13.0173 12.2191 12.7808 3.52323 17.8805 1.54649C18.4348 1.28827 19.0478 1.18241 19.6566 1.2398C20.2654 1.2972 20.8479 1.51577 21.3442 1.87303C22.5695 2.73936 23.4608 4.45038 23.999 6.95442C24.2335 8.0625 24.3817 9.18712 24.4421 10.3181C24.4471 10.4043 24.4322 10.4905 24.3987 10.5701C24.3652 10.6497 24.3139 10.7206 24.2488 10.7773C24.1837 10.8339 24.1064 10.875 24.023 10.8972C23.9395 10.9194 23.8521 10.9222 23.7674 10.9054C23.5763 10.8769 23.4004 10.7846 23.2684 10.6435C23.1363 10.5024 23.0559 10.3208 23.0402 10.1282C22.9802 8.55215 22.4354 4.19214 20.6669 2.93929C20.3572 2.73986 20.0007 2.625 19.6329 2.60615C19.265 2.5873 18.8987 2.6651 18.5702 2.83183C14.2002 4.52785 14.4051 12.6897 14.4051 12.7722C14.4095 12.8491 14.398 12.926 14.3713 12.9983C14.3446 13.0705 14.3033 13.1364 14.25 13.192C14.1967 13.2476 14.1325 13.2916 14.0615 13.3212C13.9904 13.3509 13.914 13.3656 13.837 13.3645L13.842 13.3695Z" fill="#ADADAD"></path>
  <path d="M31.5476 7.84C31.5315 7.74368 31.4834 7.65561 31.411 7.59009C31.3463 7.54747 31.2734 7.51908 31.1969 7.50679L27.9598 7.25689L25.5816 4.90695C25.4935 4.84088 25.391 4.79662 25.2825 4.77783L23.5273 40.011L35.9309 37.3387L31.5476 7.84Z" fill="#EBEBEB"></path>
  <path d="M24.7187 4.81363L4.99454 10.8946C4.62263 10.9934 4.27004 11.1542 3.9516 11.3703C3.80069 11.6695 3.71549 11.9976 3.7017 12.3324L0.644531 35.7502L23.5308 40.0185L25.296 4.79363C25.1041 4.76179 24.9079 4.76859 24.7187 4.81363ZM17.7938 18.8591C17.6147 18.7758 17.3981 18.6783 17.1566 18.5892C16.8948 18.4913 16.6278 18.4079 16.3569 18.3393C16.0521 18.2654 15.7426 18.2125 15.4306 18.181C15.0932 18.1426 14.7534 18.1317 14.4143 18.1485C14.1167 18.1633 13.8226 18.2194 13.5404 18.3151C13.3003 18.3978 13.0768 18.5227 12.8807 18.6842C12.7016 18.8366 12.5565 19.0251 12.455 19.2373C12.3498 19.4611 12.2914 19.704 12.2834 19.9512C12.2754 20.1446 12.3068 20.3376 12.3759 20.5185C12.4526 20.7157 12.5622 20.8985 12.6999 21.0591C12.869 21.263 13.0576 21.45 13.263 21.6172C13.5228 21.8199 13.7937 22.0079 14.0744 22.1803C14.5326 22.4677 14.9702 22.7867 15.3839 23.135C15.8264 23.5017 16.2257 23.9176 16.5743 24.3745C16.9419 24.8612 17.2286 25.4041 17.4231 25.9822C17.6365 26.6261 17.7286 27.304 17.6947 27.9814C17.6681 29.0506 17.4125 30.1017 16.945 31.0636C16.5432 31.8628 15.9432 32.5457 15.2023 33.047C14.483 33.5208 13.664 33.8219 12.8091 33.9267C11.9003 34.0365 10.9793 33.9869 10.0876 33.7801H9.99763C9.56341 33.676 9.13742 33.5401 8.72311 33.3736C8.34128 33.2174 7.97104 33.0342 7.6152 32.8254C7.2993 32.6445 6.9987 32.438 6.71638 32.2082C6.47583 32.0143 6.25712 31.7947 6.06413 31.5534L7.10873 28.1081C7.28533 28.2572 7.50191 28.4254 7.74849 28.6079C8.01325 28.7958 8.28829 28.9688 8.57234 29.126C8.88044 29.2998 9.20091 29.4507 9.53114 29.5775C9.86118 29.7073 10.2045 29.8003 10.5549 29.8549C10.82 29.8941 11.09 29.8857 11.3521 29.8299C11.5749 29.7828 11.7837 29.6844 11.9619 29.5425C12.1281 29.4081 12.2609 29.237 12.3501 29.0427C12.4424 28.8363 12.4939 28.614 12.5017 28.388C12.5133 28.1593 12.4888 27.9301 12.4292 27.7091C12.3654 27.4808 12.2644 27.2646 12.1301 27.0693C11.9695 26.8374 11.7841 26.6237 11.577 26.432C11.3137 26.1895 11.0354 25.9636 10.744 25.7556C10.3479 25.4654 9.97721 25.1418 9.6361 24.7885C9.30363 24.4485 9.01204 24.0708 8.76726 23.6631C8.52597 23.2545 8.34341 22.8139 8.22497 22.3544C8.09898 21.8541 8.04788 21.3378 8.07336 20.8225C8.10552 19.9451 8.2884 19.0797 8.61399 18.2643C8.92433 17.4983 9.37144 16.7952 9.93349 16.1893C10.524 15.5608 11.2233 15.0443 11.9977 14.6649C12.8797 14.2337 13.8273 13.9522 14.8016 13.8319C15.2616 13.7723 15.7248 13.7409 16.1886 13.7377C16.6048 13.7353 17.0208 13.7592 17.434 13.8094C17.792 13.8542 18.1464 13.9247 18.4944 14.0201C18.7796 14.0962 19.0565 14.2008 19.3207 14.3325L17.7938 18.8591Z" fill="#ADADAD"></path>
  <path d="M9.02167 12.1692H8.92171C8.74143 12.1422 8.57909 12.0452 8.46991 11.8992C8.36074 11.7532 8.31355 11.57 8.3386 11.3895C8.39358 11.0188 9.70058 2.32294 15.1493 0.346198C15.6958 0.0841444 16.3033 -0.0239292 16.9066 0.0336091C17.5098 0.0911474 18.086 0.312119 18.573 0.67274C19.6435 1.53908 20.2341 3.25009 20.3157 5.75413C20.3538 6.87754 20.3039 8.00221 20.1666 9.11785C20.133 9.29178 20.0339 9.4462 19.8899 9.54932C19.7458 9.65244 19.5677 9.69641 19.3923 9.67218C19.2168 9.64795 19.0572 9.55736 18.9465 9.41906C18.8358 9.28077 18.7823 9.10529 18.7971 8.92875C19.0162 7.35269 19.2378 2.99269 17.6917 1.74233C17.3872 1.53946 17.0338 1.42221 16.6684 1.40287C16.303 1.38352 15.9392 1.46279 15.615 1.63237C10.9501 3.32839 9.71807 11.4828 9.70558 11.5752C9.68208 11.7393 9.60009 11.8893 9.47473 11.9977C9.34936 12.1061 9.18905 12.1655 9.02334 12.165L9.02167 12.1692Z" fill="#ADADAD"></path>
  <path d="M43.1758 37.4012L45.0209 27.4758C45.2525 26.263 45.4266 25.2 45.5416 24.2037H46.3313L46.0422 26.1955H46.0797C46.404 25.6085 46.8655 25.1088 47.4249 24.7389C47.9842 24.369 48.6247 24.1399 49.2918 24.0713C51.0345 24.0713 51.6975 25.5207 51.6975 27.0393C51.6975 30.1548 49.5608 33.7376 46.6161 33.7376C45.9927 33.6793 45.3749 33.5718 44.7685 33.4161H44.731L43.9988 37.4004L43.1758 37.4012ZM44.9185 32.374C45.4424 32.7379 46.0713 32.9199 46.7086 32.8921C49.151 32.8921 50.842 29.4309 50.842 27.0651C50.842 25.9672 50.4189 24.7369 49.0544 24.7369C47.7474 24.7369 46.0339 26.4104 45.5157 29.1993L44.9185 32.374Z" fill="#ADADAD"></path>
  <path d="M57.9634 33.6993C57.9762 32.8646 58.0537 32.0322 58.195 31.2095H58.165C57.107 33.2012 55.9242 33.7693 54.7213 33.7693C53.3168 33.7693 52.4805 32.5589 52.4805 30.9054C52.4805 27.7508 54.7213 24.068 58.3116 24.068C58.9424 24.0547 59.5716 24.139 60.1767 24.3179L59.1954 29.3926C58.9115 30.8089 58.7763 32.2509 58.7922 33.6952L57.9634 33.6993ZM59.1962 24.9044C58.8347 24.7968 58.4576 24.7515 58.0808 24.7703C55.426 24.7703 53.3493 27.7333 53.3326 30.6372C53.3126 31.85 53.6592 32.9255 54.9087 32.9255C56.4031 32.9255 58.1008 30.6847 58.544 28.2914L59.1962 24.9044Z" fill="#ADADAD"></path>
  <path d="M60.7539 33.7001L61.9293 27.3691C62.1385 26.334 62.2856 25.2872 62.37 24.2345H63.1197C63.0597 24.9842 62.983 25.4799 62.8698 26.4753H62.9097C63.4679 25.23 64.3892 24.1495 65.5446 24.1495C65.6587 24.1495 65.7945 24.1121 65.8903 24.1121L65.7162 24.9684C65.6158 24.9445 65.5128 24.9336 65.4096 24.9359C64.1968 24.9359 62.8498 26.8735 62.4666 28.8927L61.5828 33.6959L60.7539 33.7001Z" fill="#ADADAD"></path>
  <path d="M69.6805 22.2178L69.2748 24.2395H71.449L71.2949 24.9892H69.1232L68.0978 30.4646C67.9844 30.985 67.9203 31.5149 67.9062 32.0474C67.8882 32.1615 67.8969 32.2783 67.9315 32.3885C67.9661 32.4988 68.0257 32.5995 68.1057 32.6829C68.1857 32.7663 68.284 32.8301 68.3927 32.8693C68.5014 32.9084 68.6177 32.9219 68.7325 32.9087C68.9596 32.9181 69.1868 32.89 69.4048 32.8254L69.4647 33.4976C69.171 33.5833 68.8668 33.6276 68.5609 33.6293C68.3587 33.6484 68.1547 33.6232 67.9633 33.5552C67.7718 33.4873 67.5975 33.3783 67.4526 33.236C67.3077 33.0936 67.1957 32.9213 67.1244 32.7311C67.0531 32.5409 67.0242 32.3374 67.0398 32.1348C67.0466 31.5708 67.1176 31.0093 67.2514 30.4613L68.2902 24.9834H66.9648L67.099 24.2337H68.446L68.755 22.5776L69.6805 22.2178Z" fill="#ADADAD"></path>
  <path d="M71.332 33.6994L72.5624 27.0661C72.774 25.9682 72.8914 24.9836 72.9681 24.2338H73.7553L73.4862 26.2256H73.5262C73.8477 25.6307 74.3117 25.1248 74.8766 24.7531C75.4415 24.3814 76.0897 24.1555 76.7633 24.0956C77.0563 24.0901 77.347 24.1479 77.6157 24.265C77.8843 24.3822 78.1246 24.5558 78.32 24.7742C78.5154 24.9926 78.6615 25.2505 78.7482 25.5305C78.8349 25.8104 78.8603 26.1057 78.8225 26.3964C78.8103 26.9092 78.752 27.42 78.6484 27.9224L77.588 33.6994H76.7633L77.8387 27.9074C77.9243 27.4441 77.9692 26.9742 77.9728 26.503C77.9728 25.5417 77.5871 24.8195 76.4542 24.8195C75.2214 24.8195 73.4662 26.4605 73.068 28.6913L72.1642 33.6986L71.332 33.6994Z" fill="#ADADAD"></path>
  <path d="M85.4893 32.9438C84.7342 33.4138 83.8588 33.6543 82.9695 33.6361C80.8153 33.6361 80.0664 31.9425 80.0664 30.1749C80.0664 27.5201 81.9315 24.0372 84.5647 24.0372C84.8438 24.0066 85.1261 24.0368 85.3924 24.1257C85.6586 24.2146 85.9025 24.3601 86.1072 24.5522C86.3119 24.7443 86.4725 24.9785 86.5781 25.2386C86.6837 25.4987 86.7317 25.7785 86.7189 26.059C86.7189 28.4047 84.0249 29.047 81.0044 29.047C80.8902 29.8147 80.9164 30.5969 81.0819 31.3553C81.1851 31.8091 81.4431 32.2128 81.8115 32.4972C82.18 32.7816 82.6359 32.9289 83.1011 32.9138C83.8573 32.9137 84.598 32.6997 85.2378 32.2966L85.4893 32.9438ZM85.8875 26.0764C85.8925 25.8901 85.8569 25.7049 85.7832 25.5337C85.7094 25.3625 85.5993 25.2094 85.4604 25.085C85.3215 24.9607 85.1573 24.868 84.979 24.8135C84.8007 24.759 84.6128 24.744 84.4281 24.7694C83.0061 24.7694 81.7441 26.308 81.1685 28.3081C83.5717 28.3281 85.8875 27.9249 85.8875 26.0973V26.0764Z" fill="#ADADAD"></path>
  <path d="M87.2773 33.7001L88.4502 27.3691C88.6614 26.3342 88.8094 25.2874 88.8934 24.2345H89.6431C89.5856 24.9842 89.509 25.4799 89.3932 26.4753H89.4332C89.9913 25.23 90.9151 24.1495 92.068 24.1495C92.1855 24.1495 92.3179 24.1121 92.4137 24.1121L92.2421 24.9684C92.1409 24.9446 92.037 24.9336 91.9331 24.9359C90.7202 24.9359 89.3757 26.8735 88.99 28.8927L88.1062 33.6959L87.2773 33.7001Z" fill="#ADADAD"></path>
  <path d="M92.1273 32.3881C92.6003 32.7224 93.1642 32.9041 93.7434 32.9087C94.0053 32.9229 94.2673 32.8836 94.5136 32.7933C94.7598 32.703 94.9852 32.5636 95.1759 32.3836C95.3666 32.2035 95.5187 31.9866 95.623 31.7459C95.7273 31.5053 95.7816 31.2459 95.7826 30.9836C95.792 30.5602 95.6796 30.1429 95.4589 29.7815C95.2381 29.42 94.9182 29.1295 94.5372 28.9444C94.1248 28.7157 93.7774 28.3855 93.5282 27.985C93.2789 27.5846 93.1359 27.1272 93.1128 26.6561C93.1187 26.2978 93.1969 25.9443 93.3427 25.6168C93.4884 25.2894 93.6986 24.9947 93.9608 24.7503C94.2231 24.506 94.5319 24.317 94.8688 24.1948C95.2057 24.0725 95.5638 24.0195 95.9217 24.0388C96.4565 24.0239 96.9841 24.1649 97.4403 24.4445L97.1337 25.1567C96.7397 24.9152 96.2888 24.7821 95.8268 24.771C95.5883 24.7568 95.3494 24.7912 95.1246 24.8721C94.8998 24.953 94.6938 25.0788 94.5192 25.2418C94.3445 25.4048 94.2048 25.6016 94.1085 25.8202C94.0122 26.0389 93.9614 26.2748 93.9591 26.5137C93.9591 27.38 94.4589 27.8607 95.2045 28.3813C95.6217 28.6283 95.9706 28.9758 96.2194 29.392C96.4682 29.8082 96.609 30.2801 96.6289 30.7646C96.6442 31.1543 96.5775 31.5429 96.4329 31.9051C96.2884 32.2674 96.0693 32.5952 95.79 32.8674C95.5106 33.1395 95.1771 33.3499 94.8112 33.4849C94.4453 33.6199 94.0551 33.6765 93.6659 33.651C93.0016 33.6607 92.3505 33.4658 91.8008 33.0928L92.1273 32.3881Z" fill="#ADADAD"></path>
  <path d="M82.6589 2.96827C82.4571 2.96791 82.2573 3.00776 82.0711 3.08548C81.885 3.16321 81.7161 3.27725 81.5745 3.42096C81.4329 3.56467 81.3214 3.73515 81.2464 3.92245C81.1714 4.10975 81.1345 4.31012 81.1378 4.51185C81.1223 4.68334 81.1431 4.85619 81.199 5.01906C81.2549 5.18194 81.3446 5.33117 81.4621 5.457C81.5797 5.58282 81.7225 5.68239 81.8812 5.7492C82.04 5.81601 82.211 5.84854 82.3831 5.84467H82.4231C82.6291 5.85399 82.8348 5.82057 83.0273 5.74652C83.2197 5.67248 83.3948 5.55941 83.5414 5.41443C83.688 5.26944 83.8031 5.09568 83.8793 4.90408C83.9555 4.71248 83.9912 4.50718 83.9842 4.30109C83.9939 4.12424 83.9663 3.94733 83.9032 3.78181C83.8402 3.61629 83.7431 3.46585 83.6183 3.34022C83.4934 3.21459 83.3436 3.11656 83.1785 3.05249C83.0134 2.98842 82.8366 2.95973 82.6597 2.96827H82.6589Z" fill="#ADADAD"></path>
  <path d="M47.9966 10.7222C47.3219 10.3565 46.9729 10.0475 46.9729 9.6243C46.9729 9.08367 47.456 8.73797 48.2182 8.73797C48.7909 8.73925 49.3566 8.86398 49.8768 9.10366L50.4815 7.21855C49.782 6.88991 49.0126 6.73775 48.2407 6.77539C45.9083 6.77539 44.3089 8.10821 44.3089 9.975C44.3548 10.5014 44.5405 11.0059 44.8469 11.4364C45.1533 11.8668 45.5692 12.2075 46.0515 12.4232C46.8604 12.8839 47.152 13.2129 47.152 13.6952C47.152 14.1776 46.7463 14.6016 45.9941 14.6016C45.2321 14.5799 44.4859 14.3802 43.8149 14.0185L43.1602 15.9086C43.9618 16.3527 44.8661 16.5785 45.7825 16.5633C48.1732 16.5833 49.8884 15.3879 49.8884 13.2662C49.9042 12.1292 49.0379 11.3195 47.9966 10.7222Z" fill="#ADADAD"></path>
  <path d="M57.5207 6.7863C56.9754 6.7926 56.4387 6.92249 55.9508 7.16619C55.463 7.40989 55.0368 7.76106 54.7043 8.19326L54.6668 8.17577L55.6781 2.83447H53.0257L50.4492 16.4276H53.109L53.9979 11.7811C54.3436 10.0384 55.2432 8.94881 56.0996 8.94881C56.6968 8.94881 56.9326 9.35449 56.9326 9.94842C56.9316 10.3439 56.8923 10.7384 56.8151 11.1263L55.8155 16.4476H58.4812L59.5224 10.9497C59.637 10.3755 59.7012 9.79241 59.714 9.20704C59.6957 7.69262 58.9152 6.7863 57.5207 6.7863Z" fill="#ADADAD"></path>
  <path d="M65.7094 6.75032C62.5098 6.75032 60.3881 9.64338 60.3881 12.8638C60.3522 13.3569 60.4219 13.8519 60.5926 14.3159C60.7634 14.7798 61.0312 15.202 61.3781 15.5541C61.7251 15.9063 62.1432 16.1803 62.6045 16.3579C63.0659 16.5355 63.5598 16.6126 64.0534 16.5841C67.1955 16.5841 69.3172 13.7701 69.3172 10.4731C69.3561 9.98412 69.2904 9.4925 69.1244 9.03093C68.9585 8.56937 68.6961 8.14846 68.3547 7.79624C68.0134 7.44401 67.6009 7.16855 67.1448 6.98821C66.6886 6.80786 66.1993 6.72677 65.7094 6.75032ZM64.3899 14.539C63.4836 14.539 63.0979 13.7693 63.0979 12.7963C63.0979 11.2753 63.8876 8.78704 65.3387 8.78704C66.285 8.78704 66.5841 9.59673 66.5841 10.3881C66.5957 12.0341 65.8069 14.539 64.3899 14.539Z" fill="#ADADAD"></path>
  <path d="M76.1241 6.74536C75.5628 6.76544 75.0144 6.9196 74.5249 7.19495C74.0353 7.4703 73.6188 7.85884 73.3101 8.32809H73.2727L73.4243 6.90113H71.0743C70.9569 7.86493 70.7453 9.33104 70.5337 10.4298L68.6836 20.1619H71.3434L72.0756 16.2301H72.1356C72.6188 16.4743 73.1555 16.5935 73.6967 16.5766C76.8196 16.5766 78.8614 13.377 78.8614 10.1374C78.863 8.34642 78.0717 6.74536 76.1241 6.74536ZM73.5792 14.5757C73.1782 14.5842 72.7879 14.4462 72.4813 14.1875L72.9245 11.6976C73.2335 10.0441 74.1048 8.95868 75.0262 8.95868C75.8475 8.95868 76.0966 9.7084 76.0966 10.4106C76.0966 12.1241 75.0653 14.574 73.5792 14.574V14.5757Z" fill="#ADADAD"></path>
  <path d="M78.9375 16.3907H81.6031L83.4133 6.96094H80.7343L78.9375 16.3907Z" fill="#ADADAD"></path>
  <path d="M90.1753 6.97943H88.3252L88.4201 6.53627C88.5742 5.62995 89.1148 4.81775 90.0028 4.81775C90.2914 4.81582 90.5783 4.86199 90.8517 4.95437L91.3723 2.87183C90.91 2.69986 90.4182 2.62115 89.9254 2.64025C88.9807 2.61262 88.0575 2.92441 87.323 3.51908C86.4783 4.3144 85.934 5.37689 85.7819 6.5271L85.7045 6.97027H84.4591L84.0834 8.99699H85.3263L83.9102 16.4275H86.57L87.977 8.99699H89.8096L90.1753 6.97943Z" fill="#ADADAD"></path>
  <path d="M96.5827 6.96295L94.9583 11.1963C94.5726 12.2176 94.3802 12.8149 94.1686 13.4521H94.1286C94.0911 12.8349 94.0145 12.1601 93.8971 11.2113L93.4772 6.98044H90.6808L92.2818 15.6163C92.3032 15.6902 92.3091 15.7676 92.2992 15.8439C92.2893 15.9201 92.2639 15.9935 92.2244 16.0595C91.8813 16.7045 91.3885 17.2578 90.7874 17.673C90.3283 17.9942 89.8249 18.2468 89.293 18.4227L90.0052 20.6636C90.9796 20.4037 91.8745 19.9065 92.61 19.2166C94.0761 17.6759 95.2565 15.8868 96.0962 13.9328L99.3558 6.96045L96.5827 6.96295Z" fill="#ADADAD"></path>
</svg>
