<?xml version="1.0" encoding="UTF-8"?>
<svg xmlns="http://www.w3.org/2000/svg" width="40" height="41" viewBox="0 0 40 41" fill="none">
  <g clip-path="url(#clip0_2_500)">
    <path d="M24.7289 37.7281V37.982C24.7289 38.7727 24.0883 39.4141 23.2969 39.4141H2.33906C1.54766 39.4141 0.90625 38.7727 0.90625 37.982V6.34766H24.7289V20.9273" stroke="black" stroke-miterlimit="10" stroke-linecap="round" stroke-linejoin="round"></path>
    <path d="M12.8176 21.2069H3.01547V28.0734H12.8176V21.2069Z" stroke="black" stroke-miterlimit="10" stroke-linecap="round" stroke-linejoin="round"></path>
    <path d="M12.8176 30.3749H3.01547V37.3047H12.8176V30.3749Z" stroke="black" stroke-miterlimit="10" stroke-linecap="round" stroke-linejoin="round"></path>
    <path d="M22.6198 8.45703H3.01555V19.0287H22.6198V8.45703Z" stroke="black" stroke-miterlimit="10" stroke-linecap="round" stroke-linejoin="round"></path>
    <path d="M23.2969 0.585938H2.33844C1.54742 0.585938 0.906174 1.22719 0.906174 2.0182V6.34766H24.7291V2.0182C24.7291 1.22719 24.0879 0.585938 23.2969 0.585938Z" stroke="black" stroke-miterlimit="10" stroke-linecap="round" stroke-linejoin="round"></path>
    <path d="M3.01758 3.4668H8.835" stroke="black" stroke-miterlimit="10" stroke-linecap="round" stroke-linejoin="round"></path>
    <path d="M11.2759 11.7092H14.3595" stroke="black" stroke-miterlimit="10" stroke-linecap="round" stroke-linejoin="round"></path>
    <path d="M8.67602 13.7428H16.9593" stroke="black" stroke-miterlimit="10" stroke-linecap="round" stroke-linejoin="round"></path>
    <path d="M8.67602 15.7764H16.9593" stroke="black" stroke-miterlimit="10" stroke-linecap="round" stroke-linejoin="round"></path>
    <path d="M28.1458 24.5729C30.7865 27.2135 30.7865 31.5104 28.1458 34.1458C26.8281 35.4635 25.0937 36.125 23.3594 36.125C21.625 36.125 19.8906 35.4635 18.5729 34.1458C15.9323 31.5052 15.9323 27.2083 18.5729 24.5729C21.2135 21.9375 25.5052 21.9323 28.1458 24.5729ZM19.3073 33.4114C21.5417 35.6458 25.1771 35.6458 27.4115 33.4114C29.6458 31.1771 29.6458 27.5417 27.4115 25.3073C26.2969 24.1927 24.8281 23.6302 23.3594 23.6302C21.8906 23.6302 20.4271 24.1875 19.3073 25.3073C17.0729 27.5417 17.0729 31.1771 19.3073 33.4114Z" fill="black"></path>
    <path d="M29.0833 22.6042C32.5885 25.5885 33.2188 30.6927 30.6198 34.4114L34.0365 37.8281C34.3333 38.125 34.4948 38.5156 34.4948 38.9323C34.4948 39.3489 34.3333 39.7396 34.0365 40.0364C33.7344 40.3385 33.3333 40.4948 32.9323 40.4948C32.5313 40.4948 32.1302 40.3437 31.8281 40.0364L28.4115 36.6198C24.9219 39.0521 20.1354 38.6562 17.099 35.6198C15.3698 33.8906 14.4479 31.5885 14.5104 29.1354C14.5729 26.6875 15.6094 24.4323 17.4271 22.7864C20.7083 19.8125 25.7187 19.7344 29.0833 22.6042ZM17.8333 34.8802C20.6094 37.6562 25.0417 37.9323 28.1406 35.5208C28.349 35.3594 28.6406 35.375 28.8281 35.5625L32.5677 39.3021C32.7708 39.5052 33.099 39.5052 33.3021 39.3021C33.401 39.2031 33.4531 39.0729 33.4531 38.9323C33.4531 38.7917 33.401 38.6614 33.3021 38.5625L29.5677 34.8281C29.3802 34.6406 29.3646 34.3489 29.526 34.1406C32.0937 30.8385 31.6042 26.1146 28.4115 23.3958C26.9844 22.1823 25.1771 21.5781 23.3698 21.5781C21.4792 21.5781 19.5833 22.2396 18.125 23.5573C16.5208 25.0104 15.6042 27 15.5521 29.1614C15.4948 31.3229 16.3073 33.3542 17.8333 34.8802Z" fill="black"></path>
    <path d="M21.276 28.8541H22.8385V27.2916C22.8385 27.0052 23.0729 26.7708 23.3594 26.7708C23.6458 26.7708 23.8802 27.0052 23.8802 27.2916V28.8541H25.4427C25.7292 28.8541 25.9635 29.0885 25.9635 29.375C25.9635 29.6614 25.7292 29.8958 25.4427 29.8958H23.8802V31.4583C23.8802 31.7448 23.6458 31.9791 23.3594 31.9791C23.0729 31.9791 22.8385 31.7448 22.8385 31.4583V29.8958H21.276C20.9896 29.8958 20.7552 29.6614 20.7552 29.375C20.7552 29.0885 20.9896 28.8541 21.276 28.8541Z" fill="black"></path>
  </g>
  <defs>
    <clipPath id="clip0_2_500">
      <rect width="40" height="41" fill="white"></rect>
    </clipPath>
  </defs>
</svg>
